<?xml version="1.0" encoding="utf-8" ?>
<svg baseProfile="full" height="300mm" version="1.1" viewBox="0,0,200,300" width="200mm" xmlns="http://www.w3.org/2000/svg" xmlns:ev="http://www.w3.org/2001/xml-events" xmlns:xlink="http://www.w3.org/1999/xlink"><defs /><rect fill="#222222" height="300" width="200" x="0" y="0" /><text fill="#FFFFFF" style="font-size:12px; font-family:Arial; font-weight:bold;" x="10" y="20">Over 10km Runs</text><text fill="#FFFFFF" style="font-size:4px; font-family:Arial" x="10" y="280">Runner</text><text fill="#FFFFFF" style="font-size:9px; font-family:Arial" x="10" y="290">rick</text><text fill="#FFFFFF" style="font-size:4px; font-family:Arial" x="65" y="280">SPECIAL TRACKS</text><rect fill="yellow" height="2.6" width="2.6" x="65" y="283" /><text fill="#FFFFFF" style="font-size:3px; font-family:Arial" x="70" y="285.5">Over 20.0 km</text><rect fill="red" height="2.6" width="2.6" x="65" y="287" /><text fill="#FFFFFF" style="font-size:3px; font-family:Arial" x="70" y="289.5">Over 40.0 km</text><text fill="#FFFFFF" style="font-size:4px; font-family:Arial" x="120" y="280">STATISTICS</text><text fill="#FFFFFF" style="font-size:3px; font-family:Arial" x="120" y="285">Number: 5</text><text fill="#FFFFFF" style="font-size:3px; font-family:Arial" x="120" y="290">Weekly: 1.0</text><text fill="#FFFFFF" style="font-size:3px; font-family:Arial" x="141" y="285">Total: 54.6 km</text><text fill="#FFFFFF" style="font-size:3px; font-family:Arial" x="141" y="290">Avg: 10.9 km</text><text fill="#FFFFFF" style="font-size:3px; font-family:Arial" x="167" y="285">Min: 10.2 km</text><text fill="#FFFFFF" style="font-size:3px; font-family:Arial" x="167" y="290">Max: 12.3 km</text><polyline fill="none" points="65.75657254137332,62.510805122641614 65.68646543327486,62.6060903659818 65.56377799413167,62.930059927806724 65.96689386561047,63.88290920194413 66.82570593967102,63.97819393413374 67.57935735152569,63.94008004553325 68.29795520933112,63.90196615124296 68.9289191821008,63.71139659459004 69.62999026296893,63.86385225127742 70.10321324242977,64.41650324498187 70.34858812071616,64.91198243106192 71.0671859785798,65.04538050947303 71.64556962018833,65.10255109322316 72.22395326197147,65.25500592072785 72.88997078867396,65.42651749306242 73.76630963973003,65.42651749306242 74.48490749759367,65.50274482162786 75.08081791625591,65.90293792389275 75.67672833503457,66.36030070268316 76.14995131449541,66.93200302617333 76.48296007787576,67.50370407190348 76.93865628045751,67.86578073997225 77.44693281396758,67.98012063391798 78.27069133403711,68.11351711227326 79.09444985393202,68.24691352112859 79.79552093474194,68.34219662766554 80.25121713726548,67.71332746850385 80.37390457646688,66.93200302617333 80.42648490751162,66.18878975647385 80.60175267769955,66.11256263236282 80.56669912370853,66.97011646896135 80.47906523855636,67.8276674306544 80.98734177212464,68.11351711227326 81.68841285293456,68.18974364011956 82.37195715674898,68.26597014525032 83.05550146056339,68.30408338927373 83.79162609536434,68.4565363087022 84.47517039923696,68.53276273430674 85.21129503409611,68.64710233012738 85.84225900680758,68.83766820964229 85.98247322294628,69.46653460474045 85.89483933785232,70.15256890893215 85.24634858808713,70.32407719755429 84.58033106126823,70.41935953042412 83.91431353462394,70.51464182778727 83.26582278485876,70.62898053777462 82.5472249269369,70.70520631606632 81.81110029213596,70.68614987362525 81.0749756572186,70.60992408968741 80.40895813051611,70.32407719755429 79.90068159688963,70.49558537115809 79.00681596883805,70.68614987362525 78.25316455692519,70.81954494088131 77.4644595910795,70.91482708920375 76.69328140211292,70.99105278229399 75.85199610516429,70.99105278229399 75.11587147030514,70.99105278229399 74.37974683544599,71.01010920203407 73.64362220052863,71.01010920203407 72.85491723462474,71.02916562034807 72.22395326197147,71.04822203720687 71.62804284319282,70.49558537115809 70.96202531643212,70.0572864767455 70.27848101267591,69.84766500089609 69.612463485857,69.50464766990626 69.5949367088615,68.70427210889466 69.80525803309865,68.05634720152011 70.5413826678996,67.98012063391798 71.25998052582145,67.88483739254298 71.6105160661973,67.71332746850385 72.43427458615042,67.73238413239596 73.13534566701856,67.84672408598999 73.85394352482399,67.94200734161132 74.71275559882633,67.86578073997225 75.39629990258254,68.0182339206076 76.09737098339247,67.96106398852135 77.04381694248877,67.98012063391798 77.8675754625583,68.03729056174052 78.65628042840399,68.17068701027893 79.39240506326314,68.24691352112859 80.07594936707756,68.32314000918996 80.40895813051611,69.04729051310278 80.49659201555187,69.77143896707275 80.07594936707756,70.36219013495429 79.44498539430788,70.5908676401159 78.69133398245322,70.74331919668475 77.92015579360304,70.8576578044449 77.13145082764095,70.95293993860832 76.34274586167885,70.99105278229399 75.48393378773471,70.99105278229399 74.69522882177262,71.01010920203407 74.01168451801641,71.01010920203407 73.29308666015277,71.02916562034807 72.5394352482981,71.02916562034807 71.83836416748818,70.83860137339798 71.22492697171401,70.32407719755429 70.73417721519945,70.70520631606632 70.2609542356222,71.39123729844869 69.68257059395546,71.90575932792854 68.98149951320374,72.15349178787437 68.35053554037586,72.40122400791734 67.71957156766439,72.6680122842663 67.03602726384997,72.9348002824845 66.19474196690135,73.2397005110688 65.59883154812269,73.52554414540646 64.82765335933072,73.7923312492785 64.19668938656105,74.05911807496159 63.443037974706385,74.24967992294114 62.74196689395467,74.47835395320726 61.98831548198359,74.70702777907718 61.199610516021494,74.9357014005218 60.44595910416683,75.08815036797023 59.604673807218205,75.24059924454195 58.86854917235905,75.4121041221224 58.14995131449541,75.62172103858029 57.361246348533314,75.71700139839959 56.55501460557571,75.85039384248375 55.83641674782848,76.04095435628551 55.06523855886189,76.19340266508516 54.29406037001172,76.34585088309541 53.54040895815706,76.53641102781694 52.76923076919047,76.66980304470053 51.945472249237355,76.80319499208417 51.1918208374409,76.936586869866 50.45569620252354,77.08903464503237 49.754625121713616,77.22242637378804 49.03602726390818,77.35581803298555 48.247322297946084,77.48920962265402 47.49367088609142,77.64165706856875 46.72249269718304,77.64165706856875 45.95131450833287,77.64165706856875 45.2151898733573,77.60354521560657 44.46153846156085,77.60354521560657 43.67283349559875,77.60354521560657 42.93670886079781,77.66071299293253 42.235637779929675,77.69882483733818 41.4644595910795,77.69882483733818 40.76338851021137,77.7178807574237 39.9922103213612,77.67976891585568 39.20350535545731,77.62260114277888 38.379746835445985,77.52732149264193 37.608568646537606,77.47015368557186 36.837390457629226,77.39392992286594 36.10126582282828,77.33676208596444 35.295034079870675,77.18431445833994 34.506329113966785,77.06997867811879 33.75267770211212,76.936586869866 32.999026290199254,76.7460270231677 32.245374878286384,76.49829901025805 31.54430379747646,76.36490690398205 30.808179162675515,76.19340266508516 30.054527750762645,76.00284226487565 29.318403115903493,75.85039384248375 28.59980525803985,75.65983318677172 27.84615384618519,75.43116021253809 27.12755598826334,75.2787114495004 26.426484907453414,75.08815036797023 25.707887049706187,74.95475752638595 24.971762414788827,74.70702777907718 24.253164556983393,74.51646627172886 23.51703992212424,74.36401696362009 22.74586173321586,74.19251138347317 22.027263875410426,74.0400618823769 21.185978578345384,73.73516260758333 20.519961051642895,73.48743167928478 19.836416747770272,73.31592551148788 19.135345666960347,73.06819417717634 18.41674780921312,72.82046260302013 17.733203505398706,72.57273078893195 17.014605647535063,72.26782976537652 16.33106134372065,72.00104107167863 15.665043816959951,71.71519573395199 14.981499513145536,71.4865192338475 14.333008763380349,70.97199636115693 14.017526777053718,70.38124660153699 14.683544303814415,70.11445594033285 14.070107108156662,70.40030306666449 14.280428432335611,71.08633486673352 14.87633885111427,71.4484064639546 15.542356377758551,71.65802662812348 16.13826679653721,71.96292837843066 16.90944498544559,72.26782976537652 17.66309639730025,72.5346181808709 18.2590068160207,72.80140631810355 18.94255111977691,73.10630670574028 19.766309639788233,73.33498175801651 20.379746835387778,73.58271283394424 21.080817916197702,73.73516260758333 21.922103213262744,74.00194949290017 22.74586173321586,74.26873609995528 23.464459591079503,74.47835395320726 24.218111002992373,74.66891548897547 25.024342745891772,74.89758914448612 25.707887049706187,75.06909425198683 26.514118792605586,75.16437481762841 27.37293086660793,75.39304803026607 28.17916260950733,75.62172103858029 28.967867575469427,75.62172103858029 28.9328140214202,74.8785330143146 28.985394352464937,74.19251138347317 28.967867575469427,73.48743167928478 28.950340798473917,72.62989969039336 29.09055501461262,71.69613936678797 29.143135345657356,70.81954494088131 29.037974683509674,70.0572864767455 28.31937682570424,69.77143896707275 27.705939630046487,69.54276072938228 27.565725413849577,69.00917737979034 28.42453748785192,68.70427210889466 29.16066212276928,68.53276273430674 29.80915287247626,68.36125324470049 30.59785783838015,68.24691352112859 31.298928919190075,68.15163037907041 32.01752677705372,68.03729056174052 32.70107108086813,67.88483739254298 33.472249269718304,67.77049745597469 34.243427458626684,67.67521413644135 35.15481986373197,67.71332746850385 36.01363193767611,67.8276674306544 36.74975657259347,67.80861077380541 37.52093476138543,67.80861077380541 38.257059396361,67.77049745597469 39.04576436226489,67.78955411558854 39.781888997065835,67.84672408598999 40.535540408978704,67.78955411558854 41.35929892893182,67.80861077380541 42.20058422588045,67.88483739254298 42.989289191842545,67.92295069331885 43.777994157746434,67.92295069331885 44.566699123650324,67.94200734161132 45.285296981513966,67.92295069331885 46.038948393426836,67.94200734161132 46.84518013638444,67.94200734161132 47.68646543333307,67.98012063391798 48.47517039923696,67.98012063391798 49.281402142194565,68.03729056174052 50.08763388515217,68.03729056174052 50.85881207394414,68.07540383985906 51.629990262910724,68.05634720152011 52.43622200586833,68.07540383985906 53.137293086678255,68.07540383985906 53.90847127552843,68.11351711227326 54.66212268738309,68.11351711227326 55.36319376825122,68.13257374639215 56.099318403110374,68.15163037907041 56.397273612441495,68.49464952432027 56.04673807206564,69.04729051310278 55.310613437206484,69.42842153389938 54.74975657253526,69.84766500089609 54.34664070105646,70.4574724536069 53.82083739043446,71.01010920203407 53.94352482963586,71.81047754870087 54.57448880234733,72.36311137431767 55.170399221009575,72.74423745501554 56.02921129507013,72.80140631810355 56.76533592987107,72.64895598802832 57.448880233685486,72.32499873498455 57.93962999031646,71.77236482707667 58.36027263873257,71.1435041004006 58.72833495622035,70.53369828297582 59.53456669911975,70.4574724536069 60.0077896786388,71.12444769059948 60.533592989319004,70.667093429729 60.673807205457706,69.92389101197477 60.533592989319004,69.10446020244854 60.51606621226529,68.30408338927373 60.551119766256306,67.56087410615874 60.49853943526978,66.8557761234988 60.48101265827427,66.15067619724141 60.49853943526978,65.40746065738495 60.638753651466686,64.64518606553611 61.39240506326314,64.47367396924528 62.02336903603282,64.51178777837777 62.65433300874429,64.53084468079032 63.23271665041102,64.51178777837777 63.96884128532838,64.64518606553611 64.5296981499996,64.64518606553611 64.7925998052815,64.39744633402734" stroke="#4DD2FF" stroke-linecap="round" stroke-linejoin="round" stroke-width="0.5"><title>2026-03-22 12.3km</title><desc>1210184584</desc></polyline><polyline fill="none" points="165.65217391308397,62.33221872791182 165.33561309234938,62.293974258500384 165.37078651686898,62.198363060102565 165.47630679048598,62.38958542131877 165.44113336590817,63.03974038363958 165.77528089890257,63.78550434173667 166.30288226675475,63.93848129604885 166.88324377132813,63.97672552037693 167.39325842697872,63.95760340891138 167.9032730825711,63.919359181745676 168.4132877382217,63.93848129604885 168.85295554471668,63.97672552037693 169.18710307771107,64.1679465565685 169.64435759646585,64.26355702122964 169.99609184172004,64.58863233467855 170.11919882759685,64.85634110716637 170.55886663409183,65.08580554711807 171.05129457742441,65.06668351826374 171.473375671776,65.16229364815808 171.8602833414916,65.18141566985287 172.24719101120718,65.29614777011739 172.68685881781857,65.39175781449012 173.19687347341096,65.46824582439149 173.74206155352294,65.44912382404436 174.23448949685553,65.52561181684723 174.6917440156103,65.75507565836597 175.1841719590011,66.04190517183451 175.6062530532363,66.36697823292343 175.95798729843227,66.73029469634639 176.16902784560807,67.22746376022405 176.46800195408287,67.62902268575272 176.90766976063605,67.85848464685841 177.32975085492944,67.93497192162613 177.85735222278163,68.0305809831043 178.36736687843222,68.10706820657651 178.8773815339664,68.20267720386619 179.36980947724078,68.33652974029246 179.84465070837177,68.39389509167813 180.19638495362597,68.0305809831043 180.30190522724297,67.49516978039173 180.35466536402237,66.99800123501336 180.40742550074356,66.500831726662 180.46018563752295,66.00366125522123 180.56570591102354,66.32873436472437 180.51294577430235,66.7876604066987 180.49535906210076,67.28482935948705 180.49535906210076,67.80111917581235 180.72398632141994,68.04970279106055 181.14606741577154,68.10706820657651 181.69125549588352,68.16443360922858 182.1485100146965,68.20267720386619 182.6585246702889,68.24092079282855 183.16853932588128,68.31740795362566 183.69614069373347,68.39389509167813 184.17098192480626,68.4703822069132 184.68099658034043,68.54686929934542 185.13825109915342,68.64247813279508 185.630679042486,68.77633043992682 185.9648265755386,69.02491311068297 186.0,69.4647126308264 185.9648265755386,69.98099806249957 185.6482657547458,70.26782285363879 185.19101123593282,70.3251877734292 184.73375671711983,70.38255268035573 184.24132877378725,70.43991757449112 183.78407425497426,70.5164040800446 183.36199316079728,70.59289056280977 182.8343917928869,70.63113379565766 182.3595505618141,70.68849863417563 181.88470933074132,70.68849863417563 181.48021494870773,70.65025540991337 180.95261358085554,70.63113379565766 180.51294577430235,70.47816083008365 180.00293111870997,70.45903920299315 179.44015632633818,70.61201217991766 178.9301416707458,70.70762024422584 178.4201270151534,70.80322827288182 177.91011235956103,70.86059307299729 177.40009770396864,70.91795786030707 176.90766976063605,70.95620104469708 176.38006839278387,70.97532263478206 175.90522716165287,70.9944442233973 175.3600390815409,71.01356581061555 174.8500244260067,71.01356581061555 174.34000977041433,70.9944442233973 173.75964826572454,70.9944442233973 173.30239374691155,70.9944442233973 172.77479237911757,71.01356581061555 172.31753786030458,70.9944442233973 171.8778700538096,70.7267418528063 171.5613092330168,70.34430941048777 171.20957498782082,70.2104579210718 170.73473375674803,70.57376894426125 170.40058622375363,71.05180898078834 170.03126526623964,71.47248347652203 169.64435759646585,71.79754966014298 169.18710307771107,72.0461294051347 168.74743527109968,72.27558741765097 168.2198339033639,72.40943783021066 167.7449926721747,72.58153111528372 167.27015144116012,72.77274574113835 166.81289692240534,72.9448387825978 166.32046897901455,73.11693170868966 165.86321446025977,73.28902451947215 165.54665363946697,73.51848142096424 165.08939912065398,73.65233118546894 164.5793844650616,73.82442363727023 164.1221299463068,73.97739460870798 163.66487542749383,74.13036548899254 163.15486077184323,74.30245762033155 162.66243282862706,74.43630697610206 162.22276502201566,74.58927758286882 161.76551050320268,74.76136940658034 161.2906692721299,74.91433981969021 160.7982413288555,75.02906756971788 160.30581338546472,75.04818885639543 159.77821201761253,75.20115909863671 159.26819736196194,75.31588672044745 158.79335613100557,75.4114930328069 158.33610161213437,75.50709930958692 157.89643380558118,75.60270555071475 157.4215925745084,75.67919051798526 156.9467513434356,75.77479669505556 156.43673668790143,75.88952406054887 155.89154860778945,76.00425137471757 155.38153395219706,76.11897863767808 154.88910600880627,76.21458465095202 154.36150464095408,76.31019062863197 153.8866634098813,76.42491775484814 153.3590620420291,76.52052365415148 152.84904738637852,76.61612951791903 152.32144601864275,76.71173534601985 151.81143136299215,76.8264622928109 151.35417684417916,76.90294689549773 150.86174890084658,76.99855261686025 150.3517342452542,77.09415830252692 149.8768930142396,77.20888507840573 149.3844650707906,77.30449068579765 148.83927699073683,77.40009625756647 148.29408891062485,77.51482289674459 147.76648754283087,77.59130729433673 147.29164631169988,77.70603384805145 146.7992183683673,77.6869127593236 146.2716170005151,77.6869127593236 145.76160234498093,77.6869127593236 145.16365412803134,77.61042839015136 144.72398632141994,77.57218619705236 144.19638495362597,77.57218619705236 143.65119687351398,77.59130729433673 143.1587689301814,77.57218619705236 142.6663409868488,77.6869127593236 142.17391304345801,77.74427602118521 141.69907181250164,77.72515493533865 141.22423058137065,77.74427602118521 140.71421592572005,77.78251818868739 140.23937469470548,77.78251818868739 139.71177332679508,77.74427602118521 139.1138251099037,77.64867057760421 138.63898387888912,77.66779166914057 138.07620908651734,77.61042839015136 137.63654127996415,77.57218619705236 137.07376648759237,77.51482289674459 136.61651196877938,77.49570179377042 136.1416707377066,77.41921736762743 135.5788959453348,77.36185403315176 135.13922813878162,77.41921736762743 134.55886663409183,77.15152169685462 134.04885197849944,77.05591603252105 133.57401074748486,76.96031033254985 133.11675622867187,76.84558344563993 132.6770884221187,76.71173534601985 132.1494870542083,76.59700834802061 131.7098192477133,76.50140247716627 131.14704445528332,76.38667538513255 130.70737664878834,76.27194824178878 130.17977528093616,76.11897863767808 129.66976062540198,75.98513015927165 129.23009281879058,75.8321603842196 128.7552515877178,75.75567546254024 128.2452369321254,75.64094803720945 127.71763556427322,75.50709930958692 127.22520762094064,75.39237177318137 126.75036638986785,75.27764418553852 126.22276502195746,75.14379526847915 125.73033707868308,74.99082499202632 125.23790913535049,74.87609722497291 124.7630679042777,74.81873332218674 124.21787982416572,74.62752022033965 123.74303859309293,74.51279229084321 123.25061064981855,74.37894297504681 122.79335613100557,74.24509358935757 122.28334147535497,74.1112441339792 121.80850024428219,74.01563733733201 121.3160723009496,73.88178776224959 120.82364435761701,73.70969534890901 120.33121641434263,73.53760282014264 119.82120175869204,73.36551017608144 119.34636052761925,73.26990310171095 118.88910600886447,73.07868884621712 118.43185149005149,72.98308166503557 117.95701025892049,72.77274574113835 117.48216902790591,72.54328817297937 117.02491450909292,72.37119486232405 116.56765999027994,72.21822293376317 116.09281875920715,72.02700789483788 115.65315095259575,71.83579271349299 115.16072300932137,71.6254558494984 114.65070835367078,71.41511881313636 114.2286272594938,71.16653845710971 114.0879335613572,71.10917372534459 114.54518808017019,71.41511881313636 115.02002931124298,71.60633430785674 115.47728383005597,71.81667118755286 115.95212506107055,71.98876486993686 116.46213971666293,72.19910143628658 116.97215437231353,72.35207337622705 117.48216902790591,72.56240964484459 117.95701025892049,72.71538136833988 118.37909135327209,72.88747444824548 118.80117244750727,73.11693170868966 119.22325354180066,73.26990310171095 119.73326819739304,73.38463158666855 120.17293600394623,73.51848142096424 120.61260381049942,73.67145257473749 121.1577918906114,73.82442363727023 121.66780654614558,73.97739460870798 122.16023448953638,74.1112441339792 122.65266243292717,74.24509358935757 123.10991695168195,74.37894297504681 123.60234489507275,74.51279229084321 124.12994626286672,74.62752022033965 124.63996091845911,74.78049071319401 125.1323888617917,74.89521852303005 125.60723009292269,75.02906756971788 126.09965803619707,75.16291654658562 126.60967269173125,75.27764418553852 127.11968734738184,75.3732505121443 127.57694186613662,75.46885680314153 128.086956521729,75.62182679463876 128.6145578896976,75.71743299311493 128.8783585735946,75.4306142909918 128.8431851490168,74.95258240873227 128.7904250122374,74.49367096427886 128.825598436757,74.01563733733201 128.8431851490168,73.55672421795316 128.8607718613348,73.09781027816643 128.8607718613348,72.60065258425311 128.8783585735946,71.95052183940425 128.931118710374,71.45336192348623 128.94870542257559,70.97532263478206 128.98387884709518,70.40167431316513 128.6849047386204,69.94275473280868 128.1748900830862,69.8089030340343 127.71763556427322,69.69417295092717 127.50659501715563,69.63680789011414 127.40107474359684,69.59856450909865 127.41866145579843,69.61768620034854 127.43624816805823,69.61768620034854 127.45383488037623,69.61768620034854 127.43624816805823,69.50295603177801 127.45383488037623,69.13964349293383 127.59452857845463,68.79545219236752 128.1573033708264,68.68072165625927 128.6673180264188,68.56599106887006 129.212506106589,68.45126043024356 129.74010747432476,68.33652974029246 130.26770884229336,68.20267720386619 130.79531021008734,68.12619000884297 131.34049829019932,68.06882459766348 131.8505129457917,67.99233736275346 132.3957010259037,67.93497192162613 132.85295554471668,67.85848464685841 133.36297020030906,67.78199734931695 133.89057156816125,67.72463186115783 134.43575964827323,67.66726636017847 134.94577430392383,67.68638819527405 135.473375671776,67.66726636017847 135.9482169028488,67.70551002897264 136.44064484618139,67.72463186115783 136.93307278951397,67.74375369196059 137.42550073284656,67.76287552132271 137.90034196386114,67.74375369196059 138.34000977041433,67.74375369196059 138.74450415244792,67.68638819527405 139.1489985344815,67.60990084640798 139.71177332679508,67.68638819527405 140.23937469470548,67.72463186115783 140.78456277481746,67.80111917581235 141.32975085492944,67.82024100091076 141.82217879826203,67.80111917581235 142.29702002939302,67.82024100091076 142.824621397187,67.83936282464128 143.31704934046138,67.83936282464128 143.87982413289137,67.89672828713083 144.35466536402237,67.89672828713083 144.86468001955654,67.9158501050988 145.16365412803134,67.93497192162613 145.19882755255094,67.93497192162613 145.69125549588352,67.9158501050988 146.2716170005151,67.93497192162613 146.8343917928869,67.95409373677103 147.36199316079728,67.99233736275346 147.85442110407166,67.97321555051894 148.34684904740425,67.97321555051894 148.89203712751623,67.99233736275346 149.41963849542663,68.01145917360554 149.9296531509608,68.01145917360554 150.4220810943516,68.04970279106055 150.89692232536618,68.0305809831043 151.40693698095856,68.04970279106055 151.89936492429115,68.06882459766348 152.39179286762374,68.06882459766348 152.91939423553413,68.12619000884297 153.4469956033863,68.08794640281121 153.9570102589205,68.10706820657651 154.48461162677268,68.10706820657651 154.97703957016347,68.12619000884297 155.41670737665845,68.12619000884297 155.85637518315343,68.1453118097561 156.08500244264724,68.50862575595966 156.20810942840762,68.77633043992682 155.83878847095184,69.06315657714731 155.41670737665845,69.27349554075045 155.04738641908625,69.50295603177801 154.73082559852628,69.78978135703073 154.46702491451288,70.22957956667233 154.1328773815767,70.57376894426125 153.7459697118029,70.87971467016905 153.6228627259843,71.31951101237792 153.7635564240627,71.75930660108861 154.0273571080179,72.19910143628658 154.48461162677268,72.3903163470095 154.94186614558566,72.73450282732665 155.53981436247705,72.73450282732665 156.01465559354983,72.77274574113835 156.47191011236282,72.69625990785426 156.92916463123402,72.50504522502888 157.2984855886898,72.37119486232405 157.6853932584636,72.02700789483788 157.9843673669384,71.64457738971396 158.19540791399777,71.18566003147862 158.47679531021276,70.78410667002026 158.91646311676595,70.45903920299315 159.39130434789695,70.63113379565766 159.72545188083313,70.9944442233973 160.04201270156773,71.3959972558223 160.4816805080627,70.68849863417563 160.5520273571601,70.22957956667233 160.53444064490031,69.75153799886175 160.4816805080627,69.23525210564549 160.4113336590235,68.69984341581585 160.4113336590235,68.20267720386619 160.4289203712833,67.70551002897264 160.4113336590235,67.18922002027102 160.4113336590235,66.63468515055138 160.4289203712833,66.11839298796258 160.39374694682192,65.64034376322525 160.32340009772452,65.21965970897872 160.5520273571601,64.72248675582523 161.0268685881747,64.56951026883326 161.50170981924748,64.4738999180845 161.99413776263827,64.55038820151822 162.48656570591265,64.53126613279164 162.94382022472564,64.53126613279164 163.55935515387682,64.66512058387161 164.1397166585084,64.74160881032003 164.632144601841,64.60775439914141 164.6673180264188,63.99584763038729 165.0718124084524,63.80462646599335 165.47630679048598,63.861992830294184 165.56424035178497,63.4795501595363" stroke="#4DD2FF" stroke-linecap="round" stroke-linejoin="round" stroke-width="0.5"><title>2026-03-15 10.7km</title><desc>1207636486</desc></polyline><polyline fill="none" points="68.45707376068458,121.24519015321857 68.39177750912495,121.41087068483466 68.3700120919384,121.88424315582961 68.32648125756532,122.57063198485412 68.43530834338162,123.13867678979295 68.2611850061221,124.01441053923918 68.15235792018939,124.72446315700654 68.10882708593272,125.33984080766095 68.15235792018939,126.02622216450982 68.10882708593272,126.73627028224291 68.17412333737593,127.49365319064236 68.13059250300284,127.96701659075916 68.13059250300284,128.51138362823986 68.23941958893556,129.2450942453288 68.84885126969311,129.45810668749618 69.41475211607758,129.57644687136053 69.98065296246205,129.57644687136053 70.54655380896293,129.81312710681232 70.56831922614947,130.2628190680116 71.4824667472858,129.86046313273255 72.28778718260583,129.6237829325837 72.87545344617683,129.93146715837065 73.63724304712377,129.88413114304421 74.15961305925157,129.76579107387806 74.7037484885659,129.55277883811505 75.00846432894468,129.4817747277848 74.89963724312838,132.34559458104195 74.50785973400343,132.01424484525342 74.83434099156875,132.51126931922045 74.87787182582542,132.2509232632583 75.00846432894468,132.67694397098967 75.03022974613123,132.8899541105202 74.9649334945716,133.5763191433798 74.76904474000912,134.1916796354344 74.52962515118998,134.83070657632197 74.61668681993615,135.446064637159 74.29020556237083,136.08508905326016 74.09431680780835,136.7004446828796 73.92019347043242,137.29213166350382 73.76783555012662,137.78914787515532 73.68077388161328,138.30983069096692 73.5937122128671,139.0908533136826 73.39782345830463,139.77720494152163 73.44135429267772,140.43988786419504 73.4848851270508,141.26823957252782 73.63724304712377,141.90725227099028 73.7025392986834,142.68826604491915 73.8548972188728,143.39827689976664 73.9637243046891,144.03728531161323 74.05078597343527,144.72362624766538 74.11608222487848,145.38629884723923 74.2249093108112,146.09630366938654 74.26844014506787,146.73530665197177 74.3337363966275,147.4453084578854 74.29020556237083,147.9896421006706 74.26844014506787,148.60497466032393 74.15961305925157,149.24397259490797 74.05078597343527,149.85930272410042 74.05078597343527,150.54563107702415 74.09431680780835,151.13729225975112 74.0725513905054,151.77628509898204 74.0725513905054,152.46260930906283 74.09431680780835,153.0779332019447 74.0725513905054,153.62225719031994 74.02902055624872,154.28491122138803 74.02902055624872,154.92389772765455 74.0725513905054,155.49188465389307 74.02902055624872,156.10720267772558 73.9637243046891,156.7225195094943 73.98548972199205,157.33783514919924 74.00725513906218,158.00048142805463 73.98548972199205,158.73412390984595 74.02902055624872,159.34943565251888 74.00725513906218,159.9647462030989 73.98548972199205,160.53272411494981 73.94195888761897,161.14803237331216 73.9637243046891,161.78700507228496 73.98548972199205,162.40231090094312 73.94195888761897,163.0176155376248 73.9637243046891,163.63291898244643 74.0725513905054,164.27188668283634 74.24667472799774,164.86352229645126 74.50785973400343,165.4314914487768 74.66021765419282,165.99945958558237 75.05199516331777,166.49643087227014 75.63966142688878,166.52009615229326 76.22732769045979,166.5674267069262 76.8149939540308,166.63842252563336 77.40266021771822,166.75674885505578 77.99032648128923,166.89874039203278 78.5562273276737,167.08806234266376 79.16565900843125,167.30104940230376 79.60096735181287,167.72702309308806 79.99274486093782,168.03467040343094 80.44981862150598,168.10566589431255 81.16807738819625,168.03467040343094 81.84280532039702,168.10566589431255 82.60459492146038,168.17666136927437 83.1487303506583,168.08200073245098 83.82345828297548,168.12933105434058 84.4111245466629,168.05833556881407 85.02055622742046,168.01100523630157 85.71704957680777,168.03467040343094 86.0,168.12933105434058 85.45586457080208,168.03467040343094 84.91172914148774,168.01100523630157 84.30229746073019,167.91634455011808 83.80169286578894,168.17666136927437 83.80169286578894,168.79195482112118 83.8887545344187,169.43091214436572 84.19347037479747,169.64389763315558 83.86698911734857,169.3599169497029 83.54050785978325,169.21792651273427 83.10519951640163,169.2652566654724 82.64812575571705,169.170596352953 82.06045949214604,169.1942614337604 81.60338573157787,169.2415915899619 81.27690447401255,169.50190732316696 80.75453446188476,169.8805480088049 80.0362756953109,169.8805480088049 79.51390568329953,169.64389763315558 78.86094316805247,169.78588787972694 78.20798065292183,169.95154308713973 77.59854897216428,170.11719820820144 76.98911729140673,170.16452822694555 76.35792019346263,170.25918824321707 75.704957678332,170.35384823131608 75.0737605803879,170.40117821478634 74.52962515118998,170.42484320382937 73.89842805324588,170.42484320382937 73.28899637248833,170.44850819115527 72.67956469173077,170.44850819115527 72.09189842804335,170.44850819115527 71.50423216447234,170.42484320382937 70.96009673527442,170.44850819115527 70.28536880295724,170.47217317673494 69.65417170501314,170.42484320382937 69.13180169288535,170.21185823855922 69.02297460706905,169.85688297922025 68.45707376068458,169.5729024860775 67.73881499399431,169.59656753690797 67.32527206768282,170.14086321846116 66.95525997586083,170.68515796744032 66.5199516324792,171.13479205674957 66.0411124547245,171.41877115366515 65.47521160822362,171.6790851028636 64.88754534453619,171.8920690844243 64.32164449826814,172.10505292320158 63.75574365188368,172.34170146551332 63.18984280526638,172.6256794836372 62.5586457074387,172.83866283061798 61.99274486093782,173.05164603478624 61.49214026599657,173.28829387199949 60.948004836798646,173.5722710439586 60.36033857311122,173.76158901760937 59.859733978286386,173.85624796210323 59.293833131785505,174.04556576657342 58.61910519946832,174.28221286344342 58.03143893601373,174.4715304139827 57.46553808951285,174.6371831781289 56.856106408755295,174.80283585598227 56.26844014506787,175.01581774346414 55.5937122128671,175.22879948813352 55.02781136636622,175.32345799548784 54.46191051998176,175.34712261790992 53.7436517534079,175.60743334837025 53.13422007265035,175.77308552031172 52.52478839177638,175.89140844740905 51.91535671101883,176.00973133047228 51.28415961319115,176.15171873185318 50.696493349503726,176.24637696432183 50.130592503002845,176.34103516847244 49.45586457080208,176.50668695796048 48.75937122129835,176.62500961180194 48.17170495772734,176.76699673832627 47.54050785978325,176.86165478735347 46.88754534465261,176.97997730912175 46.32164449826814,177.05097080094856 45.69044740032405,177.21662222026498 45.015719468006864,177.38227355323033 44.4498186216224,177.47693141899072 43.84038694074843,177.59525371156633 43.23095525987446,177.68991151388036 42.621523579233326,177.80823372708983 42.0338573155459,177.95022032482666 41.42442563478835,178.04487802137737 40.771463119774126,178.18686451338 40.16203143901657,178.32885094190715 39.53083434095606,178.3998441323638 38.94316807738505,178.54183046572143 38.31197097955737,178.6128236085351 37.63724304724019,178.6128236085351 36.98428053210955,178.63648798599024 36.374848851352,178.56549484838615 35.765417170594446,178.51816608119407 35.22128174128011,178.49450169497868 34.5247883918928,178.51816608119407 33.87182587676216,178.54183046572143 33.284159613074735,178.54183046572143 32.65296251513064,178.63648798599024 32.08706166874617,178.6838167355454 31.49939540505875,178.73114547811565 30.84643288992811,178.70748110773275 30.237001209286973,178.70748110773275 29.58403869403992,178.70748110773275 28.931076179025695,178.63648798599024 28.321644498268142,178.58915922936285 27.712212817394175,178.54183046572143 27.059250302263536,178.49450169497868 26.580411124625243,178.51816608119407 25.883917775121517,178.3998441323638 25.14389359136112,178.3051865415473 24.55622732779011,178.2578577355598 24.07738814991899,178.3051865415473 23.55501813790761,178.28152213941212 22.90205562277697,177.99754917665268 22.205562273273245,177.85556260010344 21.661426844075322,177.78456928799278 21.073760580387898,177.6425826162449 20.464328899630345,177.52426034130622 19.789600967313163,177.28761565926834 19.288996372371912,177.19295773710473 18.63603385735769,177.00364180814358 18.09189842804335,176.86165478735347 17.56952841603197,176.76699673832627 16.981862152344547,176.62500961180194 16.43772672303021,176.50668695796048 15.958887545391917,176.36469971510815 15.762998790829442,175.82041469641263 15.741233373642899,175.20513485686388 15.654171705013141,174.54252446634928 15.675937122199684,173.90357742382912 15.654171705013141,173.24096431865473 15.719467956572771,172.60201465847786 15.784764208015986,172.01039345696336 15.850060459575616,171.34777640321408 15.915356711135246,170.82714774861233 15.915356711135246,170.1881932336546 15.937122128088959,169.50190732316696 15.501813784823753,168.98127564348397 14.892382103949785,168.8156199301011 14.348246674751863,168.72095948367496 14.043530834373087,168.5553036344936 14.065296251676045,167.98734006736777 14.261185006122105,167.6560275175725 14.870616686879657,167.5377015232516 15.48004836763721,167.39571027184138 16.133010882651433,167.2537189569266 16.764207980711944,167.08806234266376 17.43893591291271,166.92240564204985 18.026602176600136,166.82774463144597 18.67956469161436,166.75674885505578 19.267230955301784,166.6857530627458 19.898428053362295,166.59109198162332 20.52962515107356,166.52009615229326 21.139056831947528,166.4254350217525 21.748488512821496,166.30710856901715 22.40145102783572,166.28344327319064 23.032648125779815,166.28344327319064 23.66384522372391,166.28344327319064 24.295042321784422,166.30710856901715 24.948004836798646,166.33077386312652 25.57920193474274,166.33077386312652 26.210399032686837,166.35443915546057 26.798065296257846,166.33077386312652 27.4074969770154,166.33077386312652 27.973397823399864,166.30710856901715 28.517533252714202,166.2597779755888 29.17049576784484,166.30710856901715 29.910519951605238,166.37810444599018 30.51995163236279,166.37810444599018 31.151148730306886,166.35443915546057 31.847642079810612,166.40176973474445 32.50060459494125,166.40176973474445 33.11003627581522,166.4491003070725 33.784764208015986,166.49643087227014 34.39419588877354,166.49643087227014 34.98186215246096,166.52009615229326 35.5912938331021,166.52009615229326 36.24425634823274,166.54376143045374 36.85368802899029,166.54376143045374 37.441354292677715,166.5674267069262 38.137847642065026,166.6147572545451 38.74727932282258,166.63842252563336 39.378476420766674,166.63842252563336 40.03143893589731,166.6620877950627 40.68440145102795,166.6857530627458 41.25030229752883,166.6857530627458 41.8162031439133,166.6857530627458 42.42563482467085,166.6620877950627 43.035066505428404,166.6857530627458 43.709794437745586,166.6857530627458 44.34099153568968,166.75674885505578 44.90689238219056,166.75674885505578 45.516324062948115,166.75674885505578 46.25634824670851,166.82774463144597 46.931076179025695,166.82774463144597 47.49697702541016,166.82774463144597 48.08464328898117,166.85140988675994 48.69407496973872,166.87507514024037 49.281741233426146,167.04073186562164 49.52116082224529,167.2537189569266 49.542926239431836,167.77435346794664 49.107617896050215,168.03467040343094 48.65054413548205,168.29498712561326 48.062877871794626,168.43697797509958 47.80169286590535,168.98127564348397 47.49697702541016,169.50190732316696 47.01813784765545,169.8805480088049 46.539298669900745,170.42484320382937 46.495767835644074,171.06379724285216 46.71342200727668,171.65542020715657 47.105199516401626,172.01039345696336 47.627569528413005,172.2943717711605 48.062877871794626,172.55468500292045 48.65054413548205,172.5073553402326 49.17291414749343,172.5073553402326 49.65175332536455,172.5073553402326 50.130592503002845,172.3180366192537 50.7835550182499,172.12871778541012 51.26239419588819,171.75007977924543 51.43651753326412,171.25311671127565 51.8935912939487,170.8744776615349 52.13301088276785,170.33018323694705 52.56831922614947,169.85688297922025 53.13422007265035,169.620232585934 53.61305925028864,169.92787806282286 54.00483675941359,170.42484320382937 54.57073760591447,170.5668331013585 54.940749697736464,169.95154308713973 54.96251511480659,169.3599169497029 54.98428053210955,168.79195482112118 54.89721886336338,168.2003265240637 54.83192261192016,167.63236232229974 54.83192261192016,167.06439710501581 54.81015719473362,166.52009615229326 54.81015719473362,165.9284636240336 54.81015719473362,165.28949925588677 54.83192261192016,164.67419901996618 54.81015719473362,164.03523212883738 54.81015719473362,163.44359497254482 54.81015719473362,162.89928781543858 55.28899637248833,162.4733076506527 55.83313180168625,162.37864531416562 56.4425634824438,162.37864531416562 57.117291414760984,162.40231090094312 57.683192261261865,162.4733076506527 58.205562273273245,162.26031735393917 58.90205562277697,162.5443043844425 59.66384522372391,162.5916355314548 59.96856106410269,161.85800195951015" stroke="#4DD2FF" stroke-linecap="round" stroke-linejoin="round" stroke-width="0.5"><title>2026-03-04 10.3km</title><desc>1203670469</desc></polyline><polyline fill="none" points="178.2174181593582,141.8887683507346 177.83940704143606,141.8887683507346 177.172328597866,141.8162368273479 176.61642989492975,141.7195281041786 176.06053119210992,141.69535091886064 175.4379246449098,141.6469965428987 174.5707226684317,141.62281935216743 173.94811612099875,141.69535091886064 173.32550957379863,141.74370528766303 173.08091414452065,142.2272485792637 173.01420630014036,142.66243692560238 173.0586781965103,143.33939541556174 173.03644224838354,144.01635249334504 173.03644224838354,144.66913119520177 173.03644224838354,145.3219085840101 173.03644224838354,145.97468465977 173.03644224838354,146.57910578144947 173.03644224838354,147.1593489992083 173.12538604077417,147.78794464768725 173.36998147005215,148.31983232239145 173.68128474371042,148.078065305599 173.70352069172077,147.54617723464617 173.59234095120337,146.99011150118895 174.0370599135058,146.91758111788658 174.65966646082234,147.0384650810156 175.082149474998,147.1109954372805 175.81593576283194,147.25605610126513 176.2384187770076,147.47364697561716 176.86102532432415,147.61870747749344 177.66151945653837,147.86047483645962 178.1729462632211,148.02971188063384 178.7955528104212,148.22312553727534 179.35145151324105,148.44071576325223 180.0185299568111,148.60995250486303 180.57442865974735,148.8758957775426 181.19703520694748,149.0934855658852 181.77516985801049,149.3352518262691 182.3977764052106,149.528664704907 183.02038295241073,149.72207746826462 183.6207535516005,149.91549011637107 184.24336009891704,149.794607224816 184.8437306979904,149.794607224816 185.177269919659,150.18143231931026 184.75478690559976,150.61660999953165 184.28783199505415,151.00343411433278 183.6874613959808,151.22102247632574 183.10932674491778,151.41443423111923 182.508956145728,151.60784587071976 181.97529339103494,151.8979631139664 181.37492279184517,152.0913744654099 180.79678814078216,152.30896209803177 180.17418159358203,152.52654958481435 179.75169857940637,152.71996056166245 179.39592340949457,153.01007681086776 178.77331686229445,153.17931116977707 178.26189005561173,153.37272175768157 177.6392835082952,153.5661322303058 176.92773316858802,153.8078951590287 176.2384187770076,153.97712910198607 175.6602841259446,154.1463629567006 175.05991352687124,154.2914204762492 174.54848672018852,154.58153532078722 173.94811612099875,154.79912128398428 173.32550957379863,154.8958261097432 172.79184681910556,155.0892356748227 172.0580605311552,155.16176423194702 171.39098208781797,155.30682129770867 170.74613959237467,155.45187829856877 170.2124768375652,155.57275908318115 169.6343421866186,155.64528753230115 169.01173563930206,155.79034438199596 168.32242124772165,155.91122504044324 167.6553428041516,156.0321056539251 167.01050030894112,156.17716233074316 166.34342186537106,156.29804284521379 165.72081531805452,156.4430994030845 165.07597282272764,156.56397981854388 164.54231006803457,156.75738838955294 163.85299567645416,156.87826868798584 163.20815318101086,156.97497289424064 162.51883878943045,157.09585311161936 161.82952439773362,157.24090931296814 161.18468190252315,157.41014146598172 160.56207535520662,157.53102152131032 159.89499691163655,157.60354953288333 159.25015441630967,157.74860550739686 158.60531192098279,157.79695748447557 157.91599752928596,157.86948543661856 157.3156269302126,158.06289322982775 156.71525633102283,158.18377304199385 156.07041383581236,158.25630090772756 155.53675108100288,158.35300470344373 154.89190858555958,158.32882875719224 154.22483014210593,158.28047685933416 153.53551575052552,158.1595970831113 152.9573810994625,158.20794899898465 152.2680667078821,158.1595970831113 151.6232242124388,158.1354211224825 151.0450895614922,158.1354211224825 150.40024706616532,158.25630090772756 149.79987646697555,158.23212495425832 149.1995058679022,158.30465280916542 148.5546633724589,158.37718064786168 147.84311303275172,158.32882875719224 147.17603458929807,158.28047685933416 146.5756639901083,158.30465280916542 145.9308214947814,158.28047685933416 145.33045089570805,158.28047685933416 144.663372452138,158.1595970831113 143.97405806055758,158.06289322982775 143.35145151324105,158.06289322982775 142.66213712166063,157.94201337260893 141.97282273008022,157.82113347033737 141.39468807913363,157.84530945442384 140.79431747994386,157.6760775282164 139.99382334772963,157.50684551388258 139.30450895614922,157.38596544959 138.70413835707586,157.24090931296814 138.0370599135058,157.09585311161936 137.39221741817892,156.90244474221254 136.72513897472527,156.78156445288914 136.1247683755355,156.63650804621284 135.4799258800922,156.46727548982017 134.9017912291456,156.32221894268878 134.23471278569195,156.17716233074316 133.6343421866186,156.00792953485507 133.0562075355556,155.86287278245436 132.43360098823905,155.6936398227117 131.81099444103893,155.50023061785032 131.16615194559563,155.37934980622958 130.56578134652227,155.18594041408505 130.00988264370244,155.06505948549602 129.40951204451267,154.92000231167185 128.7424336009426,154.7507688603364 128.00864731310867,154.53318286468857 127.36380481778178,154.41230169296614 126.69672637432814,154.21889172450756 126.05188387900125,154.09801043575862 125.495985176065,153.95295282980078 124.82890673261136,153.78371887427056 124.16182828915771,153.5661322303058 123.51698579371441,153.39689807311515 122.87214329827111,153.17931116977707 122.24953675107099,152.93754777283175 121.62693020387087,152.76831328787375 121.0265596046811,152.6232550876157 120.49289684998803,152.45402043874492 119.87029030278791,152.2122565015743 119.2921556517249,152.04302163841203 118.71402100066189,151.80125739506911 118.09141445334535,151.5594929716317 117.51327980239876,151.317728368158 116.93514515133575,151.10014007097925 116.35701050027274,150.81002211460145 115.71216800494585,150.56825695279986 115.13403335388284,150.3506681531726 114.57813465106301,150.01219639720512 114.15565163688734,149.55284130657674 114.04447189625353,149.0209556526679 114.62260654720012,148.75501249881927 114.80049413221423,148.634129174985 114.15565163688734,148.94842572323978 114.15565163688734,149.60119450467755 114.55589870293625,150.01219639720512 115.02285361336544,150.30231506680138 115.57875231618527,150.64078652023454 116.22359481162857,150.8583751253027 116.77949351456482,151.07596358453156 117.33539221738465,151.36608130321838 117.93576281657442,151.5594929716317 118.5361334157642,151.7770809608628 119.11426806671079,151.9946688041382 119.73687461402733,152.18808009798522 120.33724521310069,152.429844053142 120.98208770842757,152.59907871464384 121.64916615199763,152.71996056166245 122.22730080306064,152.9617241206579 122.76096355775371,153.22766382756527 123.45027794933412,153.39689807311515 124.0506485485239,153.5903085312748 124.71772699197754,153.73536629931186 125.2069178505335,153.95295282980078 125.94070413836744,154.07383417256642 126.5410747374408,154.24306797687314 127.1859172328841,154.38812545320252 127.78628783207387,154.55735909359646 128.38665843114723,154.65406399135827 128.987029030337,154.84747370050172 129.60963557753712,154.99253090668935 129.98764669557568,155.28264512456371 130.7214329832932,155.37934980622958 131.41074737499002,155.45187829856877 132.0555898702005,155.64528753230115 132.65596046950668,155.81452051724773 133.03397158742882,155.52440677475533 133.1006794318091,154.92000231167185 133.07844348356593,154.43647793089622 133.07844348356593,153.8078951590287 133.1006794318091,153.13095850480022 133.1006794318091,152.57490233983845 133.1006794318091,152.01884522219189 133.07844348356593,151.46278715188964 133.1673872761894,150.78584560650052 133.1673872761894,150.13307920773514 133.2118591723265,149.4561348888965 133.18962322419975,148.8033658156928 132.72266831388697,148.36818570416654 132.12229771458078,148.19894883650704 131.54416306351777,148.078065305599 131.34403953060973,147.49782373043126 131.34403953060973,147.06264186828048 132.10006176657043,146.86922751995735 132.76714021002408,146.74834349378943 133.43421865347773,146.6274594225397 134.10129709693138,146.45822164713172 134.7239036442479,146.31316062662518 135.34651019156445,146.1922763932962 135.96911673876457,146.09556897418224 136.63619518221822,146.02303839099477 137.32550957379863,145.97468465977 137.97035206924193,145.8779771759 138.6151945645688,145.78126966315904 139.2600370600121,145.73291589593282 139.88264360721223,145.612031446537 140.52748610265553,145.63620833997265 141.19456454599276,145.612031446537 141.88387893757317,145.63620833997265 142.55095738114323,145.63620833997265 143.19579987647012,145.66038523166208 143.86287831992377,145.68456212154706 144.57442865974735,145.73291589593282 145.21927115507424,145.70873900968581 145.8196417541476,145.66038523166208 146.33106856083032,145.612031446537 146.95367510803044,145.66038523166208 147.57628165534697,145.70873900968581 148.24336009891704,145.7570927804336 148.9549104386242,145.78126966315904 149.5997529339511,145.7570927804336 150.1778875850141,145.78126966315904 150.77825818408746,145.80544654399273 151.31192093889695,145.7570927804336 152.090179122868,145.85380030042143 152.75725756643806,145.90215404951596 153.4243360098917,145.90215404951596 154.1136504014721,145.92633092144388 154.758492896799,145.92633092144388 155.4478072883794,145.95050779156736 156.0926497838227,145.95050779156736 156.78196417540312,145.9988615262555 157.44904261897318,145.9988615262555 158.11612106242683,145.9988615262555 158.7831995059969,146.02303839099477 159.405806053197,146.02303839099477 160.0506485485239,146.02303839099477 160.65101914759725,146.0472152538132 161.29586164304055,146.09556897418224 161.94070413836744,146.09556897418224 162.5410747375572,146.11974583167466 163.23038912913762,146.14392268730444 163.89746757259127,146.14392268730444 164.54231006803457,146.14392268730444 165.18715256336145,146.14392268730444 165.809759110678,146.14392268730444 166.45460160588846,146.1680995412171 167.12168004945852,146.1680995412171 167.78875849291217,146.21645324351266 168.3446571958484,146.21645324351266 169.1006794318091,146.2406300919829 169.72328597900923,146.28898378353915 170.41260037058964,146.2648069387069 171.0796788140433,146.28898378353915 171.6578134651063,146.2406300919829 172.21371216804255,146.02303839099477 172.7696108709788,145.7570927804336 173.7479925880907,146.3615143073257 174.28165534278378,146.33733746784856 174.9709697343642,146.3615143073257 175.57134033355396,146.55492895821226 176.1272390364902,146.77252030259115 176.68313773942646,146.96593470853986 177.2390364422463,147.13517221913207 177.90611488581635,147.37693993840367 178.55095738114323,147.64288422151003 179.1513279802166,147.81212137910188 179.59604694251902,148.15059542952804 180.08523780107498,148.58577583287843 180.68560840026475,148.8758957775426 181.30821494746488,149.0934855658852 181.90858554665465,149.3352518262691 182.48672019771766,149.528664704907 183.08709079679102,149.72207746826462 183.75416924036108,149.91549011637107 184.33230389130767,149.81878380675334 184.91043854237068,149.60119450467755 185.2439777640393,149.1418388323218 185.5330450895708,148.60995250486303 186.0,148.65830584330251 185.62198888196144,148.46489244603436 185.3106856084196,148.99677901132964 184.82149474986363,149.38360505670425 184.28783199505415,149.6253711009631 183.73193329223432,149.72207746826462 183.08709079679102,149.60119450467755 182.4644842495909,149.43195828000898 181.84187770239078,149.2385453437455 181.26374305132776,149.0209556526679 180.64113650412764,148.8033658156928 180.04076590482146,148.58577583287843 179.52933909813873,148.2473022362392 179.12909203208983,147.86047483645962 178.59542927739676,147.66706096366397 177.90611488581635,147.49782373043126 177.26127239037305,147.25605610126513 176.63866584317293,147.0384650810156 176.06053119210992,146.86922751995735 175.52686843730044,146.57910578144947 174.88202594197355,146.38569114496931 174.23718344664667,146.3615143073257 173.6368128474569,146.33733746784856 172.99197035213,146.28898378353915 172.39159975294024,146.2648069387069 171.79122915386688,146.45822164713172 171.14638665842358,146.31316062662518 170.56825200747699,146.31316062662518 169.83446571952663,146.28898378353915 169.50092649785802,146.4823984776158 169.52316244598478,146.4823984776158 169.18962322419975,146.72416668312508 169.32303891296033,147.1835257773928 169.2118591723265,147.88465156249003 168.67819641751703,147.7637679144682 168.18900555896107,147.57035398404696 167.63310685614124,147.37693993840367 167.03273625695147,147.49782373043126 166.5435453983955,147.83629810868297 166.0321185917128,147.66706096366397 165.9654107473325,147.13517221913207 165.9209388511954,146.60328260288225 165.34280420013238,146.60328260288225 164.6312538604252,146.67581305644126 164.45336627552751,147.1835257773928 164.36442248313688,147.7637679144682 164.29771463864017,148.34400901419576 164.20877084624954,148.9242490764882 164.11982705374248,149.43195828000898 164.43113032740075,149.72207746826462 164.5200741197914,150.3506681531726 164.69796170468908,150.9067281288444 165.07597282272764,151.36608130321838 165.6763434219174,151.68037520584767 166.1432983323466,151.94631596270483" stroke="#4DD2FF" stroke-linecap="round" stroke-linejoin="round" stroke-width="0.5"><title>2026-02-20 10.2km</title><desc>1200274899</desc></polyline><polyline fill="none" points="14.0,225.80220176870353 14.221039705269504,225.78617931624467 14.795742938993499,225.77015686259256 15.134670487081166,225.86629156653362 15.650429799454287,225.9303813452716 16.136717151035555,225.9784486668068 16.57879656163277,226.02651597760268 17.07981989358086,226.02651597760268 17.521899304178078,226.0745832776447 17.949242734350264,226.12265056696197 18.37658616452245,226.1707178455108 18.86287351610372,226.13867299430422 19.260744985658675,226.10662813836825 19.70282439625589,226.15469542049686 20.08595988532761,226.18674026928784 20.49856733524939,226.31491961669235 20.925910765421577,226.37900926172733 21.382726156385615,226.39503167003568 21.780597625882365,226.47514369350392 22.163733115012292,226.63536765094614 22.546868604200426,226.89172573457472 22.885796152229887,227.14808351262764 23.15104379854165,227.46853030544298 23.180515759333503,227.9011327183689 22.959476054063998,228.28566746598517 22.591076545242686,228.41384556241974 22.134261154336855,228.41384556241974 21.721653704415075,228.34975652376306 21.30904625460971,228.3337342611194 20.89643880474614,228.36577878521348 20.557511256658472,228.3337342611194 20.262791649613064,228.26964519858302 19.92386410146719,228.28566746598517 19.658616455155425,228.34975652376306 19.58493655337952,228.3818010455143 18.73024969297694,228.49395683391776 18.008186655759346,228.59009032031463 17.742939009389374,228.92655718421156 17.654523127304856,229.26302352176572 17.654523127304856,229.7276666463731 18.022922636126168,229.98402104407432 18.406058125197887,230.16026451520156 18.774457634077407,230.30446361147915 19.12812116247369,230.4646847161348 19.511256651661824,230.72103823538055 19.850184199749492,230.99341351474868 20.159639787161723,231.1536341062165 20.58698321733391,231.0414797047124 20.89643880474614,230.84921488039254 21.220630372466985,230.8171707262809 21.824805566924624,230.99341351474868 22.37003683997318,231.1055679412966 22.841588211245835,231.1055679412966 23.31313958246028,231.1055679412966 23.814162914524786,231.0895458839368 24.241506344696973,231.05750176566653 24.68358575523598,231.00943557926803 25.140401146141812,230.96136938213021 25.58248055668082,230.88125902973115 25.995088006544393,230.76910448621493 26.4371674170834,230.64092779341445 26.805566925846506,230.43264050474681 26.908718788414262,230.04810959572205 26.923454768722877,229.6155115013098 26.849774866946973,229.2149569343601 26.820302906271536,228.766334933709 26.849774866946973,228.34975652376306 26.893982807989232,227.91715501321596 26.923454768722877,227.48455263252254 26.967662709765136,227.05194938165369 27.115022513316944,226.85968099083402 27.48342202208005,226.811613866259 27.881293491635006,226.82763624233485 28.382316823583096,226.89172573457472 28.839132214488927,226.9237704735424 29.281211625027936,226.9397928412218 29.738027015933767,226.95581520772248 30.150634465855546,226.98785993715865 30.622185837069992,227.00388230005046 31.03479328699177,226.97183757302992 31.447400736797135,226.97183757302992 31.860008186660707,227.00388230005046 32.31682357756654,227.01990466179268 32.71469504706329,227.03592702234164 33.097830536193214,227.08399409677077 33.49570200574817,227.13206116041692 33.908309455553535,227.22819525559316 34.37986082682619,227.32432930775394 34.88088415883249,227.35637398227118 35.29349160863785,227.4364856476168 35.63241915672552,227.51659728318918 36.0450266066473,227.64477583797998 36.53131395828677,227.70886508672265 36.85550552600762,227.83704352693167 37.238641015137546,227.91715501321596 37.56283258285839,228.23760066014074 37.57756856322521,228.68622376369603 37.533360622182954,229.0066682647157 37.842816209595185,229.15086813438393 38.35857552185189,229.1989347361232 38.800654932507314,229.24700132715225 39.198526401945855,229.31109009843203 39.59639787150081,229.37517885066336 40.06794924271526,229.35915666438814 40.5247646336793,229.37517885066336 40.922636103176046,229.35915666438814 41.37945149402367,229.40722321957583 41.821530904620886,229.42324540225673 42.21940237405943,229.50335629776237 42.64674580428982,229.56744499265915 43.04461727384478,229.64755583443912 43.44248874334153,229.69562232520548 43.884568153938744,229.75971096279682 44.326647564419545,229.82379958132515 44.76872697507497,229.88788818073226 45.12239050347125,229.95197676104726 45.579205894318875,230.01606532224105 45.991813344240654,230.08015386441548 46.389684813737404,230.16026451520156 46.8170282439678,230.2083308913716 47.155955792055465,230.30446361147915 47.62750716332812,230.36855206766631 48.05485059355851,230.4166183972702 48.52640196477296,230.48070682003163 48.968481375370175,230.54479522370093 49.381088825233746,230.62490570146474 49.86737617687322,230.70501614933892 50.29471960704541,230.76910448621493 50.692591076600365,230.83319280394062 51.10519852640573,230.8972811026033 51.50306999590248,230.96136938213021 51.930413426074665,231.00943557926803 52.3135489152628,231.0895458839368 52.726156365068164,231.1536341062165 53.12402783462312,231.2177223093895 53.56610724516213,231.24976640376553 54.008186655759346,231.31385457831493 54.42079410562292,231.3939647695952 54.862873516161926,231.45805290114367 55.260744985658675,231.57020708540222 55.68808841588907,231.61827314647962 56.08595988532761,231.65031718123646 56.58698321739212,231.74644925682514 57.029062627931125,231.810537283367 57.47114203841193,231.89064728963422 57.86901350802509,231.93871327910165 58.296356938255485,232.01882323766768 58.70896438806085,232.0668891984824 59.06262791651534,232.13097712952003 59.50470732705435,232.16302108787932 59.946786737651564,232.2271089903079 60.40360212849919,232.29119687358616 60.81620957836276,232.33926277354476 61.21408104785951,232.40335062345548 61.611952517414466,232.46743845423043 62.02455996727804,232.53152626592782 62.39295947604114,232.57959211218986 62.74662300455384,232.6436798904324 63.159230454359204,232.70776764965558 63.54236594354734,232.65970183204627 63.866557511268184,232.78787732179626 64.3233729021158,232.75583345649648 64.66230045026168,232.67572377245233 65.13385182153434,232.8038992526126 65.51698731072247,233.15638142930402 65.72329103562515,233.49284115000046 66.1211625050637,233.52488490550604 66.489562013885,233.52488490550604 66.9169054441154,233.5569286561804 67.3442488743458,233.58897240212536 67.75685632415116,233.60499427327886 68.2136717151152,233.6370380120643 68.67048710596282,233.6690817460476 69.0830945558846,233.70112547527242 69.48096602532314,233.70112547527242 69.79042161273537,233.41273174043454 69.9525173965958,233.02820615915698 70.14408514118986,232.67572377245233 70.58616455178708,232.81992118227936 70.98403602128383,232.9160527351196 71.42611543182284,232.93207465643354 71.85345886205323,232.94809657653968 72.2660663119168,232.99616232971312 72.73761768318946,233.02820615915698 73.17969709367026,233.04422807213268 73.60704052395886,233.076271894417 74.00491199345561,233.12433761892316 74.44699140399462,233.2685347280203 74.91854277526727,233.3326223010081 75.3016782644554,233.3646660803497 75.81743757671211,233.41273174043454 76.18583708559163,233.5729505297495 76.49529267294565,233.74919106015295 76.65738845680607,234.06962801823101 76.9668440441601,234.22984631820873 77.40892345475731,234.19780266773887 77.9099467867054,234.22984631820873 78.36676217766944,234.22984631820873 78.82357756857527,234.19780266773887 79.25092099880567,234.16575901253964 79.64879246824421,233.89338775034412 80.01719197706552,233.68510361129302 80.44453540723771,233.58897240212536 80.82767089642584,233.5729505297495 81.21080638555577,233.70112547527242 81.60867785505252,234.00554066475888 82.0212853049743,234.06962801823101 82.43389275477966,234.08564985357225 82.84650020464323,234.05360618163832 83.28857961524045,234.02156250490225 83.77486696682172,233.9574751372129 84.24641833809437,233.9094095988694 84.7032337290002,233.8773659006256 85.16004911990603,233.76521291938843 85.61686451081187,233.65305987965257 86.0,233.50886302835715 85.66107245185412,233.50886302835715 85.24846500204876,233.50886302835715 84.82112157181837,233.5729505297495 84.36430618091254,233.60499427327886 83.95169873104896,233.65305987965257 83.553827261494,233.65305987965257 83.09701187058818,233.70112547527242 82.68440442078281,233.73316919972422 82.2423250102438,233.79725663427962 81.77077363897115,233.76521291938843 81.31395824806532,233.58897240212536 80.90135079820175,233.5729505297495 80.503479328705,233.52488490550604 80.06139991810778,233.58897240212536 79.79615227179602,233.81327848996443 79.45722472370835,234.08564985357225 78.9856733524357,234.14973718313558 78.54359394189669,234.19780266773887 78.10151453129947,234.22984631820873 77.65943512070226,234.2618899639201 77.21735571016325,234.2618899639201 76.70159639784833,234.21382449359226 76.31846090871841,234.309955423465 75.89111747854622,234.2618899639201 75.55218993040035,234.05360618163832 75.4490380678908,233.6690817460476 75.31641424476402,233.28455662303895 74.90380679490045,233.25251283176476 74.46172738436144,233.17240333267546 74.01964797376422,233.1083157119574 73.57756856322521,233.06024998385692 73.15022513299482,233.09229380375473 72.72288170276443,233.02820615915698 72.36921817436814,233.02820615915698 71.9713467048714,232.99616232971312 71.544003274641,232.94809657653968 71.10192386410199,232.9160527351196 70.68931641423842,232.81992118227936 70.30618092510849,232.65970183204627 70.01146131806308,232.8038992526126 69.8051575931022,233.20444713588222 69.59885386819951,233.52488490550604 69.1567744576023,233.60499427327886 68.69995906669647,233.58897240212536 68.24314367579063,233.5729505297495 67.8600081866607,233.58897240212536 67.46213671716396,233.50886302835715 67.03479328693356,233.3806879682379 66.62218583701178,233.30057851689344 66.44535407284275,233.04422807213268 66.25378632824868,232.78787732179626 65.98853868193692,232.62765794769803 65.54645927139791,232.53152626592782 65.10437986080069,232.40335062345548 64.66230045026168,232.29119687358616 64.20548505935585,232.27517490457103 63.74866966845002,232.27517490457103 63.30659025791101,232.25915293433354 62.864510847313795,232.25915293433354 62.46663937775884,232.13097712952003 62.054031927953474,232.0668891984824 61.611952517414466,232.05086721273256 61.24355300859315,232.2271089903079 60.786737617629115,232.13097712952003 60.31518624641467,232.03484522581857 59.90257879649289,232.00280124833807 59.50470732705435,231.95473527320428 59.06262791651534,231.89064728963422 58.6058125255513,231.810537283367 58.19320507568773,231.74644925682514 57.780597625882365,231.74644925682514 57.35325419565197,231.73042724719562 56.9406467457884,231.73042724719562 56.54277527623344,231.57020708540222 56.24805566924624,231.50611898727948 55.7912402782822,231.44203087006463 55.3491608678014,231.36192069666868 54.907081457204185,231.31385457831493 54.479738027032,231.2017002603825 54.02292263606796,231.16965615877416 53.58084322552895,231.07352382538375 53.12402783462312,230.99341351474868 52.65247646335047,230.91330317426764 52.180925092077814,230.78512656742532 51.75358166190563,230.70501614933892 51.45886205480201,230.73706032018526 51.075726565672085,230.72103823538055 50.60417519445764,230.64092779341445 50.11788784281816,230.56081732166058 49.661072451854125,230.4646847161348 49.24846500204876,230.4166183972702 48.80638559150975,230.35252995540213 48.305362259503454,230.25639725678775 47.863282848964445,230.2083308913716 47.43593941873405,230.12822025848436 46.94965206715278,230.04810959572205 46.47810069588013,229.96799890315742 46.050757265649736,229.9359546177584 45.62341383547755,229.87186603265582 45.18133442488033,229.77573311922606 44.73925501428312,229.69562232520548 44.29717560374411,229.599489332948 43.840360212896485,229.599489332948 43.30986492015654,229.47131194312533 42.86778550961753,229.40722321957583 42.4109701187117,229.31109009843203 41.93941874743905,229.1829125367658 41.512075317208655,229.2149569343601 41.11420384777011,229.1989347361232 40.68686041753972,229.1829125367658 40.259516987309325,229.15086813438393 39.81743757671211,229.15086813438393 39.43430208764039,229.2149569343601 38.96275071636774,229.11882372725813 38.53540728613734,229.0547348986729 38.27015963970916,228.79837939335266 38.07859189523151,228.3978233045491 37.842816209595185,228.07737789637758 37.47441670077387,227.9011327183689 37.07654523127712,227.8690881250368 36.61972984037129,227.7409097039199 36.16291444940725,227.67682046475238 35.779778960335534,227.64477583797998 35.3966434711474,227.54864192903915 34.969300040917005,227.48455263252254 34.45354072860209,227.38841865200084 33.98198935732944,227.30830696872727 33.5251739663654,227.22819525559316 33.171510438027326,227.13206116041692 32.699959066696465,227.03592702234164 32.2873516168911,227.01990466179268 31.91895210806979,226.97183757302992 31.403192795754876,226.9397928412218 30.931641424482223,226.97183757302992 30.50429799425183,227.00388230005046 30.150634465855546,227.03592702234164 29.664347114157863,226.95581520772248 29.222267703677062,226.9237704735424 28.794924273446668,226.89172573457472 28.35284486284945,226.8436586171738 27.94023741298588,226.77956911060028 27.52762996312231,226.74752435012488 27.14449447399238,226.73150196811184 26.717151043820195,226.7154795849201 26.33401555463206,226.7154795849201 25.87720016372623,226.7154795849201 25.464592713862658,226.65139004014782 25.02251330332365,226.6193452605803 24.639377814193722,226.69945720049145 24.256242325005587,226.82763624233485 23.814162914524786,226.74752435012488 23.327875562827103,226.63536765094614 22.93000409338856,226.41105407709256 22.76790830946993,226.2668523703469" stroke="#4DD2FF" stroke-linecap="round" stroke-linejoin="round" stroke-width="0.5"><title>2026-02-01 11.1km</title><desc>1194862731</desc></polyline></svg>