<?xml version="1.0" encoding="utf-8" ?>
<svg baseProfile="full" height="300mm" version="1.1" viewBox="0,0,200,300" width="200mm" xmlns="http://www.w3.org/2000/svg" xmlns:ev="http://www.w3.org/2001/xml-events" xmlns:xlink="http://www.w3.org/1999/xlink"><defs /><rect fill="#222222" height="300" width="200" x="0" y="0" /><text fill="#FFFFFF" style="font-size:12px; font-family:Arial; font-weight:bold;" x="10" y="20">Over 10km Runs</text><text fill="#FFFFFF" style="font-size:4px; font-family:Arial" x="10" y="280">Runner</text><text fill="#FFFFFF" style="font-size:9px; font-family:Arial" x="10" y="290">rick</text><text fill="#FFFFFF" style="font-size:4px; font-family:Arial" x="65" y="280">SPECIAL TRACKS</text><rect fill="yellow" height="2.6" width="2.6" x="65" y="283" /><text fill="#FFFFFF" style="font-size:3px; font-family:Arial" x="70" y="285.5">Over 20.0 km</text><rect fill="red" height="2.6" width="2.6" x="65" y="287" /><text fill="#FFFFFF" style="font-size:3px; font-family:Arial" x="70" y="289.5">Over 40.0 km</text><text fill="#FFFFFF" style="font-size:4px; font-family:Arial" x="120" y="280">STATISTICS</text><text fill="#FFFFFF" style="font-size:3px; font-family:Arial" x="120" y="285">Number: 6</text><text fill="#FFFFFF" style="font-size:3px; font-family:Arial" x="120" y="290">Weekly: 1.0</text><text fill="#FFFFFF" style="font-size:3px; font-family:Arial" x="141" y="285">Total: 67.2 km</text><text fill="#FFFFFF" style="font-size:3px; font-family:Arial" x="141" y="290">Avg: 11.2 km</text><text fill="#FFFFFF" style="font-size:3px; font-family:Arial" x="167" y="285">Min: 10.2 km</text><text fill="#FFFFFF" style="font-size:3px; font-family:Arial" x="167" y="290">Max: 12.7 km</text><polyline fill="none" points="14.613953488355037,65.75960577576188 14.530232558085117,65.56237313465681 14.8093023255351,65.8506361610489 14.0697674418916,66.1540704848303 14.013953488320112,65.6837470902683 14.516279069823213,66.19958559441147 14.795348837214988,66.45750435644004 15.423255813948344,66.95816925611871 15.99534883722663,67.03402746685606 16.525581395311747,67.09471401509654 17.111627906910144,67.1250572824647 17.683720930246636,67.18574380358041 18.269767441845033,67.20091543102171 18.855813953501638,67.20091543102171 19.400000000023283,67.24643030659354 19.734883720928337,67.33746002726548 20.306976744148415,67.39814648508036 20.93488372088177,67.50434774275345 21.465116279083304,67.47400453190494 21.99534883716842,67.67123532146798 22.469767441856675,67.97466693240858 22.97209302324336,68.33878426870797 23.167441860423423,68.71807246840035 22.91627906978829,69.17321737554448 22.386046511644963,69.3097606493684 21.744186046533287,69.29458917898592 21.18604651163332,69.26424623491766 20.65581395343179,69.29458917898592 20.139534883666784,69.29458917898592 19.651162790716626,69.40078944765264 19.148837209271733,69.43113237139187 18.646511627943255,69.3097606493684 17.99069767439505,69.50698966094933 17.781395348836668,70.02281848057464 17.66976744181011,70.53864599365625 18.158139534876682,70.85724468728586 18.66046511620516,71.05447220022324 19.176744186028372,71.28204217016173 19.637209302338306,71.55512579837523 20.01395348837832,71.91923673308338 20.586046511598397,71.99509309590212 21.213953488331754,71.78269520883623 21.660465116263367,71.90406545715814 22.218604651163332,71.94957928160147 22.80465116276173,71.97992182556482 23.376744186040014,71.93440800790268 23.92093023256166,71.90406545715814 24.451162790704984,71.84338034204848 25.00930232560495,71.75235263550712 25.58139534876682,71.63098229680327 26.139534883666784,71.47926927171648 26.474418604630046,71.13032888513408 26.544186046463437,70.61450287069601 26.474418604630046,70.06833272545191 26.418604651116766,69.4766467485315 26.460465116251726,68.86978755047312 26.502325581386685,68.29326963730273 26.725581395381596,67.89880907208135 27.255813953466713,67.8381227634527 27.85581395344343,67.91398064639361 28.441860465100035,67.95949536259286 29.02790697675664,67.97466693240858 29.544186046521645,68.03535320032097 30.03255813953001,67.98983850108925 30.562790697673336,67.95949536259286 31.10697674419498,68.02018163504545 31.679069767415058,68.09603945020353 32.1534883720451,68.26292654400459 32.697674418624956,68.14155412571563 33.325581395300105,68.27809809122118 33.92558139533503,68.39947042815038 34.483720930234995,68.49049963334983 34.97209302324336,68.61187184369192 35.488372093008365,68.73324398171098 35.8790697674267,68.9911595347512 35.93488372093998,69.52216111549933 36.03255813958822,69.99247564497637 36.60465116275009,70.00764706333575 37.16279069765005,70.11384696017194 37.7069767441717,70.17453259063768 38.26511627907166,70.23521820300084 38.75348837208003,70.34141798115161 39.28372093022335,70.31107519306534 39.86976744182175,70.29590379729052 40.427906976721715,70.35658937350672 41.01395348832011,70.3869321548409 41.544186046521645,70.46278908838576 42.04651162790833,70.55381737131393 42.506976744218264,70.67518835196097 43.05116279073991,70.75104517811269 43.6372093022801,70.8269019760337 44.18139534885995,70.91793009619869 44.76744186045835,70.99378683199757 45.31162790697999,71.06964353944932 45.85581395350164,71.16067155115888 46.35813953488832,71.25169952219585 46.91627906978829,71.32755613361951 47.460465116251726,71.4034127167979 48.00465116277337,71.46409796297667 48.56279069773154,71.57029710030474 49.13488372089341,71.67649618226278 49.65116279065842,71.78269520883623 50.18139534885995,71.88889418006875 50.82325581397163,71.93440800790268 51.38139534887159,72.02543563308427 51.93953488371335,72.11646321760782 52.483720930234995,72.17714825131407 52.97209302330157,72.28334701684071 53.53023255820153,72.38954572696821 54.11627906979993,72.46540191462555 54.68837209302001,72.57160052984545 55.31627906981157,72.63228542792785 55.874418604711536,72.70814152513049 56.432558139553294,72.79916880451492 57.01860465115169,72.85985363482905 57.534883720916696,72.9205384470406 58.06511627906002,73.01156563150289 58.609302325581666,73.10259277524892 59.08372093021171,73.1481063318497 59.76744186045835,73.23913341459411 60.31162790697999,73.33016045665136 60.88372093025828,73.43635862095107 61.455813953478355,73.45152978276019 61.98604651162168,73.69426821799425 62.51627906982321,73.51221441866073 63.01860465115169,73.73978164241998 63.22790697676828,74.16457311301201 63.81395348836668,74.27077084223856 64.45581395347835,74.25559974148928 65.02790697675664,74.30111304043385 65.5860465115984,74.33145523408893 66.13023255817825,74.37696851609508 66.68837209302,74.39213960788038 67.14883720927173,74.25559974148928 67.24651162791997,73.75495278160088 67.62325581390178,73.45152978276019 68.18139534880174,73.67909707427316 68.7255813953816,73.70943936058029 69.2418604650884,73.69426821799425 69.81395348836668,73.73978164241998 70.38604651164496,73.72461050204583 70.91627906978829,73.81563732713403 71.48837209300837,73.92183523828862 72.07441860466497,73.98251973408333 72.6046511628083,74.11905978353752 73.1209302325733,74.1797442206007 73.60930232558167,74.45282396354014 73.83255813951837,74.92312710697297 74.47441860463005,74.99898235101136 74.97674418607494,74.93829815805657 75.49302325583994,74.90795605478343 76.00930232560495,74.87761394698464 76.4837209302932,74.51350830114097 77.0,74.31628413782164 77.53023255814333,74.19491532705433 77.99069767439505,74.42248178794398 78.47906976746162,74.72590334030974 78.99534883722663,74.71073227342276 79.51162790699163,74.66521906602429 79.95813953486504,74.60453477365081 80.48837209306657,74.57419262061012 81.06046511628665,74.5438504631311 81.61860465118662,74.45282396354014 82.13488372095162,74.34662632923573 82.6372093023383,74.1797442206007 83.12558139534667,74.1797442206007 83.7255813953816,73.95217748846335 84.3116279070382,73.80046619244968 84.64651162794326,73.52738557488192 85.20465116278501,73.42118745799235 85.73488372092834,73.36050279493793 85.81860465119826,73.39084512874251 85.24651162791997,73.52738557488192 84.63255813956494,73.67909707427316 84.03255813958822,73.81563732713403 83.44651162793161,73.95217748846335 82.91627906978829,74.11905978353752 82.35813953488832,74.2252575365128 81.84186046512332,74.37696851609508 81.22790697676828,74.48316613458155 80.62790697673336,74.5438504631311 80.0,74.57419262061012 79.4139534884016,74.61970584839582 78.81395348836668,74.68039013630187 78.21395348838996,74.58936369768344 77.69767441862496,74.27077084223856 77.13953488372499,74.21008643232926 76.56744186050491,74.285941941911 76.21860465116333,74.69556120541529 75.63255813956494,74.83210077688273 75.03255813953001,74.87761394698464 74.44651162793161,74.92312710697297 73.83255813951837,74.90795605478343 73.23255813954165,74.92312710697297 72.68837209302,74.78658759656537 72.47906976740342,74.285941941911 72.22790697682649,73.92183523828862 71.69767441862496,73.84597959312669 71.15348837210331,73.83080846066878 70.60930232563987,73.77012391967583 69.98139534884831,73.70943936058029 69.2418604650884,73.66392592938791 68.66976744186832,73.61841248805285 68.06976744183339,73.55772788375907 67.46976744191488,73.34533162636217 67.02325581398327,73.1936198783078 66.57674418610986,72.9205384470406 65.99069767445326,72.66262787020241 65.39069767441833,72.5564293024654 64.90232558140997,72.70814152513049 64.31627906975336,72.61711420513166 63.66046511626337,72.51091561360226 63.08837209304329,72.45023067932925 63.07441860466497,73.04190801725781 62.669767441868316,73.10259277524892 62.11162790696835,73.01156563150289 61.581395348825026,73.1784486973047 61.1209302325733,73.3756739623932 60.465116279083304,73.25430459107156 59.80930232559331,73.16327751513745 59.18139534885995,73.07225039848709 58.595348837203346,72.9963944369083 58.0511627906817,72.95088084637246 57.506976744218264,72.87502483959543 56.89302325580502,72.78399759411695 56.26511627907166,72.70814152513049 55.69302325579338,72.63228542792785 55.09302325581666,72.51091561360226 54.506976744160056,72.41988820543338 53.89302325580502,72.31368951112381 53.30697674420662,72.23783326694684 52.72093023255002,72.16197699459735 52.10697674419498,72.04060690001643 51.493023255839944,71.94957928160147 50.93488372093998,71.85855162252847 50.2930232558283,71.75235263550712 49.69302325579338,71.64615359308664 49.13488372089341,71.6158109993703 48.465116279083304,71.47926927171648 47.89302325580502,71.4034127167979 47.32093023258494,71.32755613361951 46.74883720930666,71.28204217016173 46.10697674413677,71.17584288251237 45.493023255839944,71.09998621455452 44.86511627904838,70.99378683199757 44.23720930231502,70.91793009619869 43.665116279094946,70.81173061869049 43.02325581398327,70.7055310857977 42.479069767461624,70.66001698331092 41.82325581397163,70.50830323492119 41.25116279069334,70.44761770391779 40.651162790716626,70.35658937350672 40.06511627906002,70.37176076474134 39.437209302326664,70.31107519306534 38.80930232559331,70.2655610024085 38.2232558139367,70.25038960325764 37.539534883748274,70.15936118472018 36.93953488371335,70.0835041381506 36.26976744184503,70.02281848057464 35.73953488370171,69.93178996027564 35.15348837210331,69.87110425748688 34.53953488369007,69.79524710353871 33.93953488371335,69.73456136007735 33.31162790697999,69.6738755985134 32.75348837208003,69.62836126546608 32.13953488372499,69.49181820527883 31.567441860446706,69.35527505357459 31.720930232550018,68.77875851477438 31.818604651198257,68.24775499568204 31.232558139483444,68.06569632751052 30.618604651186615,67.98983850108925 30.04651162790833,68.06569632751052 29.446511627873406,68.03535320032097 28.90232558140997,68.0505247645051 28.232558139541652,68.02018163504545 27.576744185993448,67.92915221958538 26.96279069763841,67.8381227634527 26.334883720905054,67.79260802011413 25.74883720924845,67.77743643672147 25.148837209271733,67.71675009194587 24.534883720974904,67.64089213553234 23.93488372093998,67.54986255051335 23.86511627904838,67.07954237975355 23.474418604630046,66.654736130542 23.01395348837832,66.3361308620515 22.455813953478355,66.24510069379176 22.0511627906817,66.26027239134419 21.590697674429975,66.22992899511883 21.088372092985082,66.29061578302935 20.599999999976717,66.38164593091642 20.12558139534667,66.38164593091642 19.651162790716626,66.3361308620515 19.16279069770826,66.35130255280819 18.688372093020007,66.44233267361415 18.213953488331754,66.4271609896241 18.04651162790833,66.03269680956146 18.06046511628665,65.60788837650034 18.03255813953001,65.1375637204037 17.530232558143325,65.0768765888497 17.08372093021171,65.06170480312721 16.609302325581666,65.0313612283353 16.162790697650053,65.04653301631333" stroke="#4DD2FF" stroke-linecap="round" stroke-linejoin="round" stroke-width="0.5"><title>2026-03-29 12.7km</title><desc>1213129398</desc></polyline><polyline fill="none" points="165.75657254137332,62.510805122641614 165.68646543327486,62.6060903659818 165.56377799413167,62.930059927806724 165.96689386561047,63.88290920194413 166.82570593967102,63.97819393413374 167.5793573515257,63.94008004553325 168.29795520933112,63.90196615124296 168.9289191821008,63.71139659459004 169.62999026296893,63.86385225127742 170.10321324242977,64.41650324498187 170.34858812071616,64.91198243106192 171.0671859785798,65.04538050947303 171.64556962018833,65.10255109322316 172.22395326197147,65.25500592072785 172.88997078867396,65.42651749306242 173.76630963973003,65.42651749306242 174.48490749759367,65.50274482162786 175.0808179162559,65.90293792389275 175.67672833503457,66.36030070268316 176.1499513144954,66.93200302617333 176.48296007787576,67.50370407190348 176.9386562804575,67.86578073997225 177.44693281396758,67.98012063391798 178.2706913340371,68.11351711227326 179.09444985393202,68.24691352112859 179.79552093474194,68.34219662766554 180.25121713726548,67.71332746850385 180.37390457646688,66.93200302617333 180.42648490751162,66.18878975647385 180.60175267769955,66.11256263236282 180.56669912370853,66.97011646896135 180.47906523855636,67.8276674306544 180.98734177212464,68.11351711227326 181.68841285293456,68.18974364011956 182.37195715674898,68.26597014525032 183.0555014605634,68.30408338927373 183.79162609536434,68.4565363087022 184.47517039923696,68.53276273430674 185.2112950340961,68.64710233012738 185.84225900680758,68.83766820964229 185.98247322294628,69.46653460474045 185.89483933785232,70.15256890893215 185.24634858808713,70.32407719755429 184.58033106126823,70.41935953042412 183.91431353462394,70.51464182778727 183.26582278485876,70.62898053777462 182.5472249269369,70.70520631606632 181.81110029213596,70.68614987362525 181.0749756572186,70.60992408968741 180.4089581305161,70.32407719755429 179.90068159688963,70.49558537115809 179.00681596883805,70.68614987362525 178.25316455692519,70.81954494088131 177.4644595910795,70.91482708920375 176.69328140211292,70.99105278229399 175.8519961051643,70.99105278229399 175.11587147030514,70.99105278229399 174.37974683544599,71.01010920203407 173.64362220052863,71.01010920203407 172.85491723462474,71.02916562034807 172.22395326197147,71.04822203720687 171.62804284319282,70.49558537115809 170.96202531643212,70.0572864767455 170.2784810126759,69.84766500089609 169.612463485857,69.50464766990626 169.5949367088615,68.70427210889466 169.80525803309865,68.05634720152011 170.5413826678996,67.98012063391798 171.25998052582145,67.88483739254298 171.6105160661973,67.71332746850385 172.43427458615042,67.73238413239596 173.13534566701856,67.84672408598999 173.853943524824,67.94200734161132 174.71275559882633,67.86578073997225 175.39629990258254,68.0182339206076 176.09737098339247,67.96106398852135 177.04381694248877,67.98012063391798 177.8675754625583,68.03729056174052 178.656280428404,68.17068701027893 179.39240506326314,68.24691352112859 180.07594936707756,68.32314000918996 180.4089581305161,69.04729051310278 180.49659201555187,69.77143896707275 180.07594936707756,70.36219013495429 179.44498539430788,70.5908676401159 178.69133398245322,70.74331919668475 177.92015579360304,70.8576578044449 177.13145082764095,70.95293993860832 176.34274586167885,70.99105278229399 175.4839337877347,70.99105278229399 174.69522882177262,71.01010920203407 174.0116845180164,71.01010920203407 173.29308666015277,71.02916562034807 172.5394352482981,71.02916562034807 171.83836416748818,70.83860137339798 171.224926971714,70.32407719755429 170.73417721519945,70.70520631606632 170.2609542356222,71.39123729844869 169.68257059395546,71.90575932792854 168.98149951320374,72.15349178787437 168.35053554037586,72.40122400791734 167.7195715676644,72.6680122842663 167.03602726384997,72.9348002824845 166.19474196690135,73.2397005110688 165.5988315481227,73.52554414540646 164.82765335933072,73.7923312492785 164.19668938656105,74.05911807496159 163.44303797470639,74.24967992294114 162.74196689395467,74.47835395320726 161.9883154819836,74.70702777907718 161.1996105160215,74.9357014005218 160.44595910416683,75.08815036797023 159.6046738072182,75.24059924454195 158.86854917235905,75.4121041221224 158.1499513144954,75.62172103858029 157.3612463485333,75.71700139839959 156.5550146055757,75.85039384248375 155.83641674782848,76.04095435628551 155.0652385588619,76.19340266508516 154.29406037001172,76.34585088309541 153.54040895815706,76.53641102781694 152.76923076919047,76.66980304470053 151.94547224923735,76.80319499208417 151.1918208374409,76.936586869866 150.45569620252354,77.08903464503237 149.75462512171362,77.22242637378804 149.03602726390818,77.35581803298555 148.24732229794608,77.48920962265402 147.49367088609142,77.64165706856875 146.72249269718304,77.64165706856875 145.95131450833287,77.64165706856875 145.2151898733573,77.60354521560657 144.46153846156085,77.60354521560657 143.67283349559875,77.60354521560657 142.9367088607978,77.66071299293253 142.23563777992968,77.69882483733818 141.4644595910795,77.69882483733818 140.76338851021137,77.7178807574237 139.9922103213612,77.67976891585568 139.2035053554573,77.62260114277888 138.37974683544599,77.52732149264193 137.6085686465376,77.47015368557186 136.83739045762923,77.39392992286594 136.10126582282828,77.33676208596444 135.29503407987067,77.18431445833994 134.50632911396679,77.06997867811879 133.75267770211212,76.936586869866 132.99902629019925,76.7460270231677 132.24537487828638,76.49829901025805 131.54430379747646,76.36490690398205 130.80817916267551,76.19340266508516 130.05452775076265,76.00284226487565 129.3184031159035,75.85039384248375 128.59980525803985,75.65983318677172 127.84615384618519,75.43116021253809 127.12755598826334,75.2787114495004 126.42648490745341,75.08815036797023 125.70788704970619,74.95475752638595 124.97176241478883,74.70702777907718 124.25316455698339,74.51646627172886 123.51703992212424,74.36401696362009 122.74586173321586,74.19251138347317 122.02726387541043,74.0400618823769 121.18597857834538,73.73516260758333 120.5199610516429,73.48743167928478 119.83641674777027,73.31592551148788 119.13534566696035,73.06819417717634 118.41674780921312,72.82046260302013 117.7332035053987,72.57273078893195 117.01460564753506,72.26782976537652 116.33106134372065,72.00104107167863 115.66504381695995,71.71519573395199 114.98149951314554,71.4865192338475 114.33300876338035,70.97199636115693 114.01752677705372,70.38124660153699 114.68354430381441,70.11445594033285 114.07010710815666,70.40030306666449 114.28042843233561,71.08633486673352 114.87633885111427,71.4484064639546 115.54235637775855,71.65802662812348 116.13826679653721,71.96292837843066 116.90944498544559,72.26782976537652 117.66309639730025,72.5346181808709 118.2590068160207,72.80140631810355 118.94255111977691,73.10630670574028 119.76630963978823,73.33498175801651 120.37974683538778,73.58271283394424 121.0808179161977,73.73516260758333 121.92210321326274,74.00194949290017 122.74586173321586,74.26873609995528 123.4644595910795,74.47835395320726 124.21811100299237,74.66891548897547 125.02434274589177,74.89758914448612 125.70788704970619,75.06909425198683 126.51411879260559,75.16437481762841 127.37293086660793,75.39304803026607 128.17916260950733,75.62172103858029 128.96786757546943,75.62172103858029 128.9328140214202,74.8785330143146 128.98539435246494,74.19251138347317 128.96786757546943,73.48743167928478 128.95034079847392,72.62989969039336 129.09055501461262,71.69613936678797 129.14313534565736,70.81954494088131 129.03797468350967,70.0572864767455 128.31937682570424,69.77143896707275 127.70593963004649,69.54276072938228 127.56572541384958,69.00917737979034 128.42453748785192,68.70427210889466 129.16066212276928,68.53276273430674 129.80915287247626,68.36125324470049 130.59785783838015,68.24691352112859 131.29892891919008,68.15163037907041 132.01752677705372,68.03729056174052 132.70107108086813,67.88483739254298 133.4722492697183,67.77049745597469 134.24342745862668,67.67521413644135 135.15481986373197,67.71332746850385 136.0136319376761,67.8276674306544 136.74975657259347,67.80861077380541 137.52093476138543,67.80861077380541 138.257059396361,67.77049745597469 139.0457643622649,67.78955411558854 139.78188899706583,67.84672408598999 140.5355404089787,67.78955411558854 141.35929892893182,67.80861077380541 142.20058422588045,67.88483739254298 142.98928919184254,67.92295069331885 143.77799415774643,67.92295069331885 144.56669912365032,67.94200734161132 145.28529698151397,67.92295069331885 146.03894839342684,67.94200734161132 146.84518013638444,67.94200734161132 147.68646543333307,67.98012063391798 148.47517039923696,67.98012063391798 149.28140214219457,68.03729056174052 150.08763388515217,68.03729056174052 150.85881207394414,68.07540383985906 151.62999026291072,68.05634720152011 152.43622200586833,68.07540383985906 153.13729308667826,68.07540383985906 153.90847127552843,68.11351711227326 154.6621226873831,68.11351711227326 155.36319376825122,68.13257374639215 156.09931840311037,68.15163037907041 156.3972736124415,68.49464952432027 156.04673807206564,69.04729051310278 155.31061343720648,69.42842153389938 154.74975657253526,69.84766500089609 154.34664070105646,70.4574724536069 153.82083739043446,71.01010920203407 153.94352482963586,71.81047754870087 154.57448880234733,72.36311137431767 155.17039922100957,72.74423745501554 156.02921129507013,72.80140631810355 156.76533592987107,72.64895598802832 157.4488802336855,72.32499873498455 157.93962999031646,71.77236482707667 158.36027263873257,71.1435041004006 158.72833495622035,70.53369828297582 159.53456669911975,70.4574724536069 160.0077896786388,71.12444769059948 160.533592989319,70.667093429729 160.6738072054577,69.92389101197477 160.533592989319,69.10446020244854 160.5160662122653,68.30408338927373 160.5511197662563,67.56087410615874 160.49853943526978,66.8557761234988 160.48101265827427,66.15067619724141 160.49853943526978,65.40746065738495 160.6387536514667,64.64518606553611 161.39240506326314,64.47367396924528 162.02336903603282,64.51178777837777 162.6543330087443,64.53084468079032 163.23271665041102,64.51178777837777 163.96884128532838,64.64518606553611 164.5296981499996,64.64518606553611 164.7925998052815,64.39744633402734" stroke="#4DD2FF" stroke-linecap="round" stroke-linejoin="round" stroke-width="0.5"><title>2026-03-22 12.3km</title><desc>1210184584</desc></polyline><polyline fill="none" points="65.65217391308397,142.33221872791182 65.33561309234938,142.29397425850038 65.37078651686898,142.19836306010257 65.47630679048598,142.38958542131877 65.44113336590817,143.03974038363958 65.77528089890257,143.78550434173667 66.30288226675475,143.93848129604885 66.88324377132813,143.97672552037693 67.39325842697872,143.95760340891138 67.9032730825711,143.91935918174568 68.4132877382217,143.93848129604885 68.85295554471668,143.97672552037693 69.18710307771107,144.1679465565685 69.64435759646585,144.26355702122964 69.99609184172004,144.58863233467855 70.11919882759685,144.85634110716637 70.55886663409183,145.08580554711807 71.05129457742441,145.06668351826374 71.47337567177601,145.16229364815808 71.8602833414916,145.18141566985287 72.24719101120718,145.2961477701174 72.68685881781857,145.39175781449012 73.19687347341096,145.4682458243915 73.74206155352294,145.44912382404436 74.23448949685553,145.52561181684723 74.69174401561031,145.75507565836597 75.1841719590011,146.04190517183451 75.60625305323629,146.36697823292343 75.95798729843227,146.7302946963464 76.16902784560807,147.22746376022405 76.46800195408287,147.62902268575272 76.90766976063605,147.85848464685841 77.32975085492944,147.93497192162613 77.85735222278163,148.0305809831043 78.36736687843222,148.1070682065765 78.8773815339664,148.2026772038662 79.36980947724078,148.33652974029246 79.84465070837177,148.39389509167813 80.19638495362597,148.0305809831043 80.30190522724297,147.49516978039173 80.35466536402237,146.99800123501336 80.40742550074356,146.500831726662 80.46018563752295,146.00366125522123 80.56570591102354,146.32873436472437 80.51294577430235,146.7876604066987 80.49535906210076,147.28482935948705 80.49535906210076,147.80111917581235 80.72398632141994,148.04970279106055 81.14606741577154,148.1070682065765 81.69125549588352,148.16443360922858 82.14851001469651,148.2026772038662 82.6585246702889,148.24092079282855 83.16853932588128,148.31740795362566 83.69614069373347,148.39389509167813 84.17098192480626,148.4703822069132 84.68099658034043,148.54686929934542 85.13825109915342,148.64247813279508 85.63067904248601,148.77633043992682 85.96482657553861,149.02491311068297 86.0,149.4647126308264 85.96482657553861,149.98099806249957 85.64826575474581,150.2678228536388 85.19101123593282,150.3251877734292 84.73375671711983,150.38255268035573 84.24132877378725,150.43991757449112 83.78407425497426,150.5164040800446 83.36199316079728,150.59289056280977 82.83439179288689,150.63113379565766 82.3595505618141,150.68849863417563 81.88470933074132,150.68849863417563 81.48021494870773,150.65025540991337 80.95261358085554,150.63113379565766 80.51294577430235,150.47816083008365 80.00293111870997,150.45903920299315 79.44015632633818,150.61201217991766 78.9301416707458,150.70762024422584 78.42012701515341,150.80322827288182 77.91011235956103,150.8605930729973 77.40009770396864,150.91795786030707 76.90766976063605,150.95620104469708 76.38006839278387,150.97532263478206 75.90522716165287,150.9944442233973 75.36003908154089,151.01356581061555 74.85002442600671,151.01356581061555 74.34000977041433,150.9944442233973 73.75964826572454,150.9944442233973 73.30239374691155,150.9944442233973 72.77479237911757,151.01356581061555 72.31753786030458,150.9944442233973 71.8778700538096,150.7267418528063 71.5613092330168,150.34430941048777 71.20957498782082,150.2104579210718 70.73473375674803,150.57376894426125 70.40058622375363,151.05180898078834 70.03126526623964,151.47248347652203 69.64435759646585,151.79754966014298 69.18710307771107,152.0461294051347 68.74743527109968,152.27558741765097 68.2198339033639,152.40943783021066 67.7449926721747,152.58153111528372 67.27015144116012,152.77274574113835 66.81289692240534,152.9448387825978 66.32046897901455,153.11693170868966 65.86321446025977,153.28902451947215 65.54665363946697,153.51848142096424 65.08939912065398,153.65233118546894 64.5793844650616,153.82442363727023 64.12212994630681,153.97739460870798 63.664875427493826,154.13036548899254 63.15486077184323,154.30245762033155 62.66243282862706,154.43630697610206 62.222765022015665,154.58927758286882 61.76551050320268,154.76136940658034 61.29066927212989,154.9143398196902 60.79824132885551,155.02906756971788 60.30581338546472,155.04818885639543 59.77821201761253,155.2011590986367 59.26819736196194,155.31588672044745 58.79335613100557,155.4114930328069 58.33610161213437,155.50709930958692 57.89643380558118,155.60270555071475 57.421592574508395,155.67919051798526 56.94675134343561,155.77479669505556 56.43673668790143,155.88952406054887 55.891548607789446,156.00425137471757 55.38153395219706,156.11897863767808 54.889106008806266,156.21458465095202 54.36150464095408,156.31019062863197 53.886663409881294,156.42491775484814 53.35906204202911,156.52052365415148 52.849047386378516,156.61612951791903 52.321446018642746,156.71173534601985 51.81143136299215,156.8264622928109 51.354176844179165,156.90294689549773 50.86174890084658,156.99855261686025 50.35173424525419,157.09415830252692 49.87689301423961,157.20888507840573 49.38446507079061,157.30449068579765 48.839276990736835,157.40009625756647 48.29408891062485,157.5148228967446 47.76648754283087,157.59130729433673 47.29164631169988,157.70603384805145 46.79921836836729,157.6869127593236 46.27161700051511,157.6869127593236 45.76160234498093,157.6869127593236 45.16365412803134,157.61042839015136 44.72398632141994,157.57218619705236 44.196384953625966,157.57218619705236 43.65119687351398,157.59130729433673 43.158768930181395,157.57218619705236 42.66634098684881,157.6869127593236 42.173913043458015,157.74427602118521 41.69907181250164,157.72515493533865 41.22423058137065,157.74427602118521 40.714215925720055,157.7825181886874 40.239374694705475,157.7825181886874 39.71177332679508,157.74427602118521 39.1138251099037,157.6486705776042 38.63898387888912,157.66779166914057 38.07620908651734,157.61042839015136 37.63654127996415,157.57218619705236 37.073766487592366,157.5148228967446 36.61651196877938,157.49570179377042 36.14167073770659,157.41921736762743 35.57889594533481,157.36185403315176 35.13922813878162,157.41921736762743 34.55886663409183,157.15152169685462 34.04885197849944,157.05591603252105 33.57401074748486,156.96031033254985 33.116756228671875,156.84558344563993 32.677088422118686,156.71173534601985 32.149487054208294,156.5970083480206 31.709819247713313,156.50140247716627 31.14704445528332,156.38667538513255 30.70737664878834,156.27194824178878 30.179775280936155,156.11897863767808 29.669760625401977,155.98513015927165 29.23009281879058,155.8321603842196 28.755251587717794,155.75567546254024 28.245236932125408,155.64094803720945 27.717635564273223,155.50709930958692 27.225207620940637,155.39237177318137 26.75036638986785,155.27764418553852 26.222765021957457,155.14379526847915 25.73033707868308,154.99082499202632 25.237909135350492,154.8760972249729 24.763067904277705,154.81873332218674 24.21787982416572,154.62752022033965 23.743038593092933,154.5127922908432 23.250610649818555,154.3789429750468 22.793356131005567,154.24509358935757 22.283341475354973,154.1112441339792 21.808500244282186,154.015637337332 21.3160723009496,153.8817877622496 20.823644357617013,153.709695348909 20.331216414342634,153.53760282014264 19.82120175869204,153.36551017608144 19.346360527619254,153.26990310171095 18.889106008864474,153.07868884621712 18.431851490051486,152.98308166503557 17.95701025892049,152.77274574113835 17.48216902790591,152.54328817297937 17.024914509092923,152.37119486232405 16.567659990279935,152.21822293376317 16.092818759207148,152.02700789483788 15.653150952595752,151.835792713493 15.160723009321373,151.6254558494984 14.65070835367078,151.41511881313636 14.228627259493805,151.1665384571097 14.087933561357204,151.1091737253446 14.545188080170192,151.41511881313636 15.020029311242979,151.60633430785674 15.477283830055967,151.81667118755286 15.952125061070547,151.98876486993686 16.462139716662932,152.19910143628658 16.972154372313526,152.35207337622705 17.48216902790591,152.5624096448446 17.95701025892049,152.71538136833988 18.379091353272088,152.88747444824548 18.80117244750727,153.11693170868966 19.22325354180066,153.26990310171095 19.733268197393045,153.38463158666855 20.172936003946234,153.51848142096424 20.612603810499422,153.6714525747375 21.157791890611406,153.82442363727023 21.667806546145584,153.97739460870798 22.16023448953638,154.1112441339792 22.652662432927173,154.24509358935757 23.109916951681953,154.3789429750468 23.602344895072747,154.5127922908432 24.129946262866724,154.62752022033965 24.63996091845911,154.780490713194 25.132388861791696,154.89521852303005 25.60723009292269,155.02906756971788 26.09965803619707,155.16291654658562 26.609672691731248,155.27764418553852 27.11968734738184,155.3732505121443 27.57694186613662,155.46885680314153 28.086956521729007,155.62182679463876 28.614557889697608,155.71743299311493 28.878358573594596,155.4306142909918 28.84318514901679,154.95258240873227 28.790425012237392,154.49367096427886 28.82559843675699,154.015637337332 28.84318514901679,153.55672421795316 28.860771861334797,153.09781027816643 28.860771861334797,152.6006525842531 28.878358573594596,151.95052183940425 28.931118710373994,151.45336192348623 28.948705422575586,150.97532263478206 28.983878847095184,150.40167431316513 28.68490473862039,149.94275473280868 28.17489008308621,149.8089030340343 27.717635564273223,149.69417295092717 27.506595017155632,149.63680789011414 27.401074743596837,149.59856450909865 27.41866145579843,149.61768620034854 27.436248168058228,149.61768620034854 27.453834880376235,149.61768620034854 27.436248168058228,149.502956031778 27.453834880376235,149.13964349293383 27.59452857845463,148.79545219236752 28.157303370826412,148.68072165625927 28.667318026418798,148.56599106887006 29.21250610658899,148.45126043024356 29.74010747432476,148.33652974029246 30.26770884229336,148.2026772038662 30.795310210087337,148.12619000884297 31.34049829019932,148.06882459766348 31.850512945791706,147.99233736275346 32.39570102590369,147.93497192162613 32.85295554471668,147.85848464685841 33.362970200309064,147.78199734931695 33.89057156816125,147.72463186115783 34.43575964827323,147.66726636017847 34.94577430392383,147.68638819527405 35.47337567177601,147.66726636017847 35.9482169028488,147.70551002897264 36.440644846181385,147.72463186115783 36.93307278951397,147.7437536919606 37.42550073284656,147.7628755213227 37.90034196386114,147.7437536919606 38.340009770414326,147.7437536919606 38.74450415244792,147.68638819527405 39.14899853448151,147.60990084640798 39.71177332679508,147.68638819527405 40.239374694705475,147.72463186115783 40.78456277481746,147.80111917581235 41.32975085492944,147.82024100091076 41.82217879826203,147.80111917581235 42.297020029393025,147.82024100091076 42.824621397187,147.83936282464128 43.31704934046138,147.83936282464128 43.87982413289137,147.89672828713083 44.35466536402237,147.89672828713083 44.864680019556545,147.9158501050988 45.16365412803134,147.93497192162613 45.19882755255094,147.93497192162613 45.691255495883524,147.9158501050988 46.27161700051511,147.93497192162613 46.83439179288689,147.95409373677103 47.36199316079728,147.99233736275346 47.85442110407166,147.97321555051894 48.34684904740425,147.97321555051894 48.89203712751623,147.99233736275346 49.419638495426625,148.01145917360554 49.9296531509608,148.01145917360554 50.4220810943516,148.04970279106055 50.89692232536618,148.0305809831043 51.40693698095856,148.04970279106055 51.89936492429115,148.06882459766348 52.391792867623735,148.06882459766348 52.91939423553413,148.12619000884297 53.44699560338631,148.0879464028112 53.95701025892049,148.1070682065765 54.484611626772676,148.1070682065765 54.97703957016347,148.12619000884297 55.41670737665845,148.12619000884297 55.85637518315343,148.1453118097561 56.08500244264724,148.50862575595966 56.208109428407624,148.77633043992682 55.83878847095184,149.0631565771473 55.41670737665845,149.27349554075045 55.04738641908625,149.502956031778 54.73082559852628,149.78978135703073 54.467024914512876,150.22957956667233 54.13287738157669,150.57376894426125 53.7459697118029,150.87971467016905 53.622862725984305,151.31951101237792 53.7635564240627,151.7593066010886 54.027357108017895,152.19910143628658 54.484611626772676,152.3903163470095 54.941866145585664,152.73450282732665 55.539814362477046,152.73450282732665 56.01465559354983,152.77274574113835 56.47191011236282,152.69625990785426 56.929164631234016,152.50504522502888 57.2984855886898,152.37119486232405 57.68539325846359,152.02700789483788 57.984367366938386,151.64457738971396 58.19540791399777,151.18566003147862 58.476795310212765,150.78410667002026 58.916463116765954,150.45903920299315 59.39130434789695,150.63113379565766 59.725451880833134,150.9944442233973 60.04201270156773,151.3959972558223 60.48168050806271,150.68849863417563 60.552027357160114,150.22957956667233 60.534440644900315,149.75153799886175 60.48168050806271,149.2352521056455 60.41133365902351,148.69984341581585 60.41133365902351,148.2026772038662 60.42892037128331,147.70551002897264 60.41133365902351,147.18922002027102 60.41133365902351,146.63468515055138 60.42892037128331,146.11839298796258 60.39374694682192,145.64034376322525 60.323400097724516,145.21965970897872 60.552027357160114,144.72248675582523 61.02686858817469,144.56951026883326 61.50170981924748,144.4738999180845 61.994137762638275,144.55038820151822 62.48656570591265,144.53126613279164 62.94382022472564,144.53126613279164 63.55935515387682,144.6651205838716 64.1397166585084,144.74160881032003 64.63214460184099,144.6077543991414 64.6673180264188,143.9958476303873 65.07181240845239,143.80462646599335 65.47630679048598,143.86199283029418 65.56424035178497,143.4795501595363" stroke="#4DD2FF" stroke-linecap="round" stroke-linejoin="round" stroke-width="0.5"><title>2026-03-15 10.7km</title><desc>1207636486</desc></polyline><polyline fill="none" points="168.45707376068458,121.24519015321857 168.39177750912495,121.41087068483466 168.3700120919384,121.88424315582961 168.32648125756532,122.57063198485412 168.43530834338162,123.13867678979295 168.2611850061221,124.01441053923918 168.1523579201894,124.72446315700654 168.10882708593272,125.33984080766095 168.1523579201894,126.02622216450982 168.10882708593272,126.73627028224291 168.17412333737593,127.49365319064236 168.13059250300284,127.96701659075916 168.13059250300284,128.51138362823986 168.23941958893556,129.2450942453288 168.8488512696931,129.45810668749618 169.41475211607758,129.57644687136053 169.98065296246205,129.57644687136053 170.54655380896293,129.81312710681232 170.56831922614947,130.2628190680116 171.4824667472858,129.86046313273255 172.28778718260583,129.6237829325837 172.87545344617683,129.93146715837065 173.63724304712377,129.88413114304421 174.15961305925157,129.76579107387806 174.7037484885659,129.55277883811505 175.00846432894468,129.4817747277848 174.89963724312838,132.34559458104195 174.50785973400343,132.01424484525342 174.83434099156875,132.51126931922045 174.87787182582542,132.2509232632583 175.00846432894468,132.67694397098967 175.03022974613123,132.8899541105202 174.9649334945716,133.5763191433798 174.76904474000912,134.1916796354344 174.52962515118998,134.83070657632197 174.61668681993615,135.446064637159 174.29020556237083,136.08508905326016 174.09431680780835,136.7004446828796 173.92019347043242,137.29213166350382 173.76783555012662,137.78914787515532 173.68077388161328,138.30983069096692 173.5937122128671,139.0908533136826 173.39782345830463,139.77720494152163 173.44135429267772,140.43988786419504 173.4848851270508,141.26823957252782 173.63724304712377,141.90725227099028 173.7025392986834,142.68826604491915 173.8548972188728,143.39827689976664 173.9637243046891,144.03728531161323 174.05078597343527,144.72362624766538 174.11608222487848,145.38629884723923 174.2249093108112,146.09630366938654 174.26844014506787,146.73530665197177 174.3337363966275,147.4453084578854 174.29020556237083,147.9896421006706 174.26844014506787,148.60497466032393 174.15961305925157,149.24397259490797 174.05078597343527,149.85930272410042 174.05078597343527,150.54563107702415 174.09431680780835,151.13729225975112 174.0725513905054,151.77628509898204 174.0725513905054,152.46260930906283 174.09431680780835,153.0779332019447 174.0725513905054,153.62225719031994 174.02902055624872,154.28491122138803 174.02902055624872,154.92389772765455 174.0725513905054,155.49188465389307 174.02902055624872,156.10720267772558 173.9637243046891,156.7225195094943 173.98548972199205,157.33783514919924 174.00725513906218,158.00048142805463 173.98548972199205,158.73412390984595 174.02902055624872,159.34943565251888 174.00725513906218,159.9647462030989 173.98548972199205,160.53272411494981 173.94195888761897,161.14803237331216 173.9637243046891,161.78700507228496 173.98548972199205,162.40231090094312 173.94195888761897,163.0176155376248 173.9637243046891,163.63291898244643 174.0725513905054,164.27188668283634 174.24667472799774,164.86352229645126 174.50785973400343,165.4314914487768 174.66021765419282,165.99945958558237 175.05199516331777,166.49643087227014 175.63966142688878,166.52009615229326 176.2273276904598,166.5674267069262 176.8149939540308,166.63842252563336 177.40266021771822,166.75674885505578 177.99032648128923,166.89874039203278 178.5562273276737,167.08806234266376 179.16565900843125,167.30104940230376 179.60096735181287,167.72702309308806 179.99274486093782,168.03467040343094 180.44981862150598,168.10566589431255 181.16807738819625,168.03467040343094 181.84280532039702,168.10566589431255 182.60459492146038,168.17666136927437 183.1487303506583,168.08200073245098 183.82345828297548,168.12933105434058 184.4111245466629,168.05833556881407 185.02055622742046,168.01100523630157 185.71704957680777,168.03467040343094 186.0,168.12933105434058 185.45586457080208,168.03467040343094 184.91172914148774,168.01100523630157 184.3022974607302,167.91634455011808 183.80169286578894,168.17666136927437 183.80169286578894,168.79195482112118 183.8887545344187,169.43091214436572 184.19347037479747,169.64389763315558 183.86698911734857,169.3599169497029 183.54050785978325,169.21792651273427 183.10519951640163,169.2652566654724 182.64812575571705,169.170596352953 182.06045949214604,169.1942614337604 181.60338573157787,169.2415915899619 181.27690447401255,169.50190732316696 180.75453446188476,169.8805480088049 180.0362756953109,169.8805480088049 179.51390568329953,169.64389763315558 178.86094316805247,169.78588787972694 178.20798065292183,169.95154308713973 177.59854897216428,170.11719820820144 176.98911729140673,170.16452822694555 176.35792019346263,170.25918824321707 175.704957678332,170.35384823131608 175.0737605803879,170.40117821478634 174.52962515118998,170.42484320382937 173.89842805324588,170.42484320382937 173.28899637248833,170.44850819115527 172.67956469173077,170.44850819115527 172.09189842804335,170.44850819115527 171.50423216447234,170.42484320382937 170.96009673527442,170.44850819115527 170.28536880295724,170.47217317673494 169.65417170501314,170.42484320382937 169.13180169288535,170.21185823855922 169.02297460706905,169.85688297922025 168.45707376068458,169.5729024860775 167.7388149939943,169.59656753690797 167.32527206768282,170.14086321846116 166.95525997586083,170.68515796744032 166.5199516324792,171.13479205674957 166.0411124547245,171.41877115366515 165.47521160822362,171.6790851028636 164.8875453445362,171.8920690844243 164.32164449826814,172.10505292320158 163.75574365188368,172.34170146551332 163.18984280526638,172.6256794836372 162.5586457074387,172.83866283061798 161.99274486093782,173.05164603478624 161.49214026599657,173.28829387199949 160.94800483679865,173.5722710439586 160.36033857311122,173.76158901760937 159.85973397828639,173.85624796210323 159.2938331317855,174.04556576657342 158.61910519946832,174.28221286344342 158.03143893601373,174.4715304139827 157.46553808951285,174.6371831781289 156.8561064087553,174.80283585598227 156.26844014506787,175.01581774346414 155.5937122128671,175.22879948813352 155.02781136636622,175.32345799548784 154.46191051998176,175.34712261790992 153.7436517534079,175.60743334837025 153.13422007265035,175.77308552031172 152.52478839177638,175.89140844740905 151.91535671101883,176.00973133047228 151.28415961319115,176.15171873185318 150.69649334950373,176.24637696432183 150.13059250300284,176.34103516847244 149.45586457080208,176.50668695796048 148.75937122129835,176.62500961180194 148.17170495772734,176.76699673832627 147.54050785978325,176.86165478735347 146.8875453446526,176.97997730912175 146.32164449826814,177.05097080094856 145.69044740032405,177.21662222026498 145.01571946800686,177.38227355323033 144.4498186216224,177.47693141899072 143.84038694074843,177.59525371156633 143.23095525987446,177.68991151388036 142.62152357923333,177.80823372708983 142.0338573155459,177.95022032482666 141.42442563478835,178.04487802137737 140.77146311977413,178.18686451338 140.16203143901657,178.32885094190715 139.53083434095606,178.3998441323638 138.94316807738505,178.54183046572143 138.31197097955737,178.6128236085351 137.6372430472402,178.6128236085351 136.98428053210955,178.63648798599024 136.374848851352,178.56549484838615 135.76541717059445,178.51816608119407 135.2212817412801,178.49450169497868 134.5247883918928,178.51816608119407 133.87182587676216,178.54183046572143 133.28415961307473,178.54183046572143 132.65296251513064,178.63648798599024 132.08706166874617,178.6838167355454 131.49939540505875,178.73114547811565 130.8464328899281,178.70748110773275 130.23700120928697,178.70748110773275 129.58403869403992,178.70748110773275 128.9310761790257,178.63648798599024 128.32164449826814,178.58915922936285 127.71221281739417,178.54183046572143 127.05925030226354,178.49450169497868 126.58041112462524,178.51816608119407 125.88391777512152,178.3998441323638 125.14389359136112,178.3051865415473 124.55622732779011,178.2578577355598 124.07738814991899,178.3051865415473 123.55501813790761,178.28152213941212 122.90205562277697,177.99754917665268 122.20556227327324,177.85556260010344 121.66142684407532,177.78456928799278 121.0737605803879,177.6425826162449 120.46432889963035,177.52426034130622 119.78960096731316,177.28761565926834 119.28899637237191,177.19295773710473 118.63603385735769,177.00364180814358 118.09189842804335,176.86165478735347 117.56952841603197,176.76699673832627 116.98186215234455,176.62500961180194 116.43772672303021,176.50668695796048 115.95888754539192,176.36469971510815 115.76299879082944,175.82041469641263 115.7412333736429,175.20513485686388 115.65417170501314,174.54252446634928 115.67593712219968,173.90357742382912 115.65417170501314,173.24096431865473 115.71946795657277,172.60201465847786 115.78476420801599,172.01039345696336 115.85006045957562,171.34777640321408 115.91535671113525,170.82714774861233 115.91535671113525,170.1881932336546 115.93712212808896,169.50190732316696 115.50181378482375,168.98127564348397 114.89238210394979,168.8156199301011 114.34824667475186,168.72095948367496 114.04353083437309,168.5553036344936 114.06529625167605,167.98734006736777 114.2611850061221,167.6560275175725 114.87061668687966,167.5377015232516 115.48004836763721,167.39571027184138 116.13301088265143,167.2537189569266 116.76420798071194,167.08806234266376 117.43893591291271,166.92240564204985 118.02660217660014,166.82774463144597 118.67956469161436,166.75674885505578 119.26723095530178,166.6857530627458 119.8984280533623,166.59109198162332 120.52962515107356,166.52009615229326 121.13905683194753,166.4254350217525 121.7484885128215,166.30710856901715 122.40145102783572,166.28344327319064 123.03264812577982,166.28344327319064 123.66384522372391,166.28344327319064 124.29504232178442,166.30710856901715 124.94800483679865,166.33077386312652 125.57920193474274,166.33077386312652 126.21039903268684,166.35443915546057 126.79806529625785,166.33077386312652 127.4074969770154,166.33077386312652 127.97339782339986,166.30710856901715 128.5175332527142,166.2597779755888 129.17049576784484,166.30710856901715 129.91051995160524,166.37810444599018 130.5199516323628,166.37810444599018 131.1511487303069,166.35443915546057 131.8476420798106,166.40176973474445 132.50060459494125,166.40176973474445 133.11003627581522,166.4491003070725 133.78476420801599,166.49643087227014 134.39419588877354,166.49643087227014 134.98186215246096,166.52009615229326 135.5912938331021,166.52009615229326 136.24425634823274,166.54376143045374 136.8536880289903,166.54376143045374 137.44135429267772,166.5674267069262 138.13784764206503,166.6147572545451 138.74727932282258,166.63842252563336 139.37847642076667,166.63842252563336 140.0314389358973,166.6620877950627 140.68440145102795,166.6857530627458 141.25030229752883,166.6857530627458 141.8162031439133,166.6857530627458 142.42563482467085,166.6620877950627 143.0350665054284,166.6857530627458 143.7097944377456,166.6857530627458 144.34099153568968,166.75674885505578 144.90689238219056,166.75674885505578 145.51632406294812,166.75674885505578 146.2563482467085,166.82774463144597 146.9310761790257,166.82774463144597 147.49697702541016,166.82774463144597 148.08464328898117,166.85140988675994 148.69407496973872,166.87507514024037 149.28174123342615,167.04073186562164 149.5211608222453,167.2537189569266 149.54292623943184,167.77435346794664 149.10761789605021,168.03467040343094 148.65054413548205,168.29498712561326 148.06287787179463,168.43697797509958 147.80169286590535,168.98127564348397 147.49697702541016,169.50190732316696 147.01813784765545,169.8805480088049 146.53929866990075,170.42484320382937 146.49576783564407,171.06379724285216 146.71342200727668,171.65542020715657 147.10519951640163,172.01039345696336 147.627569528413,172.2943717711605 148.06287787179463,172.55468500292045 148.65054413548205,172.5073553402326 149.17291414749343,172.5073553402326 149.65175332536455,172.5073553402326 150.13059250300284,172.3180366192537 150.7835550182499,172.12871778541012 151.2623941958882,171.75007977924543 151.43651753326412,171.25311671127565 151.8935912939487,170.8744776615349 152.13301088276785,170.33018323694705 152.56831922614947,169.85688297922025 153.13422007265035,169.620232585934 153.61305925028864,169.92787806282286 154.0048367594136,170.42484320382937 154.57073760591447,170.5668331013585 154.94074969773646,169.95154308713973 154.9625151148066,169.3599169497029 154.98428053210955,168.79195482112118 154.89721886336338,168.2003265240637 154.83192261192016,167.63236232229974 154.83192261192016,167.06439710501581 154.81015719473362,166.52009615229326 154.81015719473362,165.9284636240336 154.81015719473362,165.28949925588677 154.83192261192016,164.67419901996618 154.81015719473362,164.03523212883738 154.81015719473362,163.44359497254482 154.81015719473362,162.89928781543858 155.28899637248833,162.4733076506527 155.83313180168625,162.37864531416562 156.4425634824438,162.37864531416562 157.11729141476098,162.40231090094312 157.68319226126187,162.4733076506527 158.20556227327324,162.26031735393917 158.90205562277697,162.5443043844425 159.6638452237239,162.5916355314548 159.9685610641027,161.85800195951015" stroke="#4DD2FF" stroke-linecap="round" stroke-linejoin="round" stroke-width="0.5"><title>2026-03-04 10.3km</title><desc>1203670469</desc></polyline><polyline fill="none" points="78.2174181593582,221.8887683507346 77.83940704143606,221.8887683507346 77.172328597866,221.8162368273479 76.61642989492975,221.7195281041786 76.06053119210992,221.69535091886064 75.4379246449098,221.6469965428987 74.5707226684317,221.62281935216743 73.94811612099875,221.69535091886064 73.32550957379863,221.74370528766303 73.08091414452065,222.2272485792637 73.01420630014036,222.66243692560238 73.0586781965103,223.33939541556174 73.03644224838354,224.01635249334504 73.03644224838354,224.66913119520177 73.03644224838354,225.3219085840101 73.03644224838354,225.97468465977 73.03644224838354,226.57910578144947 73.03644224838354,227.1593489992083 73.12538604077417,227.78794464768725 73.36998147005215,228.31983232239145 73.68128474371042,228.078065305599 73.70352069172077,227.54617723464617 73.59234095120337,226.99011150118895 74.0370599135058,226.91758111788658 74.65966646082234,227.0384650810156 75.082149474998,227.1109954372805 75.81593576283194,227.25605610126513 76.23841877700761,227.47364697561716 76.86102532432415,227.61870747749344 77.66151945653837,227.86047483645962 78.17294626322109,228.02971188063384 78.79555281042121,228.22312553727534 79.35145151324105,228.44071576325223 80.01852995681111,228.60995250486303 80.57442865974735,228.8758957775426 81.19703520694748,229.0934855658852 81.77516985801049,229.3352518262691 82.3977764052106,229.528664704907 83.02038295241073,229.72207746826462 83.6207535516005,229.91549011637107 84.24336009891704,229.794607224816 84.8437306979904,229.794607224816 85.17726991965901,230.18143231931026 84.75478690559976,230.61660999953165 84.28783199505415,231.00343411433278 83.68746139598079,231.22102247632574 83.10932674491778,231.41443423111923 82.508956145728,231.60784587071976 81.97529339103494,231.8979631139664 81.37492279184517,232.0913744654099 80.79678814078216,232.30896209803177 80.17418159358203,232.52654958481435 79.75169857940637,232.71996056166245 79.39592340949457,233.01007681086776 78.77331686229445,233.17931116977707 78.26189005561173,233.37272175768157 77.6392835082952,233.5661322303058 76.92773316858802,233.8078951590287 76.23841877700761,233.97712910198607 75.6602841259446,234.1463629567006 75.05991352687124,234.2914204762492 74.54848672018852,234.58153532078722 73.94811612099875,234.79912128398428 73.32550957379863,234.8958261097432 72.79184681910556,235.0892356748227 72.0580605311552,235.16176423194702 71.39098208781797,235.30682129770867 70.74613959237467,235.45187829856877 70.21247683756519,235.57275908318115 69.6343421866186,235.64528753230115 69.01173563930206,235.79034438199596 68.32242124772165,235.91122504044324 67.65534280415159,236.0321056539251 67.01050030894112,236.17716233074316 66.34342186537106,236.29804284521379 65.72081531805452,236.4430994030845 65.07597282272764,236.56397981854388 64.54231006803457,236.75738838955294 63.85299567645416,236.87826868798584 63.20815318101086,236.97497289424064 62.51883878943045,237.09585311161936 61.82952439773362,237.24090931296814 61.18468190252315,237.41014146598172 60.562075355206616,237.53102152131032 59.894996911636554,237.60354953288333 59.25015441630967,237.74860550739686 58.605311920982786,237.79695748447557 57.91599752928596,237.86948543661856 57.3156269302126,238.06289322982775 56.71525633102283,238.18377304199385 56.07041383581236,238.25630090772756 55.536751081002876,238.35300470344373 54.89190858555958,238.32882875719224 54.22483014210593,238.28047685933416 53.53551575052552,238.1595970831113 52.95738109946251,238.20794899898465 52.2680667078821,238.1595970831113 51.6232242124388,238.1354211224825 51.045089561492205,238.1354211224825 50.40024706616532,238.25630090772756 49.79987646697555,238.23212495425832 49.19950586790219,238.30465280916542 48.55466337245889,238.37718064786168 47.84311303275172,238.32882875719224 47.17603458929807,238.28047685933416 46.575663990108296,238.30465280916542 45.93082149478141,238.28047685933416 45.330450895708054,238.28047685933416 44.66337245213799,238.1595970831113 43.97405806055758,238.06289322982775 43.351451513241045,238.06289322982775 42.662137121660635,237.94201337260893 41.972822730080225,237.82113347033737 41.39468807913363,237.84530945442384 40.79431747994386,237.6760775282164 39.99382334772963,237.50684551388258 39.30450895614922,237.38596544959 38.70413835707586,237.24090931296814 38.0370599135058,237.09585311161936 37.392217418178916,236.90244474221254 36.72513897472527,236.78156445288914 36.124768375535496,236.63650804621284 35.479925880092196,236.46727548982017 34.9017912291456,236.32221894268878 34.234712785691954,236.17716233074316 33.634342186618596,236.00792953485507 33.056207535555586,235.86287278245436 32.43360098823905,235.6936398227117 31.81099444103893,235.50023061785032 31.16615194559563,235.37934980622958 30.56578134652227,235.18594041408505 30.00988264370244,235.06505948549602 29.409512044512667,234.92000231167185 28.742433600942604,234.7507688603364 28.008647313108668,234.53318286468857 27.363804817781784,234.41230169296614 26.696726374328136,234.21889172450756 26.051883879001252,234.09801043575862 25.495985176065005,233.95295282980078 24.828906732611358,233.78371887427056 24.16182828915771,233.5661322303058 23.51698579371441,233.39689807311515 22.872143298271112,233.17931116977707 22.24953675107099,232.93754777283175 21.62693020387087,232.76831328787375 21.026559604681097,232.6232550876157 20.49289684998803,232.45402043874492 19.870290302787907,232.2122565015743 19.292155651724897,232.04302163841203 18.714021000661887,231.80125739506911 18.09141445334535,231.5594929716317 17.513279802398756,231.317728368158 16.935145151335746,231.10014007097925 16.357010500272736,230.81002211460145 15.712168004945852,230.56825695279986 15.134033353882842,230.3506681531726 14.57813465106301,230.01219639720512 14.155651636887342,229.55284130657674 14.044471896253526,229.0209556526679 14.622606547200121,228.75501249881927 14.800494132214226,228.634129174985 14.155651636887342,228.94842572323978 14.155651636887342,229.60119450467755 14.555898702936247,230.01219639720512 15.022853613365442,230.30231506680138 15.578752316185273,230.64078652023454 16.223594811628573,230.8583751253027 16.77949351456482,231.07596358453156 17.33539221738465,231.36608130321838 17.935762816574425,231.5594929716317 18.536133415764198,231.7770809608628 19.114268066710792,231.9946688041382 19.73687461402733,232.18808009798522 20.337245213100687,232.429844053142 20.98208770842757,232.59907871464384 21.649166151997633,232.71996056166245 22.227300803060643,232.9617241206579 22.760963557753712,233.22766382756527 23.450277949334122,233.39689807311515 24.050648548523895,233.5903085312748 24.717726991977543,233.73536629931186 25.2069178505335,233.95295282980078 25.940704138367437,234.07383417256642 26.541074737440795,234.24306797687314 27.185917232884094,234.38812545320252 27.786287832073867,234.55735909359646 28.386658431147225,234.65406399135827 28.987029030337,234.84747370050172 29.60963557753712,234.99253090668935 29.987646695575677,235.28264512456371 30.721432983293198,235.37934980622958 31.410747374990024,235.45187829856877 32.05558987020049,235.64528753230115 32.65596046950668,235.81452051724773 33.03397158742882,235.52440677475533 33.10067943180911,234.92000231167185 33.078443483565934,234.43647793089622 33.078443483565934,233.8078951590287 33.10067943180911,233.13095850480022 33.10067943180911,232.57490233983845 33.10067943180911,232.01884522219189 33.078443483565934,231.46278715188964 33.1673872761894,230.78584560650052 33.1673872761894,230.13307920773514 33.21185917232651,229.4561348888965 33.18962322419975,228.8033658156928 32.72266831388697,228.36818570416654 32.12229771458078,228.19894883650704 31.54416306351777,228.078065305599 31.344039530609734,227.49782373043126 31.344039530609734,227.06264186828048 32.100061766570434,226.86922751995735 32.76714021002408,226.74834349378943 33.43421865347773,226.6274594225397 34.101297096931376,226.45822164713172 34.72390364424791,226.31316062662518 35.34651019156445,226.1922763932962 35.96911673876457,226.09556897418224 36.636195182218216,226.02303839099477 37.32550957379863,225.97468465977 37.970352069241926,225.8779771759 38.61519456456881,225.78126966315904 39.26003706001211,225.73291589593282 39.88264360721223,225.612031446537 40.52748610265553,225.63620833997265 41.19456454599276,225.612031446537 41.88387893757317,225.63620833997265 42.550957381143235,225.63620833997265 43.19579987647012,225.66038523166208 43.862878319923766,225.68456212154706 44.574428659747355,225.73291589593282 45.21927115507424,225.70873900968581 45.8196417541476,225.66038523166208 46.33106856083032,225.612031446537 46.95367510803044,225.66038523166208 47.576281655346975,225.70873900968581 48.24336009891704,225.7570927804336 48.95491043862421,225.78126966315904 49.599752933951095,225.7570927804336 50.177887585014105,225.78126966315904 50.77825818408746,225.80544654399273 51.31192093889695,225.7570927804336 52.090179122867994,225.85380030042143 52.75725756643806,225.90215404951596 53.424336009891704,225.90215404951596 54.113650401472114,225.92633092144388 54.758492896799,225.92633092144388 55.44780728837941,225.95050779156736 56.09264978382271,225.95050779156736 56.78196417540312,225.9988615262555 57.44904261897318,225.9988615262555 58.11612106242683,225.9988615262555 58.78319950599689,226.02303839099477 59.40580605319701,226.02303839099477 60.050648548523895,226.02303839099477 60.65101914759725,226.0472152538132 61.29586164304055,226.09556897418224 61.94070413836744,226.09556897418224 62.54107473755721,226.11974583167466 63.23038912913762,226.14392268730444 63.89746757259127,226.14392268730444 64.54231006803457,226.14392268730444 65.18715256336145,226.14392268730444 65.80975911067799,226.14392268730444 66.45460160588846,226.1680995412171 67.12168004945852,226.1680995412171 67.78875849291217,226.21645324351266 68.34465719584841,226.21645324351266 69.10067943180911,226.2406300919829 69.72328597900923,226.28898378353915 70.41260037058964,226.2648069387069 71.07967881404329,226.28898378353915 71.6578134651063,226.2406300919829 72.21371216804255,226.02303839099477 72.7696108709788,225.7570927804336 73.74799258809071,226.3615143073257 74.28165534278378,226.33733746784856 74.97096973436419,226.3615143073257 75.57134033355396,226.55492895821226 76.12723903649021,226.77252030259115 76.68313773942646,226.96593470853986 77.23903644224629,227.13517221913207 77.90611488581635,227.37693993840367 78.55095738114323,227.64288422151003 79.15132798021659,227.81212137910188 79.59604694251902,228.15059542952804 80.08523780107498,228.58577583287843 80.68560840026475,228.8758957775426 81.30821494746488,229.0934855658852 81.90858554665465,229.3352518262691 82.48672019771766,229.528664704907 83.08709079679102,229.72207746826462 83.75416924036108,229.91549011637107 84.33230389130767,229.81878380675334 84.91043854237068,229.60119450467755 85.2439777640393,229.1418388323218 85.5330450895708,228.60995250486303 86.0,228.65830584330251 85.62198888196144,228.46489244603436 85.31068560841959,228.99677901132964 84.82149474986363,229.38360505670425 84.28783199505415,229.6253711009631 83.73193329223432,229.72207746826462 83.08709079679102,229.60119450467755 82.4644842495909,229.43195828000898 81.84187770239078,229.2385453437455 81.26374305132776,229.0209556526679 80.64113650412764,228.8033658156928 80.04076590482146,228.58577583287843 79.52933909813873,228.2473022362392 79.12909203208983,227.86047483645962 78.59542927739676,227.66706096366397 77.90611488581635,227.49782373043126 77.26127239037305,227.25605610126513 76.63866584317293,227.0384650810156 76.06053119210992,226.86922751995735 75.52686843730044,226.57910578144947 74.88202594197355,226.38569114496931 74.23718344664667,226.3615143073257 73.6368128474569,226.33733746784856 72.99197035213001,226.28898378353915 72.39159975294024,226.2648069387069 71.79122915386688,226.45822164713172 71.14638665842358,226.31316062662518 70.56825200747699,226.31316062662518 69.83446571952663,226.28898378353915 69.50092649785802,226.4823984776158 69.52316244598478,226.4823984776158 69.18962322419975,226.72416668312508 69.32303891296033,227.1835257773928 69.21185917232651,227.88465156249003 68.67819641751703,227.7637679144682 68.18900555896107,227.57035398404696 67.63310685614124,227.37693993840367 67.03273625695147,227.49782373043126 66.54354539839551,227.83629810868297 66.03211859171279,227.66706096366397 65.9654107473325,227.13517221913207 65.92093885119539,226.60328260288225 65.34280420013238,226.60328260288225 64.6312538604252,226.67581305644126 64.45336627552751,227.1835257773928 64.36442248313688,227.7637679144682 64.29771463864017,228.34400901419576 64.20877084624954,228.9242490764882 64.11982705374248,229.43195828000898 64.43113032740075,229.72207746826462 64.52007411979139,230.3506681531726 64.69796170468908,230.9067281288444 65.07597282272764,231.36608130321838 65.67634342191741,231.68037520584767 66.1432983323466,231.94631596270483" stroke="#4DD2FF" stroke-linecap="round" stroke-linejoin="round" stroke-width="0.5"><title>2026-02-20 10.2km</title><desc>1200274899</desc></polyline><polyline fill="none" points="114.0,225.80220176870353 114.2210397052695,225.78617931624467 114.7957429389935,225.77015686259256 115.13467048708117,225.86629156653362 115.65042979945429,225.9303813452716 116.13671715103555,225.9784486668068 116.57879656163277,226.02651597760268 117.07981989358086,226.02651597760268 117.52189930417808,226.0745832776447 117.94924273435026,226.12265056696197 118.37658616452245,226.1707178455108 118.86287351610372,226.13867299430422 119.26074498565868,226.10662813836825 119.70282439625589,226.15469542049686 120.08595988532761,226.18674026928784 120.49856733524939,226.31491961669235 120.92591076542158,226.37900926172733 121.38272615638562,226.39503167003568 121.78059762588236,226.47514369350392 122.16373311501229,226.63536765094614 122.54686860420043,226.89172573457472 122.88579615222989,227.14808351262764 123.15104379854165,227.46853030544298 123.1805157593335,227.9011327183689 122.959476054064,228.28566746598517 122.59107654524269,228.41384556241974 122.13426115433685,228.41384556241974 121.72165370441508,228.34975652376306 121.30904625460971,228.3337342611194 120.89643880474614,228.36577878521348 120.55751125665847,228.3337342611194 120.26279164961306,228.26964519858302 119.92386410146719,228.28566746598517 119.65861645515542,228.34975652376306 119.58493655337952,228.3818010455143 118.73024969297694,228.49395683391776 118.00818665575935,228.59009032031463 117.74293900938937,228.92655718421156 117.65452312730486,229.26302352176572 117.65452312730486,229.7276666463731 118.02292263612617,229.98402104407432 118.40605812519789,230.16026451520156 118.77445763407741,230.30446361147915 119.12812116247369,230.4646847161348 119.51125665166182,230.72103823538055 119.85018419974949,230.99341351474868 120.15963978716172,231.1536341062165 120.58698321733391,231.0414797047124 120.89643880474614,230.84921488039254 121.22063037246699,230.8171707262809 121.82480556692462,230.99341351474868 122.37003683997318,231.1055679412966 122.84158821124583,231.1055679412966 123.31313958246028,231.1055679412966 123.81416291452479,231.0895458839368 124.24150634469697,231.05750176566653 124.68358575523598,231.00943557926803 125.14040114614181,230.96136938213021 125.58248055668082,230.88125902973115 125.99508800654439,230.76910448621493 126.4371674170834,230.64092779341445 126.8055669258465,230.43264050474681 126.90871878841426,230.04810959572205 126.92345476872288,229.6155115013098 126.84977486694697,229.2149569343601 126.82030290627154,228.766334933709 126.84977486694697,228.34975652376306 126.89398280798923,227.91715501321596 126.92345476872288,227.48455263252254 126.96766270976514,227.05194938165369 127.11502251331694,226.85968099083402 127.48342202208005,226.811613866259 127.881293491635,226.82763624233485 128.3823168235831,226.89172573457472 128.83913221448893,226.9237704735424 129.28121162502794,226.9397928412218 129.73802701593377,226.95581520772248 130.15063446585555,226.98785993715865 130.62218583707,227.00388230005046 131.03479328699177,226.97183757302992 131.44740073679714,226.97183757302992 131.8600081866607,227.00388230005046 132.31682357756654,227.01990466179268 132.7146950470633,227.03592702234164 133.09783053619321,227.08399409677077 133.49570200574817,227.13206116041692 133.90830945555354,227.22819525559316 134.3798608268262,227.32432930775394 134.8808841588325,227.35637398227118 135.29349160863785,227.4364856476168 135.63241915672552,227.51659728318918 136.0450266066473,227.64477583797998 136.53131395828677,227.70886508672265 136.85550552600762,227.83704352693167 137.23864101513755,227.91715501321596 137.5628325828584,228.23760066014074 137.5775685632252,228.68622376369603 137.53336062218295,229.0066682647157 137.84281620959518,229.15086813438393 138.3585755218519,229.1989347361232 138.8006549325073,229.24700132715225 139.19852640194586,229.31109009843203 139.5963978715008,229.37517885066336 140.06794924271526,229.35915666438814 140.5247646336793,229.37517885066336 140.92263610317605,229.35915666438814 141.37945149402367,229.40722321957583 141.8215309046209,229.42324540225673 142.21940237405943,229.50335629776237 142.64674580428982,229.56744499265915 143.04461727384478,229.64755583443912 143.44248874334153,229.69562232520548 143.88456815393874,229.75971096279682 144.32664756441955,229.82379958132515 144.76872697507497,229.88788818073226 145.12239050347125,229.95197676104726 145.57920589431887,230.01606532224105 145.99181334424065,230.08015386441548 146.3896848137374,230.16026451520156 146.8170282439678,230.2083308913716 147.15595579205547,230.30446361147915 147.62750716332812,230.36855206766631 148.0548505935585,230.4166183972702 148.52640196477296,230.48070682003163 148.96848137537017,230.54479522370093 149.38108882523375,230.62490570146474 149.86737617687322,230.70501614933892 150.2947196070454,230.76910448621493 150.69259107660037,230.83319280394062 151.10519852640573,230.8972811026033 151.50306999590248,230.96136938213021 151.93041342607467,231.00943557926803 152.3135489152628,231.0895458839368 152.72615636506816,231.1536341062165 153.12402783462312,231.2177223093895 153.56610724516213,231.24976640376553 154.00818665575935,231.31385457831493 154.42079410562292,231.3939647695952 154.86287351616193,231.45805290114367 155.26074498565868,231.57020708540222 155.68808841588907,231.61827314647962 156.0859598853276,231.65031718123646 156.58698321739212,231.74644925682514 157.02906262793113,231.810537283367 157.47114203841193,231.89064728963422 157.8690135080251,231.93871327910165 158.29635693825549,232.01882323766768 158.70896438806085,232.0668891984824 159.06262791651534,232.13097712952003 159.50470732705435,232.16302108787932 159.94678673765156,232.2271089903079 160.4036021284992,232.29119687358616 160.81620957836276,232.33926277354476 161.2140810478595,232.40335062345548 161.61195251741447,232.46743845423043 162.02455996727804,232.53152626592782 162.39295947604114,232.57959211218986 162.74662300455384,232.6436798904324 163.1592304543592,232.70776764965558 163.54236594354734,232.65970183204627 163.86655751126818,232.78787732179626 164.3233729021158,232.75583345649648 164.66230045026168,232.67572377245233 165.13385182153434,232.8038992526126 165.51698731072247,233.15638142930402 165.72329103562515,233.49284115000046 166.1211625050637,233.52488490550604 166.489562013885,233.52488490550604 166.9169054441154,233.5569286561804 167.3442488743458,233.58897240212536 167.75685632415116,233.60499427327886 168.2136717151152,233.6370380120643 168.67048710596282,233.6690817460476 169.0830945558846,233.70112547527242 169.48096602532314,233.70112547527242 169.79042161273537,233.41273174043454 169.9525173965958,233.02820615915698 170.14408514118986,232.67572377245233 170.58616455178708,232.81992118227936 170.98403602128383,232.9160527351196 171.42611543182284,232.93207465643354 171.85345886205323,232.94809657653968 172.2660663119168,232.99616232971312 172.73761768318946,233.02820615915698 173.17969709367026,233.04422807213268 173.60704052395886,233.076271894417 174.0049119934556,233.12433761892316 174.44699140399462,233.2685347280203 174.91854277526727,233.3326223010081 175.3016782644554,233.3646660803497 175.8174375767121,233.41273174043454 176.18583708559163,233.5729505297495 176.49529267294565,233.74919106015295 176.65738845680607,234.06962801823101 176.9668440441601,234.22984631820873 177.4089234547573,234.19780266773887 177.9099467867054,234.22984631820873 178.36676217766944,234.22984631820873 178.82357756857527,234.19780266773887 179.25092099880567,234.16575901253964 179.6487924682442,233.89338775034412 180.01719197706552,233.68510361129302 180.4445354072377,233.58897240212536 180.82767089642584,233.5729505297495 181.21080638555577,233.70112547527242 181.60867785505252,234.00554066475888 182.0212853049743,234.06962801823101 182.43389275477966,234.08564985357225 182.84650020464323,234.05360618163832 183.28857961524045,234.02156250490225 183.77486696682172,233.9574751372129 184.24641833809437,233.9094095988694 184.7032337290002,233.8773659006256 185.16004911990603,233.76521291938843 185.61686451081187,233.65305987965257 186.0,233.50886302835715 185.66107245185412,233.50886302835715 185.24846500204876,233.50886302835715 184.82112157181837,233.5729505297495 184.36430618091254,233.60499427327886 183.95169873104896,233.65305987965257 183.553827261494,233.65305987965257 183.09701187058818,233.70112547527242 182.6844044207828,233.73316919972422 182.2423250102438,233.79725663427962 181.77077363897115,233.76521291938843 181.31395824806532,233.58897240212536 180.90135079820175,233.5729505297495 180.503479328705,233.52488490550604 180.06139991810778,233.58897240212536 179.79615227179602,233.81327848996443 179.45722472370835,234.08564985357225 178.9856733524357,234.14973718313558 178.5435939418967,234.19780266773887 178.10151453129947,234.22984631820873 177.65943512070226,234.2618899639201 177.21735571016325,234.2618899639201 176.70159639784833,234.21382449359226 176.3184609087184,234.309955423465 175.89111747854622,234.2618899639201 175.55218993040035,234.05360618163832 175.4490380678908,233.6690817460476 175.31641424476402,233.28455662303895 174.90380679490045,233.25251283176476 174.46172738436144,233.17240333267546 174.01964797376422,233.1083157119574 173.5775685632252,233.06024998385692 173.15022513299482,233.09229380375473 172.72288170276443,233.02820615915698 172.36921817436814,233.02820615915698 171.9713467048714,232.99616232971312 171.544003274641,232.94809657653968 171.101923864102,232.9160527351196 170.68931641423842,232.81992118227936 170.3061809251085,232.65970183204627 170.01146131806308,232.8038992526126 169.8051575931022,233.20444713588222 169.5988538681995,233.52488490550604 169.1567744576023,233.60499427327886 168.69995906669647,233.58897240212536 168.24314367579063,233.5729505297495 167.8600081866607,233.58897240212536 167.46213671716396,233.50886302835715 167.03479328693356,233.3806879682379 166.62218583701178,233.30057851689344 166.44535407284275,233.04422807213268 166.25378632824868,232.78787732179626 165.98853868193692,232.62765794769803 165.5464592713979,232.53152626592782 165.1043798608007,232.40335062345548 164.66230045026168,232.29119687358616 164.20548505935585,232.27517490457103 163.74866966845002,232.27517490457103 163.306590257911,232.25915293433354 162.8645108473138,232.25915293433354 162.46663937775884,232.13097712952003 162.05403192795347,232.0668891984824 161.61195251741447,232.05086721273256 161.24355300859315,232.2271089903079 160.78673761762911,232.13097712952003 160.31518624641467,232.03484522581857 159.9025787964929,232.00280124833807 159.50470732705435,231.95473527320428 159.06262791651534,231.89064728963422 158.6058125255513,231.810537283367 158.19320507568773,231.74644925682514 157.78059762588236,231.74644925682514 157.35325419565197,231.73042724719562 156.9406467457884,231.73042724719562 156.54277527623344,231.57020708540222 156.24805566924624,231.50611898727948 155.7912402782822,231.44203087006463 155.3491608678014,231.36192069666868 154.90708145720419,231.31385457831493 154.479738027032,231.2017002603825 154.02292263606796,231.16965615877416 153.58084322552895,231.07352382538375 153.12402783462312,230.99341351474868 152.65247646335047,230.91330317426764 152.1809250920778,230.78512656742532 151.75358166190563,230.70501614933892 151.458862054802,230.73706032018526 151.07572656567208,230.72103823538055 150.60417519445764,230.64092779341445 150.11788784281816,230.56081732166058 149.66107245185412,230.4646847161348 149.24846500204876,230.4166183972702 148.80638559150975,230.35252995540213 148.30536225950345,230.25639725678775 147.86328284896445,230.2083308913716 147.43593941873405,230.12822025848436 146.94965206715278,230.04810959572205 146.47810069588013,229.96799890315742 146.05075726564974,229.9359546177584 145.62341383547755,229.87186603265582 145.18133442488033,229.77573311922606 144.73925501428312,229.69562232520548 144.2971756037441,229.599489332948 143.84036021289648,229.599489332948 143.30986492015654,229.47131194312533 142.86778550961753,229.40722321957583 142.4109701187117,229.31109009843203 141.93941874743905,229.1829125367658 141.51207531720866,229.2149569343601 141.1142038477701,229.1989347361232 140.68686041753972,229.1829125367658 140.25951698730933,229.15086813438393 139.8174375767121,229.15086813438393 139.4343020876404,229.2149569343601 138.96275071636774,229.11882372725813 138.53540728613734,229.0547348986729 138.27015963970916,228.79837939335266 138.0785918952315,228.3978233045491 137.84281620959518,228.07737789637758 137.47441670077387,227.9011327183689 137.07654523127712,227.8690881250368 136.6197298403713,227.7409097039199 136.16291444940725,227.67682046475238 135.77977896033553,227.64477583797998 135.3966434711474,227.54864192903915 134.969300040917,227.48455263252254 134.4535407286021,227.38841865200084 133.98198935732944,227.30830696872727 133.5251739663654,227.22819525559316 133.17151043802733,227.13206116041692 132.69995906669647,227.03592702234164 132.2873516168911,227.01990466179268 131.9189521080698,226.97183757302992 131.40319279575488,226.9397928412218 130.93164142448222,226.97183757302992 130.50429799425183,227.00388230005046 130.15063446585555,227.03592702234164 129.66434711415786,226.95581520772248 129.22226770367706,226.9237704735424 128.79492427344667,226.89172573457472 128.35284486284945,226.8436586171738 127.94023741298588,226.77956911060028 127.52762996312231,226.74752435012488 127.14449447399238,226.73150196811184 126.7171510438202,226.7154795849201 126.33401555463206,226.7154795849201 125.87720016372623,226.7154795849201 125.46459271386266,226.65139004014782 125.02251330332365,226.6193452605803 124.63937781419372,226.69945720049145 124.25624232500559,226.82763624233485 123.81416291452479,226.74752435012488 123.3278755628271,226.63536765094614 122.93000409338856,226.41105407709256 122.76790830946993,226.2668523703469" stroke="#4DD2FF" stroke-linecap="round" stroke-linejoin="round" stroke-width="0.5"><title>2026-02-01 11.1km</title><desc>1194862731</desc></polyline></svg>