<?xml version="1.0" encoding="utf-8" ?>
<svg baseProfile="full" height="300mm" version="1.1" viewBox="0,0,200,300" width="200mm" xmlns="http://www.w3.org/2000/svg" xmlns:ev="http://www.w3.org/2001/xml-events" xmlns:xlink="http://www.w3.org/1999/xlink"><defs /><rect fill="#222222" height="300" width="200" x="0" y="0" /><text fill="#FFFFFF" style="font-size:12px; font-family:Arial; font-weight:bold;" x="10" y="20">Over 10km Runs</text><text fill="#FFFFFF" style="font-size:4px; font-family:Arial" x="10" y="280">Runner</text><text fill="#FFFFFF" style="font-size:9px; font-family:Arial" x="10" y="290">rick</text><text fill="#FFFFFF" style="font-size:4px; font-family:Arial" x="65" y="280">SPECIAL TRACKS</text><rect fill="yellow" height="2.6" width="2.6" x="65" y="283" /><text fill="#FFFFFF" style="font-size:3px; font-family:Arial" x="70" y="285.5">Over 20.0 km</text><rect fill="red" height="2.6" width="2.6" x="65" y="287" /><text fill="#FFFFFF" style="font-size:3px; font-family:Arial" x="70" y="289.5">Over 40.0 km</text><text fill="#FFFFFF" style="font-size:4px; font-family:Arial" x="120" y="280">STATISTICS</text><text fill="#FFFFFF" style="font-size:3px; font-family:Arial" x="120" y="285">Number: 7</text><text fill="#FFFFFF" style="font-size:3px; font-family:Arial" x="120" y="290">Weekly: 1.0</text><text fill="#FFFFFF" style="font-size:3px; font-family:Arial" x="141" y="285">Total: 80.8 km</text><text fill="#FFFFFF" style="font-size:3px; font-family:Arial" x="141" y="290">Avg: 11.5 km</text><text fill="#FFFFFF" style="font-size:3px; font-family:Arial" x="167" y="285">Min: 10.2 km</text><text fill="#FFFFFF" style="font-size:3px; font-family:Arial" x="167" y="290">Max: 13.6 km</text><polyline fill="none" points="59.29590488766553,61.280360524498974 59.42430647293804,61.063183807826135 59.79524438572116,61.38894879791769 60.45151915459428,61.38894879791769 61.13632760901237,61.5130496124184 61.57859973580344,61.342410973404185 62.06367239099927,61.15625957127486 62.34900924703106,60.81498156847374 62.59154557459988,60.61331703115138 62.677146631409414,60.303063515311806 63.00528401584597,59.775631477255956 63.205019815068226,59.37230019358685 63.276354029076174,58.674224971357035 63.30488771467935,58.33294289965124 63.3619550858275,57.74345436700969 63.40475561423227,57.09191246777482 63.3619550858275,56.51793339078722 63.46182298549684,55.88190067313553 63.561690885107964,55.2924051994778 63.504623513901606,54.718421160505386 63.34768824308412,54.08238294428156 63.29062087187776,53.49288237435394 63.233553500671405,52.934406610103906 63.247820343472995,52.37592934741406 63.19075297226664,51.77091062183899 63.09088507265551,51.1658901375049 62.87688243063167,50.48330081306631 62.86261558783008,49.94033043360105 62.87688243063167,49.335304627922596 62.948216644639615,48.71476351295132 63.06235138711054,48.063193350913934 63.31915455748094,47.520216657590936 63.561690885107964,46.99275222758297 63.561690885107964,46.3411766741483 63.547424042306375,45.6585715253168 63.44755614263704,45.28624050045619 63.875561426742934,44.65017345850356 64.10383091151016,45.05353327159537 64.06103038310539,45.596516400779365 63.98969616909744,46.20155307586538 64.07529722590698,46.72901951124368 64.23223249672446,47.22545728793193 64.27503302512923,47.78394837125961 64.56036988116102,48.26487004759838 64.5746367239044,48.869898965145694 64.67450462351553,49.521466601639986 64.64597093797056,50.188545639961376 64.61743725236738,50.82459575509711 64.56036988116102,51.33653711884108 64.48903566715308,51.81745058619708 64.37490092474036,52.46900899523462 64.23223249672446,53.08953891712008 64.10383091151016,53.67904062940215 64.06103038310539,54.20648811470892 64.01822985470062,54.81149976082088 64.00396301195724,55.46304879775562 64.07529722590698,56.06805679164245 64.10383091151016,56.62652414836339 64.08956406870857,57.24704167638265 64.03249669750221,57.821018742979504 64.03249669750221,58.4415327104216 64.00396301195724,58.99999369973375 64.00396301195724,59.5894786741992 64.0467635403038,60.085885779117234 64.03249669750221,60.72190565246274 63.98969616909744,61.342410973404185 63.96116248349426,61.97842700799811 63.9183619551477,62.59892858393141 63.86129458388314,63.21942831054912 63.832760898338165,63.80890133793582 63.875561426742934,64.39837269642157 63.88982826942811,65.01886706023652 63.7899603699334,65.63935957491049 63.66155878466088,66.25985024048714 63.7899603699334,66.84931466003763 64.21796565386467,67.22160711789911 64.7315719947801,67.2526314593124 65.33077939233044,67.39224093857047 65.94425363279879,67.53185032425972 66.4721268163994,67.65594747735304 66.94293262879364,68.07477482310787 66.94293262879364,68.64872203985578 66.7289299867698,69.23817969676747 66.28665785997873,69.4863718952547 65.68745046237018,69.62597987687332 65.08824306476163,69.71905181262991 64.51756935275625,69.78109974670224 63.96116248349426,69.84314766226453 63.29062087187776,69.8586596382811 62.66287978866603,69.87417161313351 62.04940554819768,69.87417161313351 61.45019815058913,69.88968358679267 60.85099075298058,69.90519555936044 60.308850726578385,69.76558776492311 59.85231175692752,69.3157397905452 59.29590488766553,69.12959551691893 58.710964332916774,68.89691494085127 58.1402906209114,68.6642341047991 58.09749009250663,68.09028693086293 58.25442536326591,67.5473624724109 58.82509907532949,67.37672877886507 59.381505944475066,67.39224093857047 59.78097754291957,67.28365579612728 60.45151915459428,67.15955842116091 60.85099075298058,67.19058277181466 61.50726552179549,67.20609494541714 62.23487450461835,67.17507059706259 62.848348745086696,67.23711928917328 63.46182298549684,67.19058277181466 64.07529722590698,67.2526314593124 64.53183619549964,67.22160711789911 65.17384412157116,67.36121661795187 65.77305151917972,67.50082602439215 66.38652575958986,67.64043533726363 66.85733157204231,67.93516580146388 66.95719947159523,68.50911340296443 66.88586525764549,69.12959551691893 66.34372523118509,69.45534788661462 65.77305151917972,69.59495588904247 65.14531043596799,69.71905181262991 64.50330250989646,69.81212370681169 63.88982826942811,69.8586596382811 63.276354029076174,69.8586596382811 62.63434610306285,69.82763568509836 62.0351387054543,69.84314766226453 61.43593130784575,69.87417161313351 60.936591809790116,69.92070753073494 60.308850726578385,69.79661172731721 59.82377807138255,69.37778784481634 59.310171730525326,69.36227583297295 58.89643328927923,69.82763568509836 58.49696169089293,70.32401838109945 57.983355350093916,70.64976888231467 57.41268163808854,70.85142369910318 56.82774108322337,71.03756643361703 56.27133421396138,71.23922087489336 55.714927344815806,71.4408751209121 55.21558784681838,71.70457653258927 54.759048877167515,71.98378942804993 54.159841479500756,72.15441934658156 53.517833553487435,72.35607270635956 52.890092470275704,72.51119054251467 52.27661822986556,72.72835531910823 51.59180977544747,72.85244937540847 50.97833553503733,73.02307858219137 50.39339498017216,73.20921937556705 49.879788639373146,73.2712662697013 49.237780713359825,73.41087171397521 48.68137384415604,73.59701216075337 48.01083223253954,73.64354724646546 47.39735799207119,73.75212907262903 46.82668428006582,73.90724586896249 46.3130779392086,74.0933858720673 45.713870541600045,74.21747911507555 45.11466314399149,74.32606064202264 44.48692206077976,74.41913047722483 43.84491413476644,74.49668864140403 43.160105680290144,74.5742467767559 42.58943196828477,74.71385134756565 42.075825627485756,74.86896742759563 41.54795244388515,75.03959498216864 40.94874504621839,75.14817608054727 40.37807133421302,75.2567571222462 39.807397622207645,75.34982654149644 39.179656538995914,75.30329183705908 38.566182298527565,75.24124554829905 37.9812417437206,75.2567571222462 37.36776750331046,75.19471081958909 36.75429326284211,75.21022239698505 36.14081902249018,75.2567571222462 35.58441215316998,75.31880340634962 34.970937912818044,75.30329183705908 34.38599735801108,75.31880340634962 33.77252311760094,75.27226869501465 33.17331571999239,75.2567571222462 32.57410832226742,75.21022239698505 32.003434610320255,75.19471081958909 31.418494055513293,75.13266449850926 30.8620871862513,75.07061815893394 30.26287978858454,75.05510657113336 29.663672391034197,74.89999062972493 29.050198150565848,74.79140940203797 28.450990753015503,74.66731650099973 27.866050198150333,74.45015374635113 27.32391017174814,74.32606064202264 26.781770145345945,74.20196746372676 26.211096433282364,74.07787421150715 25.65468956407858,73.93826921436994 25.084015852073207,73.81417580504785 24.513342140067834,73.64354724646546 23.928401585202664,73.48843025371025 23.35772787319729,73.28677799036086 22.78705416113371,73.1471724629373 22.216380449128337,72.96103161407518 21.631439894321375,72.82142586827104 21.075033025059383,72.68182002885442 20.50435931305401,72.5577258708363 19.947952443850227,72.38709628280776 19.391545574646443,72.27851374489546 18.835138705384452,72.09237211963045 18.307265521783847,71.92174215029809 17.736591809720267,71.73560020615696 17.18018494057469,71.56496994446206 16.6237780713127,71.3633158186276 16.081638044910505,71.16166149750643 15.56803170411149,70.97551887393638 15.0116248348495,70.7428403604863 14.483751651248895,70.52567351335892 13.955878467590082,70.41709000487754 13.442272126849275,70.10685109721089 13.05706737114815,69.62597987687332 13.028533685603179,69.47085989147308 13.356671070039738,69.88968358679267 13.770409511227626,70.15338696278923 14.298282694886439,70.41709000487754 14.826155878487043,70.66528079821728 15.382562747690827,70.88244749973819 15.924702774151228,71.05307832064864 16.424042272090446,71.23922087489336 16.95191545574926,71.456386977894 17.53685601055622,71.6270173285302 18.064729194156826,71.76662387505348 18.606869220617227,71.93725397146773 19.23461030382896,72.16993115037621 19.81955085863592,72.37158449513663 20.390224570641294,72.49567876406945 20.960898282704875,72.6352847282833 21.51730515185045,72.79040235649154 22.145046235178597,72.91449637588812 22.75852047558874,73.11614899965934 23.314927344792522,73.25575454790669 23.928401585202664,73.41087171397521 24.541875825612806,73.53496536365128 25.141083223221358,73.5504770646512 25.12681638041977,72.96103161407518 25.01268163806526,72.41811985467211 24.969881109602284,71.82867119900766 24.927080581255723,71.33229208964622 24.969881109602284,70.7428403604863 25.09828269481659,70.0292912980658 25.198150594485924,69.34676382000907 24.855746367189568,68.91242698737187 24.29933949804399,68.7728185273445 23.70013210043544,68.67974616862193 23.257859973586164,68.6642341047991 23.643064729170874,68.64872203985578 24.05680317041697,68.29194422632281 24.427741083258297,67.98170215242135 25.05548216641182,67.87311731735826 25.554821664467454,67.71799602620013 26.125495376472827,67.609411053636 26.71043593127979,67.50082602439215 27.30964332894655,67.39224093857047 27.92311756935669,67.33019229270576 28.53659180982504,67.2526314593124 29.135799207375385,67.15955842116091 29.749273447843734,67.11302188644186 30.305680317047518,67.12853406582144 30.8620871862513,67.09750970588357 31.432760898314882,67.09750970588357 32.031968295923434,67.09750970588357 32.645442536333576,67.09750970588357 33.24464993394213,67.12853406582144 33.84385733155068,67.06648534134729 34.45733157196082,67.12853406582144 35.07080581242917,67.12853406582144 35.72708058124408,67.19058277181466 36.283487450447865,67.15955842116091 36.85416116245324,67.15955842116091 37.48190224572318,67.19058277181466 38.095376486191526,67.22160711789911 38.73738441214664,67.28365579612728 39.30805812421022,67.29916796281759 39.93579920736374,67.3146801283583 40.520739762228914,67.3146801283583 41.134214002639055,67.34570445587451 41.79048877151217,67.37672877886507 42.361162483517546,67.34570445587451 42.9461030382663,67.34570445587451 43.55957727867644,67.36121661795187 44.14451783354161,67.40775309715536 44.743725231150165,67.40775309715536 45.328665786015335,67.46980171994073 45.899339498078916,67.4387774108618 46.49854689562926,67.4542895659979 47.11202113609761,67.4542895659979 47.44015852047596,67.71799602620013 47.09775429323781,68.22989584848983 46.5841479524388,68.54013755256892 46.17040951125091,68.81935469106247 45.82800528407097,69.36227583297295 45.38573315722169,69.78109974670224 45.414266842766665,70.3395303212892 45.728137384401634,70.7583522694913 46.17040951125091,71.02205454543582 46.698282694851514,71.19268525192456 47.283223249716684,71.23922087489336 47.82536327611888,71.05307832064864 48.296169088513125,70.80488798950682 48.7241743725026,70.3395303212892 48.9952443857328,69.82763568509836 49.38044914131751,69.37778784481634 49.879788639373146,69.42432387333247 50.25072655221447,69.59495588904247 50.77859973581508,69.65700386009121 50.921268163772766,69.05203535377223 50.83566710696323,68.46257716992113 50.80713342141826,67.950677919609 50.77859973581508,67.53185032425972 50.76433289301349,67.03546097216895 50.76433289301349,66.47702153657156 50.7500660502119,65.93409287161194 50.7500660502119,65.37565048212127 50.72153236460872,65.01886706023652 51.09247027739184,64.5690088308038 51.66314398945542,64.52247171710769 52.191017173056025,64.52247171710769 52.60475561430212,64.58452119970752 53.36089828266995,64.70862010946439 53.888771466270555,64.72413246800716" stroke="#4DD2FF" stroke-linecap="round" stroke-linejoin="round" stroke-width="0.5"><title>2026-04-05 13.6km</title><desc>1215528339</desc></polyline><polyline fill="none" points="133.46046511630993,56.81970433180686 133.3976744186366,56.671779850978055 133.60697674419498,56.88797712077212 133.05232558143325,57.11555286361545 133.0104651162983,56.762810317697586 133.3872093023965,57.149689195808605 133.5965116279549,57.34312826732639 134.0674418605049,57.71862694207812 134.49651162791997,57.77552060013113 134.89418604655657,57.82103551131149 135.3337209302117,57.84379296185216 135.76279069768498,57.88930785267439 136.20232558139833,57.90068657325173 136.64186046516988,57.90068657325173 137.05000000004657,57.93482272993424 137.3011627907399,58.003095020438195 137.73023255815497,58.04860986379208 138.20116279070498,58.1282608070469 138.59883720934158,58.105503398925066 138.99651162791997,58.253426491093705 139.3523255814216,58.4810001993028 139.72906976746162,58.754088201516424 139.87558139540488,59.038554351296625 139.68720930238487,59.37991303164745 139.28953488380648,59.482320487019024 138.80813953495817,59.47094188423944 138.3895348837832,59.448184676177334 137.9918604651466,59.47094188423944 137.6046511628083,59.47094188423944 137.23837209306657,59.55059208572493 136.86162790702656,59.573349278536625 136.48488372098655,59.482320487019024 135.99302325583994,59.63024224569381 135.8360465116566,60.01711386042007 135.75232558138669,60.40398449523491 136.11860465118662,60.64293351545348 136.49534883722663,60.79085415016743 136.88255813956494,60.96153162761766 137.22790697676828,61.166344348777784 137.5104651162983,61.43942754980526 137.93953488377156,61.496319821919315 138.41046511632157,61.337021406623535 138.74534883722663,61.42804909286497 139.1639534884016,61.46218446119747 139.60348837211495,61.484941369169974 140.03255813958822,61.45080600591609 140.4406976744649,61.42804909286497 140.8383720931015,61.38253525651817 141.25697674421826,61.31426447661943 141.68604651163332,61.223236722595175 142.1046511628083,61.10945195378736 142.35581395350164,60.84774666384328 142.40813953487668,60.46087715301837 142.35581395350164,60.05124954407802 142.31395348836668,59.60748506139498 142.34534883720335,59.15234066284029 142.37674418604,58.71995222796977 142.54418604657985,58.424106804057374 142.94186046510004,58.37859207257861 143.39186046511168,58.43548548479157 143.83139534888323,58.469621521944646 144.27093023259658,58.4810001993028 144.6581395349349,58.52651490023709 145.0244186046766,58.49237887580239 145.422093023255,58.469621521944646 145.8302325581899,58.51513622626953 146.25930232560495,58.5720295876381 146.6151162791066,58.69719490800344 147.02325581398327,58.60616559429036 147.4941860465333,58.70857356840861 147.94418604654493,58.79960282110551 148.3627906977199,58.86787472500873 148.72906976746162,58.95890388276894 149.11627906979993,59.04993298626505 149.40930232562823,59.24336965105613 149.45116279070498,59.64162083661358 149.52441860473482,59.994356733732275 149.95348837209167,60.00573529749818 150.37209302326664,60.085385220110766 150.78023255820153,60.130899442970986 151.1988372093183,60.17641365223972 151.56511627911823,60.25606348585279 151.96279069769662,60.23330639478809 152.40232558140997,60.221927847960615 152.82093023258494,60.26744203011913 153.2604651162983,60.290199116119766 153.6581395349349,60.34709181627841 154.0348837209749,60.41536302847089 154.38023255817825,60.50639126395981 154.78837209311314,60.563283883573604 155.22790697676828,60.62017648202891 155.63604651170317,60.68844757214538 156.07558139541652,60.7453401239909 156.4837209302932,60.80223265457607 156.89186046516988,60.87050366336189 157.2686046512099,60.938774641632335 157.68720930238487,60.99566710020008 158.09534883720335,61.05255953759479 158.50348837213824,61.098073472225224 158.9220930233132,61.17772282521764 159.35116279072827,61.25737213669345 159.73837209306657,61.337021406623535 160.13604651170317,61.41667063503701 160.61744186055148,61.45080600591609 161.03604651166825,61.51907672479865 161.45465116284322,61.58734741319495 161.8627906977199,61.63286118848191 162.22906976751983,61.71251026261598 162.6476744186948,61.79215929521888 163.08720930234995,61.849051435958245 163.5162790698232,61.92870039737318 163.98720930237323,61.97421407094225 164.4058139535482,62.03110614384059 164.82441860472318,62.099376603378914 165.26395348843653,62.1448902261036 165.65116279071663,62.1904038352659 166.04883720935322,62.258674223616254 166.4569767442299,62.32694458142214 166.81279069773154,62.36107974888 167.32558139541652,62.42935006093467 167.733720930235,62.49762034248852 168.16279069770826,62.57726896570239 168.59186046518153,62.588647337062866 168.98953488375992,62.77070116349205 169.3872093023965,62.63416081399191 169.76395348843653,62.80483623180771 169.92093023261987,63.12342983475537 170.36046511633322,63.203078131671646 170.84186046518153,63.191699806106044 171.27093023259658,63.22583478031447 171.68953488377156,63.2485914255667 172.09767441864824,63.282726387056755 172.5162790698232,63.29410470589937 172.86162790702656,63.191699806106044 172.9348837209982,62.816214586186106 173.21744186047,62.588647337062866 173.63604651164496,62.759322805693955 174.04418604657985,62.78207952041703 174.43139534885995,62.77070116349205 174.86046511633322,62.80483623180771 175.28953488380648,62.7934578765271 175.68720930238487,62.86172799534688 176.11627906979993,62.94137642871647 176.55581395351328,62.98688980055158 176.95348837214988,63.08929483764223 177.34069767442998,63.134808165443246 177.7069767442299,63.33961797264055 177.87441860465333,63.692345330215176 178.35581395350164,63.74923676325125 178.73255813959986,63.703723618542426 179.11976744193817,63.68096704108757 179.50697674421826,63.658210460227565 179.8627906977781,63.385131225848454 180.2500000000582,63.23721310336259 180.6476744186366,63.14618649528711 180.99302325583994,63.31686134095071 181.35930232563987,63.54442750522867 181.74651162797818,63.53304920505616 182.13372093031649,63.49891429950367 182.46860465122154,63.45340108023083 182.86627906979993,63.430644465450314 183.2953488372732,63.407887847337406 183.71395348844817,63.33961797264055 184.10116279072827,63.2599697469268 184.4779069768265,63.134808165443246 184.8441860465682,63.134808165443246 185.29418604657985,62.964133116343874 185.7337209302932,62.85034964432998 185.98488372098655,62.64553918114689 186.4034883721033,62.565890593483346 186.8011627907399,62.52037709619617 186.86395348841324,62.543133846556884 186.4348837209982,62.64553918114689 185.97441860474646,62.759322805693955 185.52441860473482,62.86172799534688 185.08488372096326,62.964133116343874 184.68720930238487,63.08929483764223 184.2686046512099,63.1689431523846 183.8813953488716,63.282726387056755 183.42093023261987,63.36237460092525 182.97093023255002,63.407887847337406 182.5000000000582,63.430644465450314 182.06046511634486,63.464779386282316 181.61046511633322,63.51029260222276 181.16046511632157,63.44202277326258 180.77325581398327,63.203078131671646 180.3546511628083,63.15756482422876 179.92558139539324,63.21445645642234 179.6639534884016,63.52167090405419 179.22441860468825,63.624075582658406 178.7744186046766,63.658210460227565 178.33488372102147,63.692345330215176 177.87441860465333,63.68096704108757 177.4244186046999,63.692345330215176 177.0162790698232,63.58994069742039 176.85930232558167,63.21445645642234 176.67093023261987,62.94137642871647 176.27325581398327,62.8844846948341 175.8651162791066,62.87310634549067 175.4569767442299,62.82759293974959 174.9860465116799,62.78207952041703 174.43139534885995,62.7479444470373 174.0023255814449,62.713809366032365 173.55232558143325,62.66829591280839 173.10232558147982,62.508998719757074 172.76744186051656,62.39521490872721 172.4325581396115,62.1904038352659 171.99302325589815,61.99697090264817 171.5430232558865,61.91732197684178 171.17674418608658,62.03110614384059 170.73720930237323,61.96283565383055 170.24534883728484,61.88318671019806 169.81627906981157,61.83767300948966 169.8058139535715,62.281431012932444 169.5023255814449,62.32694458142214 169.08372093026992,62.258674223616254 168.68604651163332,62.38383652297489 168.34069767448818,62.531755471776705 167.84883720934158,62.44072844329639 167.3569767442532,62.37245813634945 166.88604651170317,62.30418779885804 166.4465116279316,62.24729582766304 166.03837209305493,62.21316063476843 165.63023255823646,62.15626862968202 165.16976744186832,62.08799819558044 164.6988372093765,62.03110614384059 164.26976744190324,61.97421407094225 163.8197674418916,61.88318671019806 163.38023255817825,61.81491615406412 162.91976744192652,61.73526713333558 162.48023255821317,61.67837495020649 162.04069767444162,61.62148274593346 161.5802325581899,61.53045517501596 161.11976744193817,61.46218446119747 160.7011627907632,61.39391371687816 160.21976744191488,61.31426447661943 159.76976744190324,61.234615194800426 159.35116279072827,61.21185824951681 158.84883720934158,61.10945195378736 158.41976744192652,61.05255953759479 157.99069767445326,60.99566710020008 157.56162790698,60.96153162761766 157.08023255813168,60.881882161877 156.61976744193817,60.82498966091953 156.14883720932994,60.7453401239909 155.67790697677992,60.68844757214538 155.24883720936486,60.60879796399968 154.76744186051656,60.529148314351914 154.35930232563987,60.49501273747592 153.86744186049327,60.38122742618725 153.43837209307821,60.3357132779347 152.98837209306657,60.26744203011913 152.54883720929502,60.278820573556004 152.0779069768032,60.23330639478809 151.6069767442532,60.19917075180274 151.16744186048163,60.187792202443234 150.65465116285486,60.11952088853286 150.20465116284322,60.06262810360931 149.70232558139833,60.01711386042007 149.30465116281994,59.94884247019945 148.8651162791066,59.903328193104244 148.40465116279665,59.8464353276504 147.954651162785,59.800921020054375 147.4837209302932,59.755406698881416 147.06511627911823,59.72127094909956 146.6046511628083,59.61886365394457 146.17558139539324,59.51645629016275 146.29069767444162,59.08406888607715 146.36395348847145,58.68581624675426 145.9244186046417,58.549272245625616 145.46395348844817,58.49237887580239 145.0348837209749,58.549272245625616 144.58488372096326,58.52651490023709 144.17674418608658,58.537893573375186 143.6744186046999,58.51513622626953 143.1825581395533,58.446864164681756 142.72209302330157,58.37859207257861 142.25116279075155,58.34445601508196 141.81162790698,58.33307732753747 141.36162790696835,58.28756256894849 140.90116279077483,58.23066910164198 140.4511627907632,58.16239691287046 140.39883720932994,57.80965678481152 140.10581395350164,57.491052097902866 139.7604651162983,57.25209814653499 139.34186046518153,57.1838255203329 139.03837209305493,57.195204293500865 138.69302325585159,57.17244674633548 138.31627906975336,57.2179618372611 137.95000000001164,57.28623444818368 137.5941860465682,57.28623444818368 137.23837209306657,57.25209814653499 136.87209302332485,57.26347691460978 136.5162790698232,57.331749505203334 136.16046511632157,57.32037074222171 136.0348837209749,57.02452260717109 136.045348837215,56.70591628237162 136.0244186046766,56.35317279028823 135.6476744186366,56.30765744163364 135.31279069773154,56.29627860232722 134.9569767442299,56.27352092124056 134.62209302326664,56.28489976222045" stroke="#4DD2FF" stroke-linecap="round" stroke-linejoin="round" stroke-width="0.5"><title>2026-03-29 12.7km</title><desc>1213129398</desc></polyline><polyline fill="none" points="51.81742940598633,114.38310384197393 51.764849074941594,114.45456777448999 51.67283349559875,114.69754494585504 51.97517039917875,115.41218190145446 52.61927945475327,115.4836454506003 53.18451801361516,115.4550600341463 53.72346640698379,115.42647461342858 54.19668938656105,115.28354744594253 54.72249269718304,115.39788918844715 55.07740993180778,115.81237743372913 55.26144109049346,116.1839868232928 55.8003894839203,116.28403538210841 56.234177215141244,116.32691331990645 56.667964946478605,116.44125444053498 57.16747809149092,116.56988811978954 57.82473222981207,116.56988811978954 58.3636806231807,116.62705861621362 58.81061343714828,116.92720344291592 59.25754625123227,117.27022552701237 59.612463485857006,117.69900226962636 59.86222005839227,118.12777805392398 60.20399221032858,118.39933555497555 60.58519961044658,118.48509047542757 61.203018500469625,118.58513783420494 61.82083739043446,118.6851851408428 62.34664070105646,118.75664747074188 62.68841285293456,118.28499560138152 62.78042843233561,117.69900226962636 62.81986368057551,117.14159231734811 62.95131450827466,117.08442197425757 62.92502434272319,117.72758735172101 62.85929892887361,118.37075057298352 63.24050632904982,118.58513783420494 63.76630963967182,118.64230773008603 64.27896786754718,118.69947760892683 64.79162609542254,118.72806254195166 65.3437195715378,118.84240223151573 65.85637779941317,118.89957205072278 66.40847127558663,118.98532674759917 66.88169425504748,119.12825115723535 66.98685491719516,119.59990095354442 66.92112950334558,120.11442668169911 66.4347614410799,120.24305789815844 65.93524829595117,120.31451964781445 65.43573515093885,120.3859813708259 64.94936708861496,120.4717354033346 64.41041869518813,120.5289047370461 63.85832521907287,120.51461240521166 63.3062317428994,120.457443067251 62.806718597828876,120.24305789815844 62.42551119765267,120.37168902836856 61.755111976584885,120.51461240521166 61.18987341772299,120.61465870565735 60.59834469325142,120.68612031689554 60.01996105158469,120.74328958672413 59.38899707881501,120.74328958672413 58.83690360269975,120.74328958672413 58.28481012652628,120.75758190151828 57.73271665041102,120.75758190151828 57.14118792593945,120.77187421525014 56.667964946478605,120.7861665278906 56.22103213239461,120.37168902836856 55.72151898732409,120.04296485755185 55.20886075950693,119.8857487506757 54.7093476143782,119.6284857524297 54.69620253163157,119.02820408166735 54.85394352476578,118.54226040114008 55.40603700093925,118.48509047542757 55.94498539430788,118.41362804440723 56.20788704964798,118.28499560138152 56.82570593961282,118.29928809929697 57.35150925023481,118.38504306448158 57.89045764360344,118.45650550621212 58.53456669911975,118.39933555497555 59.047224926936906,118.51367544045206 59.5730282375589,118.4707979913801 60.28286270686658,118.48509047542757 60.900681596889626,118.52796792129811 61.49221032130299,118.6280152577092 62.04430379741825,118.6851851408428 62.556962025293615,118.74235500689247 62.806718597828876,119.28546788482345 62.872444011620246,119.82857922530093 62.556962025293615,120.27164260121936 62.08373904571636,120.44315073007601 61.518500486796256,120.55748939751356 60.94011684518773,120.64324335333367 60.34858812071616,120.71470495394897 59.757059396244586,120.74328958672413 59.11295034078648,120.74328958672413 58.52142161631491,120.75758190151828 58.008763388497755,120.75758190151828 57.46981499507092,120.77187421525014 56.90457643620903,120.77187421525014 56.37877312558703,120.62895103004121 55.918695228756405,120.24305789815844 55.55063291138504,120.5289047370461 55.19571567670209,121.0434279738256 54.76192794542294,121.4293194959464 54.23612463485915,121.6151188408985 53.762901655281894,121.80091800593073 53.28967867576284,122.00100921319972 52.77702044788748,122.20110021185246 52.14605647517601,122.42977538329433 51.69912366109202,122.64415810904757 51.12074001948349,122.84424843695888 50.64751703990623,123.04433855621028 50.08227848098613,123.18725994220586 49.556475170422345,123.35876546490181 48.99123661144404,123.53027083430788 48.399707886972465,123.70177605038043 47.83446932811057,123.81611277596676 47.2035053553991,123.93044943340647 46.651411879225634,124.05907809158089 46.112463485857006,124.21629077893158 45.52093476138543,124.28775104880333 44.91626095416723,124.38779538185918 44.37731256085681,124.53071576720686 43.79892891913187,124.64505199879932 43.220545277465135,124.75938816231792 42.65530671860324,124.90230827085907 42.0769230768783,125.0023522835254 41.459104186913464,125.10239624406677 40.89386562805157,125.20244015239587 40.341772151878104,125.316775983767 39.81596884125611,125.41681978033739 39.27702044788748,125.51686352473916 38.68549172341591,125.61690721698687 38.120253164554015,125.73124280142656 37.541869522829074,125.73124280142656 36.96348588122055,125.73124280142656 36.411392404988874,125.70265891170129 35.84615384612698,125.70265891170129 35.25462512165541,125.70265891170129 34.70253164554015,125.74553474469576 34.17672833491815,125.77411862800363 33.59834469325142,125.77411862800363 33.07254138268763,125.78841056805686 32.4941577410209,125.75982668688812 31.902629016549326,125.71695085708052 31.28481012652628,125.64549111947417 30.70642648485955,125.60261526417162 30.128042843192816,125.54544744214218 29.575949367077556,125.50257156447333 28.97127555985935,125.38823584375496 28.379746835445985,125.30248400858545 27.814508276525885,125.20244015239587 27.249269717605785,125.05952026737214 26.684031158685684,124.8737242576899 26.15822784806369,124.7736801779829 25.60613437194843,124.64505199879932 25.040895813086536,124.5021316986531 24.488802336913068,124.38779538185918 23.94985394354444,124.24487489007879 23.38461538462434,124.07337015939993 22.845666991197504,123.95903358711803 22.31986368057551,123.81611277596676 21.78091528726509,123.71606814478582 21.22882181109162,123.53027083430788 20.689873417722993,123.38734970380028 20.137779941549525,123.27301272271143 19.559396299882792,123.1443835375976 19.020447906514164,123.0300464117754 18.389483933744486,122.80137195567659 17.88997078873217,122.61557375945267 17.3773125607986,122.486944133605 16.851509250176605,122.30114563288225 16.312560856866185,122.11534695225419 15.799902628990822,121.92954809169169 15.260954235622194,121.70087232402875 14.748296007805038,121.50078080374806 14.248782862734515,121.28639680046763 13.736124634859152,121.11488942537108 13.249756572535262,120.72899727085314 13.01314508280484,120.28593495114183 13.512658227817155,120.08584195523872 13.052580331102945,120.300227300002 13.210321324237157,120.81475115004287 13.65725413832115,121.0863048479514 14.156767283333465,121.24351997108897 14.603700097359251,121.47219628380844 15.182083739025984,121.70087232402875 15.747322297946084,121.90096363564953 16.19425511197187,122.1010547385813 16.706913339789025,122.32973002930521 17.32473222981207,122.50123631850875 17.78481012652628,122.68703462545818 18.310613437148277,122.80137195567659 18.941577409917954,123.00146211966057 19.559396299882792,123.2015520749701 20.098344693309627,123.35876546490181 20.663583252229728,123.50168661672797 21.268257059389725,123.67319185835368 21.78091528726509,123.80182068898284 22.385589094425086,123.87328111322131 23.029698149941396,124.04478602269955 23.634371957101393,124.21629077893158 24.225900681572966,124.21629077893158 24.199610516021494,123.65889976073231 24.2390457643196,123.1443835375976 24.225900681572966,122.61557375945267 24.212755598826334,121.97242476779502 24.31791626091581,121.27210452508007 24.357351509213913,120.61465870565735 24.278481012617704,120.04296485755185 23.739532619249076,119.82857922530093 23.279454722476657,119.65707054703671 23.174294060328975,119.2568830348464 23.818403115845285,119.02820408166735 24.370496592018753,118.89957205072278 24.856864654342644,118.77093993351446 25.44839337875601,118.6851851408428 25.974196689378005,118.61372278429917 26.513145082746632,118.52796792129811 27.025803310621995,118.41362804440723 27.604186952288728,118.3278730919701 28.18257059395546,118.2564106023201 28.866114897769876,118.28499560138152 29.510223953227978,118.37075057298352 30.062317429401446,118.35645808035042 30.64070107100997,118.35645808035042 31.192794547241647,118.3278730919701 31.784323271655012,118.34216558668413 32.33641674777027,118.38504306448158 32.90165530669037,118.34216558668413 33.51947419665521,118.35645808035042 34.15043816936668,118.41362804440723 34.74196689383825,118.44221301998186 35.33349561825162,118.44221301998186 35.92502434272319,118.45650550621212 36.46397273609182,118.44221301998186 37.02921129501192,118.45650550621212 37.633885102230124,118.45650550621212 38.2648490749998,118.48509047542757 38.85637779941317,118.48509047542757 39.46105160663137,118.52796792129811 40.06572541384958,118.52796792129811 40.6441090554581,118.55655287989066 41.22249269718304,118.54226040114008 41.82716650440125,118.55655287989066 42.35296981502324,118.55655287989066 42.93135345663177,118.58513783420494 43.49659201555187,118.58513783420494 44.022395326173864,118.5994303097832 44.57448880234733,118.61372278429917 44.79795520933112,118.87098714323656 44.53505355399102,119.28546788482345 43.98296007787576,119.57131615042454 43.562317429401446,119.8857487506757 43.25998052576324,120.34310434019426 42.8656280428404,120.75758190151828 42.95764362224145,121.35785816151474 43.4308666017605,121.7723335307237 43.87779941572808,122.05817809126165 44.52190847124439,122.1010547385813 45.07400194735965,121.98671699101396 45.58666017523501,121.74374905122386 45.954722492722794,121.32927362030023 46.270204479049426,120.85762807528954 46.54625121713616,120.40027371222095 47.15092502429616,120.34310434019426 47.5058422589791,120.84333576794597 47.90019474196015,120.50032007230038 48.00535540410783,119.94291825896653 47.90019474196015,119.3283451518364 47.88704965915531,118.72806254195166 47.913339824648574,118.17065557961178 47.87390457640868,117.64183209261682 47.860759493662044,117.11300714792742 47.87390457640868,116.55559549303143 47.97906523855636,115.98388954914117 48.54430379741825,115.85525547692669 49.01752677699551,115.88384083377605 49.49074975651456,115.89813351059274 49.924537487793714,115.88384083377605 50.47663096396718,115.98388954914117 50.8972736124997,115.98388954914117 51.09444985393202,115.79808475050959" stroke="#4DD2FF" stroke-linecap="round" stroke-linejoin="round" stroke-width="0.5"><title>2026-03-22 12.3km</title><desc>1210184584</desc></polyline><polyline fill="none" points="171.73913043481298,114.24916404593387 171.50170981924748,114.22048069388256 171.52808988763718,114.1487722950842 171.60723009286448,114.29218906599272 171.58085002441658,114.77980528774788 171.83146067417692,115.33912825630978 172.22716170008061,115.45386097204755 172.66243282851065,115.48254414029361 173.0449438202195,115.46820255668717 173.42745481192833,115.43951938631653 173.80996580363717,115.45386097204755 174.1397166585084,115.48254414029361 174.39032730826875,115.62595991743729 174.73326819733484,115.69766776592587 174.99706888129003,115.9414742510271 175.0893991207122,116.14225583038933 175.41914997558342,116.31435416034947 175.7884709330392,116.30001263870508 176.105031753832,116.37172023612948 176.3952125061187,116.38606175238965 176.68539325840538,116.47211082759895 177.01514411333483,116.5438183608785 177.39765510504367,116.60118436830817 177.8065461651422,116.58684286804055 178.1758671226562,116.64420886264998 178.51880801172229,116.81630674377084 178.88812896923628,117.03142887887952 179.20468978991266,117.27523367470712 179.46849047380965,117.5477210222598 179.62677088420605,117.92059782017895 179.8510014655767,118.22176701432909 180.18075232050614,118.39386348515109 180.49731314118253,118.45122894122323 180.89301416708622,118.52293573733186 181.27552515879506,118.5803011549433 181.6580361504457,118.65200790289964 182.0273571079597,118.75239730523026 182.38348803127883,118.79542131876224 182.64728871523403,118.52293573733186 182.72642892040312,118.12137733530835 182.76599902298767,117.74850092626002 182.80556912557222,117.37562379500014 182.84513922815677,117.00274594142684 182.92427943326766,117.24655077356147 182.88470933074132,117.5907453050313 182.87151929654647,117.9636220196262 182.87151929654647,118.35083938187745 183.0429897410795,118.53727709330269 183.3595505618141,118.5803011549433 183.76844162191264,118.62332520693599 184.11138251103694,118.65200790289964 184.49389350274578,118.68069059462869 184.8764044943964,118.73805596522288 185.2721055203001,118.79542131876224 185.62823644356104,118.85278665518854 186.01074743526988,118.91015197451634 186.35368832433596,118.98185859961086 186.72300928184995,119.0822478299524 186.9736199316685,119.2686848330195 187.0,119.59853447313071 186.9736199316685,119.98574854688195 186.7361993160448,120.20086714024364 186.39325842697872,120.24389083008282 186.05031753785443,120.28691451027407 185.68099658034043,120.32993818087562 185.33805569121614,120.38730306003708 185.02149487059796,120.4446679221146 184.62579384463606,120.47335034674325 184.26966292131692,120.516373975639 183.913531998056,120.516373975639 183.61016121151624,120.4876915574423 183.21446018561255,120.47335034674325 182.88470933074132,120.35862062257365 182.50219833903247,120.34427940225578 182.0801172447973,120.45900913493824 181.69760625303024,120.53071518318029 181.3150952613214,120.60242120467592 180.93258426967077,120.64544480475888 180.55007327796193,120.68846839523758 180.18075232050614,120.71715078353009 179.78505129460245,120.73149197609746 179.4289203712251,120.74583316755889 179.02002931118477,120.76017435797257 178.63751831953414,120.76017435797257 178.2550073277671,120.74583316755889 177.81973619927885,120.74583316755889 177.47679531021276,120.74583316755889 177.08109428436728,120.76017435797257 176.738153395243,120.74583316755889 176.40840254031355,120.54505638961564 176.17098192474805,120.25823205788038 175.90718124085106,120.15784344081476 175.55105031753192,120.43032670819957 175.30043966777157,120.78885673559853 175.02344894967973,121.10436260739516 174.73326819733484,121.34816224510723 174.39032730826875,121.53459705386194 174.0605764533393,121.70669056325278 173.66487542749383,121.80707837267255 173.30874450417468,121.93614833647734 172.95261358085554,122.0795593058574 172.60967269178946,122.20862908694835 172.24035173427546,122.33769878152816 171.89741084520938,122.46676838961139 171.65999022958567,122.63886106573045 171.3170493405196,122.7392483891017 170.93453834881075,122.86831772795995 170.59159745974466,122.9830459565419 170.24865657062037,123.0977741167444 169.86614557891153,123.22684321524866 169.49682462145574,123.32723023208382 169.1670737665263,123.44195818716253 168.824132877402,123.57102705494617 168.46800195408287,123.68575486476766 168.09868099662708,123.77180067729205 167.7293600391131,123.78614164229657 167.3336590132094,123.90086932398845 166.95114802150056,123.98691504033923 166.59501709823962,124.05861977461609 166.25207620911533,124.13032448220474 165.9223253541859,124.20202916304697 165.56619443086674,124.2593928885035 165.2100635076058,124.33109752130986 164.82755251589697,124.41714304542984 164.41866145585664,124.50318853104545 164.0361504641478,124.58923397827311 163.6668295065756,124.66093848821765 163.2711284807301,124.73264297147398 162.91499755741097,124.8186883161543 162.51929653150728,124.89039274062088 162.13678553979844,124.96209713845747 161.74108451395296,125.03380150951853 161.35857352224411,125.11984671962273 161.01563263311982,125.17721017163421 160.64631167566404,125.24891446264519 160.2638006839552,125.32061872689519 159.90766976069426,125.40666380881157 159.53834880312206,125.47836801435915 159.12945774302352,125.55007219318941 158.72056668292498,125.636117172573 158.3248656571377,125.69348047077074 157.96873473376036,125.77952538603859 157.59941377630457,125.7651845694927 157.20371275040088,125.7651845694927 156.82120175875025,125.7651845694927 156.37274059600895,125.70782129262807 156.0429897410795,125.67913964779291 155.64728871523403,125.67913964779291 155.2383976551355,125.69348047077074 154.8690766976215,125.67913964779291 154.4997557401075,125.7651845694927 154.1304347825935,125.80820701589982 153.77430385933258,125.79386620150763 153.41817293601343,125.80820701589982 153.0356619443046,125.83688864152646 152.67953102104366,125.83688864152646 152.28382999508176,125.80820701589982 151.83536883245688,125.73650293321407 151.47923790919594,125.75084375186998 151.05715681490256,125.70782129262807 150.7274059599731,125.67913964779291 150.30532486567972,125.636117172573 149.96238397655543,125.62177634533145 149.6062530532363,125.56441302572784 149.1841719590011,125.52139052486746 148.85442110407166,125.56441302572784 148.41914997558342,125.36364127264824 148.03663898387458,125.29193702440534 147.68050806061365,125.22023274941603 147.33756717148935,125.13418758424814 147.0078163165599,125.03380150951853 146.61211529065622,124.94775626102637 146.28236443578498,124.87605185789289 145.8602833414916,124.79000653885305 145.53053248662036,124.7039611813525 145.13483146071667,124.58923397827311 144.75232046906604,124.48884761946101 144.42256961407838,124.3741202881647 144.06643869081745,124.31675659690518 143.6839276991086,124.23071102790709 143.28822667320492,124.13032448220474 142.91890571569093,124.04427882989694 142.56277479243,123.95823313915753 142.1670737664681,123.85784645137028 141.7977528090123,123.74311874402338 141.42843185149832,123.65707291873696 141.07230092817917,123.61404999165097 140.66340986813884,123.4706401652511 140.3072789448197,123.38459421813604 139.93795798736392,123.28420723129238 139.59501709823962,123.18382019201817 139.21250610653078,123.08343310048804 138.85637518321164,123.01172800300992 138.48705422569765,122.91134082169447 138.11773326818366,122.78227151169267 137.74841231072787,122.65320211510698 137.36590131901903,122.52413263206836 137.0097703956999,122.45242732629413 136.6668295066338,122.30901663466648 136.3238886175095,122.23731124878395 135.96775769419037,122.0795593058574 135.61162677092943,121.90746612974908 135.26868588180514,121.77839614675031 134.92574499268085,121.66366720032238 134.5696140694199,121.52025592113205 134.23986321443226,121.37684453513066 133.87054225697648,121.21909188713471 133.48803126526764,121.06133910985955 133.17147044459125,120.87490384285047 133.06595017103245,120.83188029401936 133.40889106015675,121.06133910985955 133.76502198341768,121.20475073090347 134.10796287254198,121.36250339067192 134.4640937958029,121.49157365247083 134.84660478751175,121.64932607722585 135.2291157792206,121.7640550321812 135.61162677092943,121.92180723363708 135.96775769419037,122.03653602626582 136.28431851492496,122.16560583619867 136.60087933565956,122.33769878152816 136.91744015633594,122.45242732629413 137.29995114804478,122.53847369001596 137.62970200297423,122.63886106573045 137.95945285790367,122.7535894310713 138.368343917944,122.86831772795995 138.75085490959464,122.9830459565419 139.12017586716684,123.08343310048804 139.48949682468083,123.18382019201817 139.8324377137469,123.28420723129238 140.2017586712609,123.38459421813604 140.5974596971064,123.4706401652511 140.97997068881523,123.58536803491006 141.34929164632922,123.67141389228345 141.70542256964836,123.77180067729205 142.07474352716235,123.8721874099574 142.457254518813,123.95823313915753 142.83976551052183,124.0299378841155 143.18270639958791,124.1016426023707 143.56521739129676,124.21637009599363 143.96091841725865,124.28807474485075 144.1587689301814,124.0729607182584 144.1323888617335,123.71443680656375 144.09281875914894,123.37025322322734 144.11919882759685,123.01172800300992 144.1323888617335,122.66754316347942 144.14557889598655,122.32335770863574 144.14557889598655,121.95048943819711 144.1587689301814,121.46289137956046 144.19833903276594,121.09002144262195 144.2115290669608,120.73149197609746 144.23790913529228,120.30125573488476 144.01367855397984,119.9570660496247 143.6311675623292,119.85667727552936 143.28822667320492,119.77062971319538 143.12994626286672,119.72760591759288 143.05080605769763,119.69892338183126 143.06399609183427,119.71326465027232 143.07718612602912,119.71326465027232 143.09037616028218,119.71326465027232 143.07718612602912,119.62721702383715 143.09037616028218,119.35473261971492 143.19589643384097,119.09658914429019 143.61797752813436,119.01054124219809 144.000488519785,118.92449330165982 144.40937957994174,118.83844532268995 144.80508060578723,118.75239730523026 145.20078163169092,118.65200790289964 145.5964826575364,118.59464250663586 146.00537371763494,118.55161844825489 146.38788470934378,118.49425302207237 146.7967757693841,118.45122894122323 147.1397166585084,118.39386348515109 147.52222765021725,118.33649801199499 147.91792867612094,118.29347389588656 148.32681973621948,118.25044977014477 148.70933072792832,118.26479114647373 149.105031753832,118.25044977014477 149.46116267709294,118.2791325217404 149.83048363466514,118.29347389588656 150.19980459212093,118.30781526897044 150.56912554963492,118.32215664099203 150.92525647289585,118.30781526897044 151.2550073277671,118.30781526897044 151.55837811430683,118.26479114647373 151.86174890084658,118.20742563481326 152.28382999508176,118.26479114647373 152.67953102104366,118.29347389588656 153.0884220811422,118.35083938187745 153.49731314118253,118.36518075069762 153.86663409869652,118.35083938187745 154.22276502201566,118.36518075069762 154.61846604786115,118.3795221184846 154.98778700537514,118.3795221184846 155.40986809966853,118.4225462153554 155.76599902298767,118.4225462153554 156.1485100146383,118.43688757883501 156.37274059600895,118.45122894122323 156.39912066439865,118.45122894122323 156.76844162191264,118.43688757883501 157.20371275040088,118.45122894122323 157.62579384463606,118.46557030259282 158.02149487059796,118.49425302207237 158.39081582805375,118.47991166290012 158.76013678556774,118.47991166290012 159.16902784560807,118.49425302207237 159.56472887156997,118.50859438021143 159.9472398632206,118.50859438021143 160.3165608207346,118.53727709330269 160.67269174399553,118.52293573733186 161.05520273570437,118.53727709330269 161.42452369321836,118.55161844825489 161.79384465073235,118.55161844825489 162.18954567663604,118.59464250663586 162.58524670253973,118.56595980211569 162.96775769419037,118.5803011549433 163.36345872009406,118.5803011549433 163.73277967760805,118.59464250663586 164.0625305324793,118.59464250663586 164.39228138735052,118.60898385732435 164.56375183199998,118.88146931696974 164.65608207130572,119.0822478299524 164.37909135321388,119.29736743286776 164.0625305324793,119.45512165557011 163.78553981432924,119.62721702383715 163.54811919888016,119.84233601778396 163.3502686858992,120.17218467501516 163.09965803619707,120.43032670819957 162.80947728385217,120.65978600262315 162.71714704448823,120.98963325929071 162.82266731804702,121.3194799508201 163.02051783102797,121.64932607722585 163.36345872009406,121.79273726027168 163.70639960921835,122.0508771205059 164.15486077184323,122.0508771205059 164.51099169516237,122.0795593058574 164.85393258428667,122.02219493089069 165.19687347341096,121.87878391878621 165.4738641915028,121.77839614675031 165.7640449438477,121.52025592113205 165.98827552516013,121.23343304228911 166.14655593549833,120.88924502361624 166.35759648267413,120.58808000251884 166.68734733754536,120.34427940225578 167.0434782609227,120.47335034674325 167.29408891062485,120.74583316755889 167.53150952619035,121.04699794187036 167.86126038106158,120.516373975639 167.9140205178992,120.17218467501516 167.90083048364613,119.81365349914995 167.86126038106158,119.42643907923775 167.8085002442822,119.02488256186189 167.8085002442822,118.65200790289964 167.82169027847704,118.2791325217404 167.8085002442822,117.8919150152069 167.8085002442822,117.47601386292081 167.82169027847704,117.08879474097921 167.79531021008734,116.73025782243349 167.74255007324973,116.41474478173768 167.9140205178992,116.04186506687256 168.27015144110192,115.92713270163222 168.62628236442106,115.85542493857793 168.99560332193505,115.91279115114594 169.36492427944904,115.89844959961192 169.70786516857333,115.89844959961192 170.16951636539306,115.99884043791099 170.6047874938813,116.05620660774002 170.9741084513953,115.9558157993597 171.000488519785,115.49688572280866 171.30385930632474,115.35346984950593 171.60723009286448,115.39649462273519 171.67318026383873,115.10966261966678" stroke="#4DD2FF" stroke-linecap="round" stroke-linejoin="round" stroke-width="0.5"><title>2026-03-15 10.7km</title><desc>1207636486</desc></polyline><polyline fill="none" points="53.842805320513435,158.43389261493576 53.79383313184371,158.55815301364055 53.777509068953805,158.91318236688676 53.7448609432322,159.42797398865514 53.82648125756532,159.85400759236654 53.695888754562475,160.51080790444394 53.614268440171145,161.04334736776946 53.58162031444954,161.50488060576026 53.614268440171145,162.01966662339692 53.58162031444954,162.55220271169674 53.630592503002845,163.1202398930036 53.59794437728124,163.47526244308392 53.59794437728124,163.88353772119444 53.679564691730775,164.43382068400388 54.13663845229894,164.5935800156294 54.56106408708729,164.68233515354223 54.98548972187564,164.68233515354223 55.409915356722195,164.8598453301238 55.42623941967031,165.19711430101597 56.11185006046435,164.8953473495494 56.71584038698347,164.71783719945233 57.15659008466173,164.94860036879254 57.72793228534283,164.9130983572977 58.11970979446778,164.82434330541582 58.52781136642443,164.6645841286081 58.75634824670851,164.61133104586042 58.67472793231718,166.75919593579601 58.38089480047347,166.5106836339546 58.62575574370567,166.8834519894299 58.658403869427275,166.68819244745828 58.75634824670851,167.00770797824953 58.77267230959842,167.16746558291197 58.723700120986905,167.68223935754213 58.576783555035945,168.1437597265758 58.397218863421585,168.6230299322633 58.462515114981215,169.08454847789835 58.21765417174902,169.56381678995967 58.070737605856266,170.02533351218153 57.94014510285342,170.4690987476497 57.82587666262407,170.84186090638104 57.76058041123906,171.23237301823974 57.695284159621224,171.8181399852765 57.54836759372847,172.33290370616305 57.58101571950829,172.82991589815356 57.6136638452881,173.45117967941042 57.72793228534283,173.93043920325 57.776904474012554,174.5161995337112 57.8911729141837,175.04870767482498 57.97279322857503,175.52796398372448 58.03808948013466,176.0427196857636 58.087061668687966,176.5397241354367 58.1686819831375,177.07222775205446 58.20133010885911,177.55147998899338 58.250302297470625,178.0839813434286 58.21765417174902,178.49223157551023 58.20133010885911,178.95373099524295 58.11970979446778,179.43297944619553 58.03808948013466,179.89447704309714 58.03808948013466,180.40922330778267 58.070737605856266,180.85296919482062 58.05441354290815,181.33221382425108 58.05441354290815,181.84695698181167 58.070737605856266,182.3084499014658 58.05441354290815,182.71669289276178 58.02176541718654,183.21368341606285 58.02176541718654,183.6929232957482 58.05441354290815,184.11891349044163 58.02176541718654,184.58040200830146 57.97279322857503,185.04188963213528 57.989117291464936,185.50337636191398 58.005441354296636,186.00036107104097 57.989117291464936,186.550592932399 58.02176541718654,187.01207673939643 58.005441354296636,187.47355965233874 57.989117291464936,187.89954308624147 57.95646916568512,188.36102428000595 57.97279322857503,188.84025380422827 57.989117291464936,189.30173317571462 57.95646916568512,189.76321165323316 57.97279322857503,190.2246892368421 58.05441354290815,190.7039150121418 58.1850060459692,191.14764172234572 58.38089480047347,191.57361858659715 58.49516324070282,191.99959468921588 58.78899637248833,192.37232315420988 59.229746070166584,192.39007211424178 59.67049576784484,192.42557003020192 60.111245465581305,192.47881689424685 60.55199516331777,192.56756164130638 60.99274486099603,192.6740552940464 61.417170495784376,192.81604675701237 61.87424425635254,192.9757870517351 62.20072551391786,193.2952673198306 62.49455864576157,193.52600280258048 62.83736396615859,193.5792494207417 63.37605804117629,193.52600280258048 63.88210399035597,193.5792494207417 64.45344619109528,193.63249602695578 64.86154776305193,193.56150054936006 65.36759371223161,193.59699829077 65.80834340996807,193.54375167661055 66.26541717053624,193.50825392724073 66.78778718260583,193.52600280258048 67.0,193.59699829077 66.59189842810156,193.52600280258048 66.18379685614491,193.50825392724073 65.72672309557674,193.43725841259584 65.35126964939991,193.63249602695578 65.35126964939991,194.0939661158627 65.41656590084312,194.5731841083034 65.6451027811272,194.73292322487396 65.40024183801142,194.51993771227717 65.15538089489564,194.41344488457253 64.82889963733032,194.4489424991043 64.48609431681689,194.3779472647293 64.04534461913863,194.39569607532758 63.70253929874161,194.4311936924787 63.457678355509415,194.62643049239705 63.06590084644267,194.9104110066255 62.52720677148318,194.9104110066255 62.135429262474645,194.73292322487396 61.64570737606846,194.8394159097952 61.15598548972048,194.96365731536935 60.698911729152314,195.0878986561729 60.24183796858415,195.1233961702237 59.76844014512608,195.19439118243463 59.2787182587781,195.2653861735016 58.80532043532003,195.30088366109703 58.397218863421585,195.31863240289385 57.923821039905306,195.31863240289385 57.46674727939535,195.336381143381 57.009673518827185,195.336381143381 56.56892382103251,195.336381143381 56.128174123412464,195.31863240289385 55.720072551455814,195.336381143381 55.21402660221793,195.35412988257303 54.740628778759856,195.31863240289385 54.348851269693114,195.15889367893396 54.26723095535999,194.89266223441518 53.842805320513435,194.67967686455813 53.30411124549573,194.6974256527028 52.99395405082032,195.10564741386042 52.716444981866516,195.51386847558024 52.389963724359404,195.85109404257673 52.03083434107248,196.0640783652634 51.60640870622592,196.2593138271477 51.16565900843125,196.4190518133255 50.74123337370111,196.5787896924303 50.31680773891276,196.75627609915682 49.89238210400799,196.969259612757 49.41898428060813,197.12899712297076 48.99455864576157,197.2887345261115 48.61910519952653,197.46622040402144 48.21100362762809,197.67920328296896 47.770253929833416,197.8211917632143 47.39480048371479,197.89218597159197 46.97037484886823,198.03417432493006 46.464328899630345,198.21165964758256 46.023579202010296,198.3536478104943 45.59915356716374,198.4778873836185 45.142079806595575,198.6021268919867 44.7013301088009,198.76186330761993 44.195284159621224,198.92159961612197 43.77085852477467,198.99259349663043 43.34643288998632,199.0103419634397 42.80773881502682,199.2055750113068 42.35066505445866,199.32981414024835 41.89359129383229,199.41855633557134 41.43651753332233,199.50729849786148 40.96311970986426,199.61378904890444 40.522370012127794,199.68478272325592 40.09794437728124,199.75577637637616 39.59189842810156,199.88001521849947 39.069528415973764,199.96875720885873 38.62877871829551,200.07524755375925 38.155380894837435,200.14624109053693 37.665659008489456,200.2349829818413 37.24123337370111,200.2882281007187 36.767835550243035,200.41246666522056 36.261789601063356,200.5367051649373 35.8373639662168,200.6076985642576 35.38029020559043,200.6964402836893 34.923216444964055,200.76743363541027 34.46614268439589,200.85617529532465 34.025392986717634,200.96266524362727 33.56831922614947,201.0336585160403 33.07859733980149,201.140148385035 32.621523579233326,201.2466382064449 32.148125755775254,201.29988309927285 31.707376058096997,201.40637284930563 31.233978234638926,201.4596177064086 30.727932285459246,201.4596177064086 30.23821039905306,201.47736598949996 29.781136638484895,201.4241211362969 29.32406287791673,201.38862456090283 28.91596130596008,201.37087627124856 28.393591293890495,201.38862456090283 27.903869407542516,201.40637284930563 27.46311970986426,201.40637284930563 26.989721886406187,201.47736598949996 26.56529625155963,201.51286255168088 26.124546553823166,201.54835910860857 25.634824667533394,201.5306108308141 25.17775090696523,201.5306108308141 24.688029020559043,201.5306108308141 24.19830713426927,201.47736598949996 23.741233373701107,201.4418694220367 23.284159613074735,201.40637284930563 22.794437726726755,201.37087627124856 22.435308343498036,201.38862456090283 21.912938331370242,201.29988309927285 21.35792019352084,201.2288899061823 20.917170495842583,201.1933933016844 20.55804111249745,201.2288899061823 20.166263603430707,201.21114160456636 19.676541717082728,200.99816188251134 19.154171704954933,200.89167195008486 18.74607013305649,200.8384269660164 18.305320435320027,200.73193696218368 17.84824667481007,200.64319525597966 17.342200725513976,200.46571174445853 16.96674727933714,200.39471830283583 16.47702539304737,200.25273135611496 16.06892382109072,200.14624109053693 15.677146312023979,200.07524755375925 15.236396614287514,199.96875720885873 14.828295042330865,199.88001521849947 14.469165659043938,199.77352478634566 14.322249093151186,199.36531102232402 14.305925030261278,198.90385114266246 14.240628778759856,198.4068933497765 14.256952841649763,197.9276830678864 14.240628778759856,197.43072323901288 14.289600967429578,196.95151099388022 14.338573156041093,196.50779509272252 14.387545344710816,196.01083230241784 14.43651753332233,195.62036081145925 14.43651753332233,195.14114492524823 14.452841596095823,194.62643049239705 14.126360338646919,194.2359567326348 13.669286578020547,194.11171494759037 13.261185006063897,194.0407196127635 13.032648125838023,193.91647772588476 13.04897218872793,193.49050505054765 13.195888754562475,193.2420206382085 13.652962515130639,193.15327614244597 14.110036275757011,193.04678270388104 14.599758162046783,192.94028921770223 15.073155985504854,192.81604675701237 15.579201934742741,192.69180423155194 16.019951632479206,192.62080847359903 16.509673518768977,192.56756164130638 16.950423216447234,192.51431479706662 17.42382104002172,192.4433189862466 17.897218863363378,192.39007211424178 18.35429262398975,192.31907626634347 18.81136638461612,192.2303314267774 19.301088270847686,192.2125824549148 19.774486094363965,192.2125824549148 20.247883917822037,192.2125824549148 20.721281741338316,192.2303314267774 21.21100362756988,192.2480803973449 21.68440145108616,192.2480803973449 22.15779927454423,192.26582936661725 22.59854897216428,192.2480803973449 23.055622732790653,192.2480803973449 23.480048367579002,192.2303314267774 23.88814993959386,192.19483348169888 24.37787182588363,192.2303314267774 24.932889963733032,192.28357833450718 25.389963724301197,192.28357833450718 25.86336154775927,192.26582936661725 26.385731559887063,192.3013273010729 26.875453446176834,192.3013273010729 27.332527206861414,192.33682523031894 27.838573155982886,192.37232315420988 28.295646916609257,192.37232315420988 28.736396614345722,192.39007211424178 29.19347037485568,192.39007211424178 29.683192261203658,192.40782107284758 30.140266021771822,192.40782107284758 30.581015719566494,192.42557003020192 31.103385731577873,192.46106794090883 31.560459492146038,192.47881689424685 32.03385731566232,192.47881689424685 32.52357920195209,192.4965658463043 33.01330108830007,192.51431479706662 33.437726723146625,192.51431479706662 33.862152357934974,192.51431479706662 34.31922611850314,192.4965658463043 34.77629987912951,192.51431479706662 35.28234582830919,192.51431479706662 35.75574365176726,192.56756164130638 36.18016928661382,192.56756164130638 36.63724304718198,192.56756164130638 37.192261185031384,192.62080847359903 37.69830713426927,192.62080847359903 38.12273276905762,192.62080847359903 38.56348246673588,192.63855741509178 39.02055622730404,192.65630635518755 39.46130592509871,192.78054889923078 39.64087061671307,192.94028921770223 39.65719467960298,193.33076510096726 39.33071342209587,193.52600280258048 38.987908101582434,193.7212403442245 38.54715840390418,193.82773348133196 38.35126964939991,194.2359567326348 38.12273276905762,194.62643049239705 37.763603385712486,194.9104110066255 37.40447400242556,195.31863240289385 37.37182587670395,195.7978479321464 37.535066505428404,196.2415651553747 37.828899637272116,196.50779509272252 38.22067714633886,196.72077882838494 38.54715840390418,196.91601375221217 38.987908101582434,196.880516505189 39.379685610649176,196.880516505189 39.73881499399431,196.880516505189 40.09794437728124,196.73852746444754 40.587666263687424,196.5965383390576 40.94679564697435,196.31255983444862 41.077388149977196,195.9398375334713 41.42019347043242,195.65585824615846 41.59975816210499,195.24763742771756 41.9262394196121,194.89266223441518 42.35066505445866,194.71517443946504 42.709794437745586,194.94590854714625 43.0036275695893,195.31863240289385 43.428053204435855,195.42512482602615 43.70556227333145,194.96365731536935 43.72188633616315,194.51993771227717 43.73821039905306,194.0939661158627 43.67291414749343,193.6502448930696 43.62394195894012,193.2242717417248 43.62394195894012,192.79829782876186 43.607617896050215,192.39007211424178 43.607617896050215,191.94634771803976 43.607617896050215,191.46712444191508 43.62394195894012,191.0056492649892 43.607617896050215,190.5264240966353 43.607617896050215,190.08269622942316 43.607617896050215,189.6744658615935 43.96674727933714,189.3549807380041 44.37484885129379,189.2839839856315 44.831922611861955,189.2839839856315 45.33796856109984,189.30173317571462 45.7623941959464,189.3549807380041 46.15417170501314,189.19523801548348 46.67654171708273,189.40822828834644 47.24788391782204,189.44372664860566 47.47642079810612,188.89350146964716" stroke="#4DD2FF" stroke-linecap="round" stroke-linejoin="round" stroke-width="0.5"><title>2026-03-04 10.3km</title><desc>1203670469</desc></polyline><polyline fill="none" points="181.16306361957686,173.91657626304368 180.87955528107705,173.91657626304368 180.3792464484577,173.86217762048182 179.96232242125552,173.78964607810485 179.54539839411154,173.77151318914548 179.07844348368235,173.7352474071522 178.42804200132377,173.71711451410374 177.96108709077816,173.77151318914548 177.49413218034897,173.80777896572545 177.3106856084196,174.17043643441866 177.26065472519258,174.4968276941945 177.29400864738273,175.0045465616422 177.27733168628765,175.5122643700015 177.27733168628765,176.00184839639405 177.27733168628765,176.4914314380003 177.27733168628765,176.98101349482022 177.27733168628765,177.43432933607255 177.27733168628765,177.86951174937712 177.34403953055153,178.34095848575816 177.52748610259732,178.73987424177176 177.7609635577537,178.55854897917015 177.77764051884878,178.1596329259628 177.69425571343163,177.74258362587716 178.02779493521666,177.68818583838583 178.49474984558765,177.77884881074715 178.8116121062776,177.8332465779531 179.36195182218216,177.94204207592702 179.6788140827557,178.1052352317056 180.1457689932431,178.21403060809826 180.74613959243288,178.39535612733744 181.12970969744492,178.52228391045355 181.5966646078159,178.66734415294195 182.0135886349599,178.83053682242462 182.51389746757923,178.95746437861817 182.93082149483962,179.1569218331424 183.3977764052106,179.32011417439207 183.83137739350786,179.50143886968726 184.29833230393706,179.6464985286584 184.76528721436625,179.79155810119119 185.21556516375858,179.93661758725648 185.68252007418778,179.8459554185829 186.1327980235219,179.8459554185829 186.38295243977336,180.13607423946087 186.06609017919982,180.4624574996269 185.71587399631971,180.75257558572048 185.2655960470438,180.91576685722976 184.83199505874654,181.06082567333942 184.3817171093542,181.2058844030107 183.9814700433053,181.42347233546025 183.53119209391298,181.56853084905015 183.09759110561572,181.73172157350928 182.63063619518653,181.8949121885962 182.31377393461298,182.03997042123228 182.04694255720824,182.257557608129 181.57998764672084,182.38448337731825 181.1964175417088,182.52954131824663 180.7294626312796,182.67459917272208 180.19579987647012,182.85592136926425 179.6788140827557,182.982846826475 179.24521309451666,183.10977221750363 178.79493514524074,183.2185653571796 178.4113650402287,183.43615149057587 177.96108709077816,183.59934096297366 177.49413218034897,183.67186958229286 177.09388511435827,183.81692675610248 176.5435453983955,183.871323173953 176.04323656583438,183.98011597327422 175.5596046943101,184.0889087239193 175.1593576281448,184.17956931235676 174.72575663996395,184.2339656492113 174.25880172947655,184.34275828648242 173.74181593576213,184.43341878031788 173.2415071031428,184.524079240422 172.75787523167673,184.63287174803554 172.2575663990574,184.7235321338958 171.79061148857,184.83232455229154 171.30697961704573,184.9229848639079 170.90673255105503,185.06804129215016 170.38974675734062,185.15870151596027 169.90611488581635,185.23122967068048 169.38912909210194,185.3218898336927 168.87214329838753,185.4306819847261 168.38851142686326,185.55760609947902 167.92155651637586,185.6482661409682 167.42124768375652,185.70266214964795 166.93761581223225,185.81145413054037 166.4539839407662,185.84771811333485 165.93699814699357,185.9021140774421 165.48672019771766,186.04716992235626 165.03644224832533,186.13782978148083 164.55281037691748,186.19222568077384 164.15256331075216,186.26475352757552 163.66893143916968,186.24662156787235 163.16862260660855,186.21035764449334 162.65163681289414,186.11969781233347 162.21803582459688,186.1559617492312 161.70105003094068,186.11969781233347 161.2174181593582,186.10156584184733 160.78381717117736,186.10156584184733 160.3001852995949,186.19222568077384 159.84990735026076,186.17409371568647 159.39962940092664,186.22848960684496 158.91599752940238,186.2828854858817 158.38233477453468,186.24662156787235 157.88202594203176,186.21035764449334 157.43174799258122,186.22848960684496 156.94811612111516,186.21035764449334 156.49783817178104,186.21035764449334 155.9975293391035,186.11969781233347 155.48054354538908,186.04716992235626 155.0135886349599,186.04716992235626 154.49660284130368,185.9565100294276 153.97961704764748,185.86585010275303 153.54601605935022,185.88398209080333 153.0957381100161,185.7570581461623 152.49536751082633,185.63013413539738 151.97838171717012,185.53947408717067 151.528103767836,185.4306819847261 151.02779493521666,185.3218898336927 150.5441630636342,185.1768335566594 150.04385423101485,185.08617333964503 149.59357628168073,184.97738103465235 149.10994441015646,184.85045661736513 148.6763434218592,184.74166420700203 148.17603458929807,184.63287174803554 147.72575663996395,184.50594715113402 147.2921556516667,184.39715458681167 146.8252007411793,184.27022986701922 146.3582458307501,184.1251729633659 145.87461395922583,184.03451235465764 145.4243360099499,183.8894553105638 145.00741198280593,183.7987946140929 144.5571340333554,183.6900017337466 144.05682520079426,183.56307664523774 143.5064854848897,183.3998871484946 143.02285361342365,183.30922626971733 142.5225447808043,183.1641687933734 142.03891290922184,183.07350782681897 141.62198888207786,182.96471462232876 141.12168004945852,182.83778915568837 140.62137121683918,182.67459917272208 140.1377393453149,182.54767355481454 139.65410747373244,182.38448337731825 139.18715256336145,182.2031608296238 138.72019765293226,182.07623496589076 138.26991970353993,181.96744131568994 137.86967263749102,181.84051532903686 137.40271772706183,181.65919237617345 136.96911673882278,181.53226622877992 136.53551575052552,181.35094304627273 136.06856084003812,181.16961972870922 135.63495985185727,180.98829627610394 135.20135886356002,180.82510505322716 134.76775787526276,180.60751658593654 134.2841260037385,180.4261927145708 133.85052501544124,180.26300111487217 133.43360098829726,180.009147297882 133.1167387276655,179.66463097992528 133.03335392219014,179.2657167394791 133.4669549104292,179.06625937408535 133.60037059918977,178.9755968812242 133.1167387276655,179.21131929240073 133.1167387276655,179.70089587848634 133.41692402720219,180.009147297882 133.76714021002408,180.22673630007193 134.18406423716806,180.48058989016863 134.66769610875053,180.64378134396975 135.08462013595272,180.80697268838412 135.5015441630967,181.02456097739923 135.95182211243082,181.16961972870922 136.40210006188136,181.332810720618 136.8357010500622,181.49600160308182 137.3026559605496,181.6410600734671 137.75293390982552,181.82238303984923 138.236565781408,181.94930903596105 138.73687461396912,182.03997042123228 139.17047560226638,182.22129309047887 139.5707226683735,182.42074787065212 140.0877084620297,182.54767355481454 140.53798641136382,182.6927313984488 141.03829524398316,182.80152472447662 141.40518838795833,182.96471462232876 141.95552810380468,183.05537562942482 142.4058060531388,183.18230098263302 142.88943792466307,183.29109408988734 143.3397158740554,183.41801932019007 143.78999382333132,183.49054799351143 144.24027177278185,183.63560527536902 144.70722668321105,183.74439818000246 144.99073502165265,183.96198384340096 145.541074737499,184.03451235465764 146.05806053127162,184.0889087239193 146.54169240273768,184.2339656492113 146.99197035213,184.36089038792124 147.27547869062982,184.14330508104467 147.32550957385683,183.6900017337466 147.30883261276176,183.3273584481649 147.30883261276176,182.85592136926425 147.32550957385683,182.3482188785856 147.32550957385683,181.93117675484973 147.32550957385683,181.51413391662936 147.30883261276176,181.0970903638954 147.37554045714205,180.5893842048681 147.37554045714205,180.0998094057868 147.408894379274,179.5921011666651 147.39221741817892,179.10252436176233 147.04200123541523,178.77613927811035 146.5917232859647,178.64921162735845 146.15812229772564,178.55854897917015 146.0080296479864,178.12336779781617 146.0080296479864,177.79698140118853 146.57504632498603,177.6519206399389 147.07535515754716,177.56125762032752 147.5756639901665,177.47059456688294 148.07597282278584,177.34366623533424 148.54292773315683,177.23487046995433 149.00988264364423,177.14420729494304 149.47683755407343,177.07167673061485 149.97714638669277,177.0172787932388 150.49413218034897,176.98101349482022 150.97776405193144,176.90848288190318 151.4613959234557,176.835952247362 151.9450277950382,176.79968692193506 152.41198270540917,176.70902358487365 152.89561457699165,176.72715625497221 153.39592340955278,176.70902358487365 153.91290920320898,176.72715625497221 154.41321803588653,176.72715625497221 154.8968499074108,176.745288923732 155.39715873997193,176.76342159113847 155.93082149483962,176.79968692193506 156.4144533663639,176.7815542572498 156.8647313156398,176.745288923732 157.24830142065184,176.70902358487365 157.71525633108104,176.745288923732 158.18221124156844,176.7815542572498 158.68252007418778,176.8178195852961 159.21618282899726,176.835952247362 159.69981470046332,176.8178195852961 160.13341568876058,176.835952247362 160.5836936380947,176.85408490798727 160.9839407042018,176.8178195852961 161.5676343421801,176.8903502253088 162.06794317485765,176.9266155371297 162.56825200741878,176.9266155371297 163.0852378011332,176.94474819106108 163.56886967265746,176.94474819106108 164.08585546637187,176.9628808436537 164.56948733789613,176.9628808436537 165.08647313155234,176.99914614467707 165.58678196422989,176.99914614467707 166.08709079679102,176.99914614467707 166.58739962946856,177.0172787932388 167.05435453989776,177.0172787932388 167.53798641148023,177.0172787932388 167.98826436075615,177.03541144034534 168.47189623228041,177.07167673061485 168.95552810380468,177.07167673061485 169.405806053197,177.08980937373417 169.92279184685322,177.1079420154565 170.42310067947255,177.1079420154565 170.90673255105503,177.1079420154565 171.3903644225211,177.1079420154565 171.8573193330085,177.1079420154565 172.34095120447455,177.1260746558837 172.8412600370939,177.1260746558837 173.34156886971323,177.16233993261994 173.7584928969154,177.16233993261994 174.32550957385683,177.18047256897262 174.79246448428603,177.2167378376471 175.30945027794223,177.19860520401562 175.80975911056157,177.2167378376471 176.24336009885883,177.18047256897262 176.66028412606101,177.0172787932388 177.077208153205,176.8178195852961 177.81099444103893,177.27113573046518 178.21124150714604,177.25300310087914 178.72822730080225,177.27113573046518 179.17850525025278,177.41619671863737 179.59542927739676,177.57939022693608 180.01235330459895,177.7244510314049 180.42927733174292,177.85137916434905 180.92958616436226,178.03270495377365 181.41321803588653,178.23216316611797 181.86349598516244,178.35909103430458 182.19703520694748,178.61294657213148 182.56392835086444,178.93933187464427 183.01420630019857,179.1569218331424 183.48116121062776,179.32011417439207 183.9314391600201,179.50143886968726 184.36504014831735,179.6464985286584 184.81531809759326,179.79155810119119 185.3156269302708,179.93661758725648 185.74922791850986,179.8640878550359 186.18282890680712,179.70089587848634 186.43298332305858,179.35637912423408 186.6497838171781,178.95746437861817 187.0,178.99372938246233 186.7164916615584,178.84866933450394 186.4830142063438,179.24758425846812 186.11612106242683,179.53770379250636 185.71587399631971,179.71902832570777 185.29894996917574,179.79155810119119 184.81531809759326,179.70089587848634 184.34836318722228,179.5739687099849 183.88140827679308,179.42890900779457 183.44780728849582,179.2657167394791 182.98085237806663,179.10252436176233 182.5305744286743,178.93933187464427 182.14700432366226,178.68547667717212 181.84681902412558,178.39535612733744 181.44657195801847,178.25029572272615 180.92958616436226,178.12336779781617 180.4459542927798,177.94204207592702 179.9789993824088,177.77884881074715 179.54539839411154,177.6519206399389 179.14515132800443,177.43432933607255 178.66151945653837,177.28926835869788 178.1778875850141,177.27113573046518 177.72760963556357,177.25300310087914 177.2439777640975,177.2167378376471 176.7936998147634,177.19860520401562 176.34342186542926,177.34366623533424 175.8597899938468,177.23487046995433 175.42618900566595,177.23487046995433 174.87584928970318,177.2167378376471 174.6256948733935,177.36179885821184 174.64237183448859,177.36179885821184 174.39221741817892,177.54312501232198 174.49227918474935,177.88764433302276 174.408894379274,178.41348867185297 174.00864731316688,178.32282593582931 173.6417541692499,178.17776548802794 173.22483014210593,178.03270495377365 172.7745521927718,178.12336779781617 172.40765904879663,178.37722358148312 172.0240889437846,178.25029572272615 171.97405806055758,177.85137916434905 171.94070413836744,177.45246195213986 171.5071031501284,177.45246195213986 170.9734403953771,177.50685979232367 170.84002470661653,177.88764433302276 170.77331686235266,178.32282593582931 170.72328597900923,178.75800676063227 170.65657813468715,179.19318680734432 170.58987029036507,179.5739687099849 170.82334774557967,179.79155810119119 170.89005558990175,180.26300111487217 171.0234712785459,180.68004609661875 171.30697961704573,181.02456097739923 171.75725756643806,181.26028140437847 172.10747374925995,181.45973697201407" stroke="#4DD2FF" stroke-linecap="round" stroke-linejoin="round" stroke-width="0.5"><title>2026-02-20 10.2km</title><desc>1200274899</desc></polyline><polyline fill="none" points="13.0,236.85165132653492 13.16577977896668,236.83963448718714 13.596807204245124,236.8276176469517 13.85100286535453,236.89971867490385 14.237822349590715,236.94778600896825 14.60253786330577,236.98383650011965 14.93409742123913,237.0198869832093 15.30986492021475,237.0198869832093 15.64142447814811,237.05593745825172 15.961932050762698,237.0919879252324 16.282439623435494,237.1280383841513 16.64715513709234,237.10400474573544 16.945558739302214,237.07997110378346 17.277118297235575,237.11602156537992 17.564469914068468,237.1400552019768 17.8739255014807,237.23618971253745 18.194433074095286,237.28425694631005 18.53704461728921,237.29627375253767 18.835448219440877,237.3563577701425 19.12279983633198,237.47652573822415 19.410151453164872,237.6687943009456 19.66434711421607,237.86106263447437 19.863282848964445,238.10139772908587 19.885386819543783,238.42584953879123 19.719607040577102,238.7142505994998 19.443307409004774,238.81038417182572 19.10069586575264,238.81038417182572 18.79124027834041,238.76231739282957 18.481784690986387,238.75030069585773 18.172329103574157,238.77433408891375 17.918133442522958,238.75030069585773 17.697093737253454,238.70223389894818 17.442898076144047,238.7142505994998 17.243962341395672,238.76231739282957 17.18870241509285,238.78635078413936 16.547687269747257,238.8704676254565 16.006139991863165,238.9425677402469 15.807204257056583,239.1949178881623 15.740892345493194,239.44726764132793 15.740892345493194,239.79574998478347 16.01719197712373,239.98801578306302 16.304543593956623,240.12019838641572 16.58084322558716,240.22834770861664 16.846090871898923,240.34851353711565 17.133442488790024,240.5407786765427 17.387638149841223,240.74506013607606 17.619729840371292,240.86522557966236 17.94023741298588,240.78110977854521 18.172329103574157,240.6369111603126 18.41547277936479,240.61287804471795 18.868604175222572,240.74506013607606 19.277527629979886,240.8291759559943 19.631191158492584,240.8291759559943 19.984854686888866,240.8291759559943 20.360622185922693,240.81715941296716 20.68112975853728,240.79312632426445 21.01268931647064,240.75707668447285 21.35530085960636,240.7210270366195 21.68686041753972,240.66094427229837 21.99631600495195,240.57682836467575 22.327875562827103,240.48069584506447 22.60417519445764,240.3244803785783 22.6815390913398,240.0360821968061 22.692591076542158,239.71163362599327 22.637331150239334,239.41121770077734 22.615227179718204,239.07475120029994 22.637331150239334,238.76231739282957 22.670487106021028,238.4378662599338 22.692591076542158,238.11341447439918 22.72574703238206,237.78896203625482 22.836266884987708,237.6447607431328 23.112566516560037,237.60871039971244 23.41097011876991,237.62072718176933 23.78673761774553,237.6687943009456 24.129349160881247,237.69282785516407 24.4609087187564,237.70484463093453 24.803520262008533,237.71686140580277 25.112975849420764,237.74089495287626 25.466639377817046,237.7529117250524 25.776094965287484,237.72887817978335 26.085550552641507,237.72887817978335 26.39500613999553,237.7529117250524 26.737617683189455,237.76492849635542 27.03602128534112,237.77694526677078 27.323372902174015,237.812995572589 27.62177650432568,237.84904587033088 27.931232091679703,237.92114644170215 28.2848956201924,237.99324698082637 28.660663119109813,238.01728048671794 28.970118706522044,238.0773642357235 29.224314367573243,238.13744796240644 29.533769954985473,238.23358187849226 29.898485468758736,238.28164881505654 30.141629144491162,238.3777826452133 30.428980761382263,238.4378662599338 30.672124437172897,238.67820049512375 30.68317642249167,239.01466782277566 30.650020466651767,239.25500119854405 30.882112157181837,239.36315110079886 31.26893164141802,239.3992010521033 31.60049119940959,239.4352509953751 31.89889480144484,239.4833175738313 32.19729840365471,239.53138413801207 32.550961932050996,239.51936749830202 32.89357347530313,239.53138413801207 33.19197707739659,239.51936749830202 33.534588620532304,239.55541741469642 33.86614817852387,239.56743405169982 34.16455178061733,239.6275172233436 34.485059353290126,239.6755837445089 34.78346295544179,239.7356668758439 35.08186655753525,239.77171674391138 35.41342611546861,239.8197832221049 35.74498567334376,239.86784968599386 36.07654523133533,239.9159161355492 36.34179287758889,239.9639825708 36.68440442078281,240.0120489917026 36.99386000819504,240.0601153983298 37.29226361034671,240.12019838641572 37.612771183019504,240.1562481685396 37.8669668440707,240.22834770861664 38.22063037252519,240.2764140507643 38.54113794519799,240.31246379796357 38.89480147359427,240.36053011503827 39.22636103158584,240.40859641777934 39.53581661893986,240.46867927610583 39.90053213265492,240.52876211202238 40.221039705269504,240.57682836467575 40.51944330747938,240.62489460296638 40.8288988948334,240.67296082695248 41.12730249698507,240.7210270366195 41.447810069599655,240.75707668447285 41.735161686490756,240.81715941296716 42.04461727384478,240.86522557966236 42.343020875996444,240.91329173205304 42.6745804338716,240.9373248028278 43.006139991863165,240.9853909337544 43.31559557921719,241.0454735772073 43.64715513715055,241.0935396758723 43.945558739302214,241.17765531406621 44.26606631197501,241.21370485988155 44.56446991406847,241.23773788593826 44.94023741304409,241.30983694262977 45.27179697097745,241.3579029625398 45.6033565288526,241.41798546724021 45.901760131004266,241.45403495934443 46.22226770367706,241.51411742826167 46.53172329108929,241.5501668988727 46.796970937401056,241.59823284714366 47.12853049533442,241.62226581592404 47.46009005326778,241.67033174274547 47.802701596403494,241.71839765520417 48.112157183815725,241.75444708016585 48.41056078590918,241.8025129676098 48.70896438811906,241.850578840691 49.01841997547308,241.89864469945314 49.29471960704541,241.93469408414967 49.55996725341538,241.98275991783885 49.86942284082761,242.0308257372526 50.156774457660504,241.99477637404925 50.39991813345114,242.09090799135447 50.74252967664506,242.06687509237963 50.99672533769626,242.00679282935744 51.35038886620896,242.102924439474 51.63774048304185,242.3672860719962 51.79246827674797,242.61963086250762 52.090871878841426,242.64366367914772 52.36717151047196,242.64366367914772 52.68767908314476,242.66769649214984 53.00818665581755,242.6917293016013 53.31764224311337,242.7037457049737 53.6602537863655,242.72777850907005 54.00286532950122,242.75181130954297 54.31232091691345,242.77584410646523 54.61072451900691,242.77584410646523 54.842816209595185,242.55954880533682 54.964388047519606,242.271154619375 55.10806385590695,242.00679282935744 55.43962341384031,242.11494088672043 55.738027015991975,242.18703955135425 56.069586573925335,242.19905599234335 56.39009414659813,242.21107243241568 56.69954973395215,242.2471217472921 57.05321326240664,242.271154619375 57.384772820281796,242.2831710541068 57.7052803930128,242.30720392082003 58.003683995164465,242.3432532142033 58.33524355303962,242.45140104602615 58.68890708149411,242.49946672577062 58.97625869838521,242.52349956028047 59.363078182563186,242.55954880533682 59.63937781419372,242.67971289732668 59.87146950472379,242.8118932951329 59.99304134264821,243.05222101368417 60.22513303317828,243.17238473867474 60.55669259111164,243.14835200080415 60.93246009002905,243.17238473867474 61.275071633281186,243.17238473867474 61.61768317647511,243.14835200080415 61.93819074914791,243.124319259412 62.23659435118316,242.92004081276536 62.512893982813694,242.76382770847704 62.83340155542828,242.6917293016013 63.12075317231938,242.67971289732668 63.40810478921048,242.77584410646523 63.70650839130394,243.00415549858008 64.01596397877438,243.05222101368417 64.3254195661284,243.0642373901792 64.63487515348243,243.0402046362433 64.966434711474,243.01617187868396 65.33115022513084,242.9681063529133 65.68481375364354,242.93205719917023 66.02742529677926,242.90802442548738 66.37003683997318,242.82390968955588 66.7126483831089,242.73979490975034 67.0,242.63164727127878 66.7458043389488,242.63164727127878 66.43634875153657,242.63164727127878 66.11584117886377,242.67971289732668 65.77322963572806,242.7037457049737 65.46377404831583,242.73979490975034 65.16537044616416,242.73979490975034 64.82275890297024,242.77584410646523 64.51330331561621,242.7998768998077 64.18174375768285,242.84794247570971 63.82808022928657,242.82390968955588 63.485468686092645,242.6917293016013 63.176013098680414,242.67971289732668 62.87760949652875,242.64366367914772 62.54604993859539,242.6917293016013 62.34711420390522,242.85995886748424 62.092918542795815,243.0642373901792 61.739255014341325,243.11230288736988 61.40769545646617,243.14835200080415 61.076135898474604,243.17238473867474 60.74457634059945,243.196417472951 60.41301678266609,243.196417472951 60.026197298429906,243.16036837021238 59.738845681538805,243.23246656759875 59.41833810892422,243.196417472951 59.16414244787302,243.0402046362433 59.08677855093265,242.75181130954297 58.987310683587566,242.46341746728285 58.677855096175335,242.43938462383812 58.34629553830018,242.37930249952478 58.01473598036682,242.3312367839826 57.68317642249167,242.29518748790724 57.362668849818874,242.3192203528306 57.04216127714608,242.271154619375 56.77691363077611,242.271154619375 56.47851002868265,242.2471217472921 56.158002456009854,242.21107243241568 55.8264428981347,242.18703955135425 55.51698731072247,242.11494088672043 55.22963569388958,241.99477637404925 55.008595988561865,242.102924439474 54.85386819485575,242.40333535191894 54.699140401149634,242.64366367914772 54.367580843216274,242.7037457049737 54.024969300080556,242.6917293016013 53.68235775688663,242.67971289732668 53.39500613999553,242.6917293016013 53.09660253790207,242.63164727127878 52.77609496522928,242.53551597619662 52.466639377817046,242.475433887681 52.33401555463206,242.2831710541068 52.19033974624472,242.09090799135447 51.99140401149634,241.97074346078443 51.65984445356298,241.89864469945314 51.32828489562962,241.8025129676098 50.99672533769626,241.71839765520417 50.654113794560544,241.70638117844646 50.31150225136662,241.70638117844646 49.97994269343326,241.69436470075743 49.6483831354999,241.69436470075743 49.34997953334823,241.59823284714366 49.04052394599421,241.5501668988727 48.70896438811906,241.5381504095567 48.43266475648852,241.67033174274547 48.09005321323639,241.59823284714366 47.736389684840105,241.52613391938212 47.426934097427875,241.5021009362681 47.12853049533442,241.46605145491776 46.796970937401056,241.41798546724021 46.45435939420713,241.3579029625398 46.1449038067949,241.30983694262977 45.83544821944088,241.30983694262977 45.51494064676808,241.29782043540035 45.20548505941406,241.29782043540035 44.907081457204185,241.17765531406621 44.68604175199289,241.12958924047416 44.343430208740756,241.08152315256302 44.0118706508656,241.02144052251242 43.68031109293224,240.9853909337544 43.35980352025945,240.90127519529779 43.01719197706552,240.87724211909517 42.68563241919037,240.80514286905236 42.343020875996444,240.74506013607606 41.989357347541954,240.68497738070437 41.635693819087464,240.58884492557263 41.31518624647288,240.52876211202238 41.094146541145165,240.55279524014622 40.80679492431227,240.5407786765427 40.45313139585778,240.48069584506447 40.088415882142726,240.42061299126362 39.7458043389488,240.34851353711565 39.43634875153657,240.31246379796357 39.10478919366142,240.2643974665698 38.7290216946858,240.19229794260173 38.39746213675244,240.1562481685396 38.07695456407964,240.09616519387055 37.712239050422795,240.0360821968061 37.3585755219101,239.97599917737534 37.0380679492373,239.951965963337 36.717560376622714,239.90389952450641 36.386000818689354,239.83179983941955 36.05444126075599,239.77171674391138 35.72288170288084,239.69961699971464 35.380270159686916,239.69961699971464 34.982398690190166,239.6034839573549 34.650839132256806,239.55541741469642 34.30822758906288,239.4833175738313 33.95456406060839,239.38718440258526 33.634056487935595,239.41121770077734 33.33565288584214,239.3992010521033 33.01514531316934,239.38718440258526 32.694637740496546,239.36315110079886 32.363078182563186,239.36315110079886 32.07572656573029,239.41121770077734 31.722063037275802,239.3391177954618 31.401555464603007,239.29105117401923 31.202619729854632,239.0987845450145 31.05894392140908,238.7983674784191 30.882112157181837,238.55803342229046 30.605812525609508,238.42584953879123 30.30740892351605,238.40181609378487 29.964797380322125,238.3056822779472 29.6221858371282,238.25761534857156 29.334834220295306,238.23358187849226 29.047482603404205,238.16148144679028 28.72697503073141,238.11341447439918 28.340155546437018,238.04131398901518 27.986492018040735,237.9812302265491 27.64388047484681,237.92114644170215 27.378632828535046,237.84904587033088 27.024969300080556,237.77694526677078 26.715513712668326,237.76492849635542 26.43921408103779,237.72887817978335 26.052394596859813,237.70484463093453 25.698731068405323,237.72887817978335 25.378223495732527,237.7529117250524 25.112975849420764,237.77694526677078 24.7482603356475,237.71686140580277 24.41670077777235,237.69282785516407 24.096193205099553,237.6687943009456 23.764633647166193,237.6327439628949 23.455178059753962,237.5846768329502 23.14572247239994,237.5606432626082 22.858370855508838,237.54862647609843 22.53786328289425,237.536609688701 22.25051166600315,237.536609688701 21.907900122809224,237.536609688701 21.598444535396993,237.48854253011814 21.26688497752184,237.4645089454425 20.97953336063074,237.52459290038678 20.692181743797846,237.62072718176933 20.360622185922693,237.5606432626082 19.99590667214943,237.47652573822415 19.697503070055973,237.30829055783397 19.575931232131552,237.20013927777472" stroke="#4DD2FF" stroke-linecap="round" stroke-linejoin="round" stroke-width="0.5"><title>2026-02-01 11.1km</title><desc>1194862731</desc></polyline></svg>