<?xml version="1.0" encoding="utf-8" ?>
<svg baseProfile="full" height="200mm" version="1.1" viewBox="0,0,200,200" width="200mm" xmlns="http://www.w3.org/2000/svg" xmlns:ev="http://www.w3.org/2001/xml-events" xmlns:xlink="http://www.w3.org/1999/xlink"><defs /><rect fill="#1a1a1a" height="200" width="200" x="0" y="0" /><rect fill="#1a1a1a" height="200" width="180" x="10" y="0" /><text alignment-baseline="middle" fill="#e1ed5e" style="dominant-baseline: central; font-size:9.0px; font-family:Arial;" text-anchor="middle" x="100.0" y="100.0">2026</text><line stroke="#e1ed5e" stroke-width="0.3" x1="100.0" x2="100.0" y1="15.0" y2="10.0" /><path d="M 100.0 14.0 a86.0,86.0 0 0,1 42.46469731375804,11.215312516191453" fill="none" id="id73" stroke="none" /><text fill="#e1ed5e" style="font-size:6.75px; font-family:Arial;" text-anchor="middle"><textPath startOffset="22.20632615414155" xlink:href="#id73">January</textPath></text><path d="M 103.95276090670814 79.375362276772 l 3.8358101534515834 -20.014414394697965 a41.37867078825347,41.37867078825347 0 0,0 0.6983805170932597,0.14008856170611456 l -4.179757080011968 19.945421876914644" fill="red" stroke="none" /><path d="M 104.66035177308747 79.52364482259891 l 5.400204483365658 -23.727072636564564 a45.333848531684694,45.333848531684694 0 0,0 0.7593987662988313,0.17972515279283002 l -5.807826936627013 23.630601571630866" fill="red" stroke="none" /><path d="M 105.36241919743992 79.69619591428918 l 6.930059519235128 -26.239382935231944 a48.139103554868626,48.139103554868626 0 0,0 0.7993431914505265,0.21849068958741877 l -7.380700599909365 26.11620570481823" fill="red" stroke="none" /><path d="M 106.74666289553966 80.11325718540242 l 8.468708006434737 -24.962714263852337 a47.360123647604325,47.360123647604325 0 0,0 0.7697553567007558,0.26855252941026114 l -8.897145367198766 24.81324088126987" fill="red" stroke="none" /><path d="M 107.4271985657038 80.35727306442388 l 9.921517183154783 -26.239456383359574 a49.05255023183926,49.05255023183926 0 0,0 0.7872159632299675,0.3054275635994492 l -10.371716311384418 26.064786115869577" fill="red" stroke="none" /><path d="M 108.09893153111575 80.62456947434976 l 11.214042753726398 -26.82784827254419 a50.07727975270479,50.07727975270479 0 0,0 0.7924520679762851,0.3392866191216293 l -11.674178579492999 26.630842125459772" fill="red" stroke="none" /><path d="M 108.76106565485865 80.91482961587045 l 11.759443169769431 -25.61685819499307 a49.1870170015456,49.1870170015456 0 0,0 0.7664316040039446,0.3598499148056633 l -12.198652985072975 25.410643297547406" fill="red" stroke="none" /><path d="M 109.41281617654863 81.2277094730956 l 13.191244043399008 -26.307734151967807 a50.42967542503864,50.42967542503864 0 0,0 0.7726294848718689,0.3957708312433747 l -13.642134015859632 26.07677079541193" fill="red" stroke="none" /><path d="M 110.05341064243156 81.56283822128135 l 13.829266571505542 -25.36178359050943 a49.887171561051005,49.887171561051005 0 0,0 0.750388369546031,0.41759031522411666 l -14.263779030123608 25.11997787772513" fill="red" stroke="none" /><line stroke="#e1ed5e" stroke-width="0.3" x1="143.23703022742887" x2="145.7803849466894" y1="26.81831364943548" y2="22.513508569990506" /><path d="M 143.74570117128098 25.957352633546492 a86.0,86.0 0 0,1 28.547481713284135,27.462654790039103" fill="none" id="id74" stroke="none" /><text fill="#e1ed5e" style="font-size:6.75px; font-family:Arial;" text-anchor="middle"><textPath startOffset="19.985693538727396" xlink:href="#id74">February</textPath></text><path d="M 110.68208982089419 81.91981866633111 l 26.12147157571278 -44.21241074638614 a72.35239567233384,72.35239567233384 0 0,0 1.066811728580257,0.6427421298317019 l -26.87864537051067 43.75622200709582" fill="red" stroke="none" /><path d="M 111.2981086023043 82.29822771554956 l 17.624450712139506 -27.613826714427546 a53.75888717156105,53.75888717156105 0 0,0 0.7757483557202596,0.5045683094048206 l -18.097166093644045 27.306359480863197" fill="red" stroke="none" /><path d="M 111.90073688211348 82.69761687909136 l 17.242798723874714 -25.069162737779305 a51.426584234930445,51.426584234930445 0 0,0 0.7250385804543447,0.5079358597715147 l -17.67176844391271 24.768642035243854" fill="red" stroke="none" /><path d="M 113.06298171725822 83.55741782278167 l 8.491370760787856 -10.688222991770974 a34.650695517774345,34.650695517774345 0 0,0 0.4638187022582375,0.37504246746415526 l -8.674092861610584 10.540474427042689" fill="red" stroke="none" /><path d="M 113.6212207817346 84.01681056812373 l 20.53559185199468 -24.09653730202057 a52.65996908809892,52.65996908809892 0 0,0 0.6848459105252152,0.5938916250238008 l -20.94733156116666 23.7394806835771" fill="red" stroke="none" /><path d="M 114.68862486808459 84.99185889309783 l 25.248607771702037 -25.797831423544594 a57.097372488408034,57.097372488408034 0 0,0 0.6964906064781607,0.6934996544699576 l -25.68893417834752 25.359395918424514" fill="red" stroke="none" /><path d="M 115.9244219780498 86.31012108654704 l 35.95565006569604 -30.91028963766174 a68.41576506955178,68.41576506955178 0 0,0 0.7600319933754881,0.8996381537254433 l -36.482392672558646 30.286792534307192" fill="red" stroke="none" /><path d="M 116.38621287248628 86.86637796730983 l 29.19054216277751 -23.3963485448762 a58.409582689335394,58.409582689335394 0 0,0 0.6220507058418713,0.7899412261809617 l -29.588946949213348 22.8904149247422" fill="red" stroke="none" /><path d="M 116.82858285166822 87.43820079747576 l 22.95955253708497 -17.138299243187742 a49.65069551777434,49.65069551777434 0 0,0 0.5053433308024041,0.6892877352982215 l -23.251158480401003 16.740549064218026" fill="red" stroke="none" /><path d="M 117.2510076193507 88.02491185347247 l 31.028197851011434 -21.53876529953925 a58.77125193199382,58.77125193199382 0 0,0 0.5697328102558632,0.836012597714197 l -31.39435512693603 21.001474678554647" fill="red" stroke="none" /><line stroke="#e1ed5e" stroke-width="0.3" x1="172.23445277983987" x2="176.4835382374775" y1="55.19839476539836" y2="52.563006222186495" /><path d="M 173.08426987136738 54.67131705675599 a86.0,86.0 0 0,1 12.851231095245387,41.99856678651699" fill="none" id="id75" stroke="none" /><text fill="#e1ed5e" style="font-size:6.75px; font-family:Arial;" text-anchor="middle"><textPath startOffset="22.20632615414155" xlink:href="#id75">March</textPath></text><path d="M 117.84615892207809 88.93136811851018 l 33.10740279604771 -20.53403512216327 a59.958268933539415,59.958268933539415 0 0,0 0.5364386426056168,0.8817640813996975 l -33.45595723693955 19.961103267556492" fill="red" stroke="none" /><path d="M 118.3937258080291 89.86733742301442 l 41.96157541367999 -23.11562590978474 a68.90726429675425,68.90726429675425 0 0,0 0.5633723421316834,1.0438433885397065 l -42.353255855030135 22.389901537912575" fill="red" stroke="none" /><path d="M 118.89224826269711 90.83032412892265 l 28.357143671851393 -13.763624767406439 a52.52086553323029,52.52086553323029 0 0,0 0.3877585644412514,0.8167184274761756 l -28.5898604301344 13.273463924289723" fill="red" stroke="none" /><path d="M 119.196687751892 91.48605970444005 l 21.426199290310027 -9.502752968437962 a44.43894899536322,44.43894899536322 0 0,0 0.3041090388314745,0.7019255902587767 l -21.586599038984183 9.132528233592582" fill="red" stroke="none" /><path d="M 119.61058180528143 92.48833698450437 l 25.46474532940165 -9.75404950190546 a48.26893353941267,48.26893353941267 0 0,0 0.29052246272865556,0.7784557614318041 l -25.628872380631933 9.31427060344432" fill="red" stroke="none" /><path d="M 119.97218684219823 93.5106431181261 l 47.05745325526546 -15.289893417195044 a70.47913446676971,70.47913446676971 0 0,0 0.36496282771544847,1.1570318989442325 l -47.313671566749115 14.477611351824391" fill="red" stroke="none" /><path d="M 120.18372546131832 94.20196356495316 l 27.889104424139987 -8.011506295103368 a50.01700154559505,50.01700154559505 0 0,0 0.2305860688674412,0.8295407750098842 l -28.022877263573793 7.530254216674532" fill="red" stroke="none" /><path d="M 120.37134235888165 94.90015583598534 l 29.23685699552456 -7.319272922520471 a51.139103554868626,51.139103554868626 0 0,0 0.2064246955008661,0.8557636299466571 l -29.358514491286247 6.814924060914407" fill="red" stroke="none" /><path d="M 120.6074358757038 95.95851677861258 l 55.77521505064631 -10.93850768994637 a77.83771251931994,77.83771251931994 0 0,0 0.24653900479690707,1.3170212218229098 l -55.95523977935307 9.976808390660898" fill="red" stroke="none" /><path d="M 120.67395015179393 96.31383870115 l 27.858935256435945 -4.967242748262642 a49.298299845440496,49.298299845440496 0 0,0 0.14176345513733468,0.8366959369896251 l -27.940310573093505 4.486961022957179" fill="red" stroke="none" /><path d="M 120.78858239683441 97.02765380044208 l 28.068487824385613 -4.013225217552801 a49.353941267387945,49.353941267387945 0 0,0 0.11300642659050376,0.8420291382344254 l -28.133410250033954 3.529477737253711" fill="red" stroke="none" /><path d="M 120.83666639777658 97.38593545837742 l 24.613858518018258 -3.0879322803446203 a45.80680061823802,45.80680061823802 0 0,0 0.09141651637834955,0.7832008852039699 l -24.663365387400198 2.663787656815798" fill="red" stroke="none" /><path d="M 120.94382443527127 98.46500227214037 l 58.674154213893104 -4.300298337620452 a79.83153013910356,79.83153013910356 0 0,0 0.08864876676462315,1.3713571849758208 l -58.73948357166214 3.2896820883915963" fill="red" stroke="none" /><line stroke="#e1ed5e" stroke-width="0.3" x1="184.98032266829074" x2="189.97916517819016" y1="98.17113171792111" y2="98.06355123074" /><path d="M 185.9800911702706 98.14961562048488 a86.0,86.0 0 0,1 -9.607161424134198,41.387399972396054" fill="none" id="id76" stroke="none" /><text fill="#e1ed5e" style="font-size:6.75px; font-family:Arial;" text-anchor="middle"><textPath startOffset="21.466115282336823" xlink:href="#id76">April</textPath></text><path d="M 120.99513854157772 99.54816195383933 l 25.36661472720539 -0.5459169327867458 a46.37248840803709,46.37248840803709 0 0,0 0.010305717777815582,0.7981891991912811 l -25.37225345210092 0.10919147553500191" fill="red" stroke="none" /><path d="M 120.99980553446 99.90962569577887 l 28.080110911170173 -0.12084495172514102 a49.08037094281298,49.08037094281298 0 0,0 -0.0036359269575205575,0.8448613762892465 l -28.07803068692315 -0.3625259027677902" fill="red" stroke="none" /><path d="M 120.9764740272857 100.99374915477107 l 62.92942208185712 2.9812474643131925 a84.0,84.0 0 0,0 -0.0808545964498828,1.4437131346583068 l -62.86878113451971 -4.064032315306923" fill="red" stroke="none" /><path d="M 120.92983693683757 101.71520430193887 l 31.72517786959372 2.599884639613678 a52.831530139103556,52.831530139103556 0 0,0 -0.08207857143276741,0.9057301962635432 l -31.675724701883876 -3.1455962244257916" fill="red" stroke="none" /><path d="M 120.8583938346157 102.4346265915055 l 23.856586456902036 2.7845806456168103 a45.01854714064915,45.01854714064915 0 0,0 -0.09646507986803965,0.7689215993869911 l -23.80511986778715 -3.1948199992911963" fill="red" stroke="none" /><line stroke="#e1ed5e" stroke-width="0.3" x1="174.80103733775053" x2="179.2010983576182" y1="140.37084112569926" y2="142.7455964860345" /><path d="M 175.68104954172406 140.8457921977663 a86.0,86.0 0 0,1 -30.038265399797805,32.042727171017184" fill="none" id="id77" stroke="none" /><text fill="#e1ed5e" style="font-size:6.75px; font-family:Arial;" text-anchor="middle"><textPath startOffset="22.206326154141568" xlink:href="#id77">May</textPath></text><line stroke="#e1ed5e" stroke-width="0.3" x1="143.8653032363475" x2="146.44561519142675" y1="172.8068346515853" y2="177.08958963109032" /><path d="M 144.38136562736335 173.6633856474863 a86.0,86.0 0 0,1 -40.68145358897372,12.25698825130547" fill="none" id="id78" stroke="none" /><text fill="#e1ed5e" style="font-size:6.75px; font-family:Arial;" text-anchor="middle"><textPath startOffset="21.466115282336833" xlink:href="#id78">June</textPath></text><line stroke="#e1ed5e" stroke-width="0.3" x1="102.19456741930631" x2="102.32365962044197" y1="184.97166512339345" y2="189.96999836594603" /><path d="M 102.22038585953345 185.97133177190398 a86.0,86.0 0 0,1 -42.740103519485714,-10.115201625700543" fill="none" id="id79" stroke="none" /><text fill="#e1ed5e" style="font-size:6.75px; font-family:Arial;" text-anchor="middle"><textPath startOffset="22.20632615414155" xlink:href="#id79">July</textPath></text><line stroke="#e1ed5e" stroke-width="0.3" x1="58.666819895761336" x2="56.23545636021788" y1="174.27360380694188" y2="178.64263932499728" /><path d="M 58.180547188652646 175.14741091055294 a86.0,86.0 0 0,1 -31.652253787137756,-30.449443065178592" fill="none" id="id80" stroke="none" /><text fill="#e1ed5e" style="font-size:6.75px; font-family:Arial;" text-anchor="middle"><textPath startOffset="22.20632615414155" xlink:href="#id80">August</textPath></text><line stroke="#e1ed5e" stroke-width="0.3" x1="26.63291911575756" x2="22.317208475507996" y1="142.92168965132927" y2="145.44649492493687" /><path d="M 25.769776987707644 143.4266507060508 a86.0,86.0 0 0,1 -11.730757126820373,-40.83630448921669" fill="none" id="id81" stroke="none" /><text fill="#e1ed5e" style="font-size:6.75px; font-family:Arial;" text-anchor="middle"><textPath startOffset="21.46611528233685" xlink:href="#id81">September</textPath></text><line stroke="#e1ed5e" stroke-width="0.3" x1="15.007084014347285" x2="10.007500721073583" y1="101.09737516637583" y2="101.16192664675087" /><path d="M 14.007167355692545 101.11028546245083 a86.0,86.0 0 0,1 10.666146001902534,-42.60595125391555" fill="none" id="id82" stroke="none" /><text fill="#e1ed5e" style="font-size:6.75px; font-family:Arial;" text-anchor="middle"><textPath startOffset="22.20632615414155" xlink:href="#id82">October</textPath></text><line stroke="#e1ed5e" stroke-width="0.3" x1="26.266209847984243" x2="21.928928074336255" y1="57.711370442889674" y2="55.22380399835377" /><path d="M 25.398753493254645 57.213857153982495 a86.0,86.0 0 0,1 29.58750427330803,-30.492523968695096" fill="none" id="id83" stroke="none" /><text fill="#e1ed5e" style="font-size:6.75px; font-family:Arial;" text-anchor="middle"><textPath startOffset="21.46611528233685" xlink:href="#id83">November</textPath></text><line stroke="#e1ed5e" stroke-width="0.3" x1="56.762969772571076" x2="54.21961505331055" y1="26.818313649435495" y2="22.513508569990535" /><path d="M 56.25429882871897 25.957352633546506 a86.0,86.0 0 0,1 42.265352541879196,-11.944610805530505" fill="none" id="id84" stroke="none" /><text fill="#e1ed5e" style="font-size:6.75px; font-family:Arial;" text-anchor="middle"><textPath startOffset="22.20632615414155" xlink:href="#id84">December</textPath></text></svg>