<?xml version="1.0" encoding="utf-8" ?>
<svg baseProfile="full" height="200mm" version="1.1" viewBox="0,0,200,200" width="200mm" xmlns="http://www.w3.org/2000/svg" xmlns:ev="http://www.w3.org/2001/xml-events" xmlns:xlink="http://www.w3.org/1999/xlink"><defs /><rect fill="#1a1a1a" height="200" width="200" x="0" y="0" /><rect fill="#1a1a1a" height="200" width="180" x="10" y="0" /><text alignment-baseline="middle" fill="#e1ed5e" style="dominant-baseline: central; font-size:9.0px; font-family:Arial;" text-anchor="middle" x="100.0" y="100.0">2021</text><line stroke="#e1ed5e" stroke-width="0.3" x1="100.0" x2="100.0" y1="15.0" y2="10.0" /><path d="M 100.0 14.0 a86.0,86.0 0 0,1 42.46469731375804,11.215312516191453" fill="none" id="id13" stroke="none" /><text fill="#e1ed5e" style="font-size:6.75px; font-family:Arial;" text-anchor="middle"><textPath startOffset="22.20632615414155" xlink:href="#id13">January</textPath></text><line stroke="#e1ed5e" stroke-width="0.3" x1="143.23703022742887" x2="145.7803849466894" y1="26.81831364943548" y2="22.513508569990506" /><path d="M 143.74570117128098 25.957352633546492 a86.0,86.0 0 0,1 28.547481713284135,27.462654790039103" fill="none" id="id14" stroke="none" /><text fill="#e1ed5e" style="font-size:6.75px; font-family:Arial;" text-anchor="middle"><textPath startOffset="19.985693538727396" xlink:href="#id14">February</textPath></text><path d="M 112.19680574252982 82.90503203632743 l 23.29183397943826 -32.645691347305956 a61.10300105564772,61.10300105564772 0 0,0 0.8509456592173128,0.618248210442931 l -23.850324955009363 32.23992390204635" fill="red" stroke="none" /><path d="M 112.77801427241765 83.33499621200491 l 28.08426783384328 -36.62732094800792 a67.15502940732921,67.15502940732921 0 0,0 0.9112855780190439,0.7112728482161865 l -28.710585967021753 36.13846971056851" fill="red" stroke="none" /><path d="M 113.6212207817346 84.01681056812373 l 8.7569392538885 -10.27542400061658 a34.50067863067411,34.50067863067411 0 0,0 0.44868329928248396,0.38909373573911954 l -8.93251635181775 10.12316527145779" fill="red" stroke="none" /><path d="M 115.19652480421416 85.50635884689758 l 40.06189867327217 -38.208918865538124 a76.36133313225758,76.36133313225758 0 0,0 0.8990008041996982,0.9589913769018765 l -40.71366679944233 37.513658071758194" fill="red" stroke="none" /><path d="M 115.4437574822437 85.77008943001954 l 40.40623564461557 -37.23039036021582 a75.94329663700799,75.94329663700799 0 0,0 0.8775297086453725,0.9689902218784819 l -41.04110899387698 36.52934735106779" fill="red" stroke="none" /><path d="M 115.9244219780498 86.31012108654704 l 43.954862835808434 -37.787038720091935 a78.96456039813,78.96456039813 0 0,0 0.8772187548352013,1.0383503166864512 l -44.59879220413075 37.024829453776384" fill="red" stroke="none" /><path d="M 116.15771136456269 86.58626213691792 l 17.96086419366485 -14.91067136009319 a44.34353792791434,44.34353792791434 0 0,0 0.48250310872358965,0.5914917594853524 l -18.214865794464846 14.599295430999737" fill="red" stroke="none" /><path d="M 116.60985879189232 87.15038557335679 l 49.371183349147586 -38.194224151581615 a83.42044940431308,83.42044940431308 0 0,0 0.8688599696209661,1.143317873400346 l -50.02131925899267 37.33872150230023" fill="red" stroke="none" /><line stroke="#e1ed5e" stroke-width="0.3" x1="172.23445277983987" x2="176.4835382374775" y1="55.19839476539836" y2="52.563006222186495" /><path d="M 173.08426987136738 54.67131705675599 a86.0,86.0 0 0,1 12.851231095245387,41.99856678651699" fill="none" id="id15" stroke="none" /><text fill="#e1ed5e" style="font-size:6.75px; font-family:Arial;" text-anchor="middle"><textPath startOffset="22.20632615414155" xlink:href="#id15">March</textPath></text><path d="M 118.03404312379186 89.2402003453031 l 50.259254550998875 -29.986592914914592 a79.52510933494193,79.52510933494193 0 0,0 0.6912637783706245,1.1815938736813956 l -50.76797800383982 29.1170196288793" fill="red" stroke="none" /><path d="M 118.3937258080291 89.86733742301442 l 49.78039561919623 -27.422826512831147 a77.83396169506861,77.83396169506861 0 0,0 0.6363552775611204,1.1790696837035382 l -50.24505899597581 26.56187584579515" fill="red" stroke="none" /><path d="M 118.89224826269711 90.83032412892265 l 41.19769414546828 -19.996005594296236 a66.79399788870457,66.79399788870457 0 0,0 0.49313628919974667,1.0386707904879149 l -41.53578862850979 19.283892388167782" fill="red" stroke="none" /><path d="M 119.196687751892 91.48605970444005 l 43.48566531762477 -19.286366638456634 a68.57065299351531,68.57065299351531 0 0,0 0.46924951749152116,1.0830925835335359 l -43.81120554495897 18.534974910336494" fill="red" stroke="none" /><path d="M 119.7369772167798 92.82701384747503 l 46.96870765808856 -17.069781554342327 a70.97436284120042,70.97436284120042 0 0,0 0.40741622771397346,1.1518205390066567 l -47.255576966612345 16.258763388909056" fill="red" stroke="none" /><path d="M 119.97218684219823 93.5106431181261 l 45.75742158146213 -14.86748752064971 a69.11220027145227,69.11220027145227 0 0,0 0.35788441829685363,1.1345914067374838 l -46.00656148352719 14.077645947485808" fill="red" stroke="none" /><path d="M 120.08093135843002 93.85539295169968 l 46.24277210725779 -14.14992454042314 a69.35922183682703,69.35922183682703 0 0,0 0.3395104278927173,1.1446603831796485 l -46.479488432262215 13.35183477049696" fill="red" stroke="none" /><line stroke="#e1ed5e" stroke-width="0.3" x1="184.98032266829074" x2="189.97916517819016" y1="98.17113171792111" y2="98.06355123074" /><path d="M 185.9800911702706 98.14961562048488 a86.0,86.0 0 0,1 -9.607161424134198,41.387399972396054" fill="none" id="id16" stroke="none" /><text fill="#e1ed5e" style="font-size:6.75px; font-family:Arial;" text-anchor="middle"><textPath startOffset="21.466115282336823" xlink:href="#id16">April</textPath></text><path d="M 120.99980553446 99.90962569577887 l 18.697459187973426 -0.08046597679408111 a39.69763233298145,39.69763233298145 0 0,0 -0.002940843534320574,0.6833484679108448 l -18.6960740471496 -0.2413919693204484" fill="red" stroke="none" /><path d="M 120.95626037817324 101.35467743843564 l 47.130253509228986 3.0466452479853277 a68.22862313376564,68.22862313376564 0 0,0 -0.08584928670419378,1.1713453095028774 l -47.070827663860456 -3.8574636939849754" fill="red" stroke="none" /><path d="M 120.70491114924044 103.5080841355445 l 48.70072375127478 8.251483676985004 a70.39481224551349,70.39481224551349 0 0,0 -0.2127048227544131,1.1929616058968515 l -48.55147248618118 -9.088564033615073" fill="red" stroke="none" /><path d="M 120.41448212921028 104.9243191809786 l 58.33412869616597 14.071180793422192 a81.00723872719047,81.00723872719047 0 0,0 -0.33864376287839515,1.3527134966149916 l -58.08327361899251 -15.07322212943458" fill="red" stroke="none" /><path d="M 119.79798401119884 107.00284435728193 l 46.35254136236796 16.39559020461497 a70.16679233901372,70.16679233901372 0 0,0 -0.41256650175964354,1.1352058225806303 l -46.06345059960309 -17.19104382420173" fill="red" stroke="none" /><path d="M 119.41010516605496 108.01547362559984 l 52.48719585771851 21.67477870315648 a77.78645754788116,77.78645754788116 0 0,0 -0.5217212486735798,1.233194917898913 l -52.106323627852625 -22.575048146721556" fill="red" stroke="none" /><path d="M 119.12269723197855 108.67885076344098 l 57.368091695935625 26.036552290322952 a84.0,84.0 0 0,0 -0.6089015326406746,1.3115197308846775 l -56.911415546455125 -27.02019208848646" fill="red" stroke="none" /><path d="M 118.81262510543309 109.33194174019688 l 41.449623403766765 20.560951413704778 a67.2690393605791,67.2690393605791 0 0,0 -0.5234855187859839,1.0328865916487815 l -41.08955921519451 -21.271392217056256" fill="red" stroke="none" /><line stroke="#e1ed5e" stroke-width="0.3" x1="174.80103733775053" x2="179.2010983576182" y1="140.37084112569926" y2="142.7455964860345" /><path d="M 175.68104954172406 140.8457921977663 a86.0,86.0 0 0,1 -30.038265399797805,32.042727171017184" fill="none" id="id17" stroke="none" /><text fill="#e1ed5e" style="font-size:6.75px; font-family:Arial;" text-anchor="middle"><textPath startOffset="22.206326154141568" xlink:href="#id17">May</textPath></text><path d="M 117.55443506779139 111.5257021239791 l 41.457163800575024 27.219498606773133 a70.59432966370079,70.59432966370079 0 0,0 -0.675678144667413,1.0100471490632421 l -40.98248255049689 -27.92908267004218" fill="red" stroke="none" /><path d="M 116.71984013943494 112.70617746262583 l 26.437569576530727 20.091128139893193 a54.205398884029556,54.205398884029556 0 0,0 -0.5709459382439361,0.738024589467285 l -26.087816821068724 -20.543230723473734" fill="red" stroke="none" /><path d="M 116.27256486870786 113.27417163493432 l 31.045727364503556 25.32522173933858 a61.064997737897755,61.064997737897755 0 0,0 -0.6714358211510627,0.8087877002461586 l -30.60519554345895 -25.85587069669851" fill="red" stroke="none" /><path d="M 115.07121518719521 114.62390073753431 l 12.000605668585536 11.644427068946042 a37.721459809983415,37.721459809983415 0 0,0 -0.4561770645398154,0.4621049579545021 l -11.798387978990183 -11.84927252088121" fill="red" stroke="none" /><path d="M 114.55890576462653 115.13401014063108 l 25.332627765383943 26.33331458341146 a57.54019001658875,57.54019001658875 0 0,0 -0.719702190461984,0.6805233426275604 l -24.87558974053115 -26.765472562784943" fill="red" stroke="none" /><path d="M 114.0293411484842 115.62618273729858 l 29.81896156639064 33.21300248823497 a65.63489669733072,65.63489669733072 0 0,0 -0.8471828888570305,0.7475403991508541 l -29.242836324627024 -33.72136602915811" fill="red" stroke="none" /><line stroke="#e1ed5e" stroke-width="0.3" x1="143.8653032363475" x2="146.44561519142675" y1="172.8068346515853" y2="177.08958963109032" /><path d="M 144.38136562736335 173.6633856474863 a86.0,86.0 0 0,1 -40.68145358897372,12.25698825130547" fill="none" id="id18" stroke="none" /><text fill="#e1ed5e" style="font-size:6.75px; font-family:Arial;" text-anchor="middle"><textPath startOffset="21.466115282336833" xlink:href="#id18">June</textPath></text><path d="M 109.57404056367764 118.69057910512821 l 12.63496138934444 24.66615257864228 a48.713919469160004,48.713919469160004 0 0,0 -0.7496053675197976,0.3758676928265895 l -12.208502114141881 -24.87998811237817" fill="red" stroke="none" /><path d="M 109.2508944713604 118.85261126421891 l 7.784646531472026 15.864510760721082 a38.67154275373247,38.67154275373247 0 0,0 -0.6001221853489908,0.28809511833266055 l -7.510411678122802 -15.996160155553303" fill="red" stroke="none" /><path d="M 108.2653958097858 119.30500536409082 l 15.114792578715523 35.302743936806706 a59.4023525863369,59.4023525863369 0 0,0 -0.9434466647875316,0.3943607823969783 l -14.50487445443053 -35.55768976222366" fill="red" stroke="none" /><path d="M 107.59598834532513 119.57807347666477 l 6.044945030656114 15.58037908857789 a37.711958980545916,37.711958980545916 0 0,0 -0.6072160173709316,0.22959714036046436 l -5.775858792524907 -15.682124479044987" fill="red" stroke="none" /><path d="M 106.2309692047433 120.05430185196036 l 9.877838678971742 31.791708802263194 a54.29090634896697,54.29090634896697 0 0,0 -0.894830540366591,0.2696051014056019 l -9.329133164164906 -31.957029272774523" fill="red" stroke="none" /><path d="M 105.53697534728816 120.25689768951611 l 7.647889791255051 27.979629910764302 a50.00603227265873,50.00603227265873 0 0,0 -0.8322660093509963,0.21980901741764577 l -7.165133339092557 -28.107130277485535" fill="red" stroke="none" /><path d="M 103.7750983002368 120.6578951692458 l 2.7736810313306797 15.177992047137014 a36.42934700648469,36.42934700648469 0 0,0 -0.6178261621410057,0.10741699762824097 l -2.512005897717624 -15.22348762328626" fill="red" stroke="none" /><line stroke="#e1ed5e" stroke-width="0.3" x1="102.19456741930631" x2="102.32365962044197" y1="184.97166512339345" y2="189.96999836594603" /><path d="M 102.22038585953345 185.97133177190398 a86.0,86.0 0 0,1 -42.740103519485714,-10.115201625700543" fill="none" id="id19" stroke="none" /><text fill="#e1ed5e" style="font-size:6.75px; font-family:Arial;" text-anchor="middle"><textPath startOffset="22.20632615414155" xlink:href="#id19">July</textPath></text><path d="M 98.73552117531835 120.96189622390904 l -1.9708020891396223 32.670969306906926 a53.73035741215503,53.73035741215503 0 0,0 -0.9227222742609973,-0.06363633040818971 l 2.5328871241795494 -32.632204631982454" fill="red" stroke="none" /><path d="M 98.01472825383883 120.90594882070398 l -4.681301315484265 49.29654890069786 a70.51832302820088,70.51832302820088 0 0,0 -1.2074328715703897,-0.12515535403341513 l 5.529166783660248 -49.20866417820868" fill="red" stroke="none" /><line stroke="#e1ed5e" stroke-width="0.3" x1="58.666819895761336" x2="56.23545636021788" y1="174.27360380694188" y2="178.64263932499728" /><path d="M 58.180547188652646 175.14741091055294 a86.0,86.0 0 0,1 -31.652253787137756,-30.449443065178592" fill="none" id="id20" stroke="none" /><text fill="#e1ed5e" style="font-size:6.75px; font-family:Arial;" text-anchor="middle"><textPath startOffset="22.20632615414155" xlink:href="#id20">August</textPath></text><path d="M 89.4739219176387 118.17145234162733 l -25.315924183003737 43.70356235021454 a71.50640928969989,71.50640928969989 0 0,0 -1.0597662856356749,-0.6261286014446432 l 26.064458339667794 -43.261315176476145" fill="red" stroke="none" /><line stroke="#e1ed5e" stroke-width="0.3" x1="26.63291911575756" x2="22.317208475507996" y1="142.92168965132927" y2="145.44649492493687" /><path d="M 25.769776987707644 143.4266507060508 a86.0,86.0 0 0,1 -11.730757126820373,-40.83630448921669" fill="none" id="id21" stroke="none" /><text fill="#e1ed5e" style="font-size:6.75px; font-family:Arial;" text-anchor="middle"><textPath startOffset="21.46611528233685" xlink:href="#id21">September</textPath></text><line stroke="#e1ed5e" stroke-width="0.3" x1="15.007084014347285" x2="10.007500721073583" y1="101.09737516637583" y2="101.16192664675087" /><path d="M 14.007167355692545 101.11028546245083 a86.0,86.0 0 0,1 10.666146001902534,-42.60595125391555" fill="none" id="id22" stroke="none" /><text fill="#e1ed5e" style="font-size:6.75px; font-family:Arial;" text-anchor="middle"><textPath startOffset="22.20632615414155" xlink:href="#id22">October</textPath></text><path d="M 79.81627453868168 94.20196356495316 l -46.15988487722701 -13.260024511760733 a69.02669280651486,69.02669280651486 0 0,0 0.33788271249483265,-1.1391725360386717 l 45.924796267620465 14.052626434545944" fill="red" stroke="none" /><line stroke="#e1ed5e" stroke-width="0.3" x1="26.266209847984243" x2="21.928928074336255" y1="57.711370442889674" y2="55.22380399835377" /><path d="M 25.398753493254645 57.213857153982495 a86.0,86.0 0 0,1 29.58750427330803,-30.492523968695096" fill="none" id="id23" stroke="none" /><text fill="#e1ed5e" style="font-size:6.75px; font-family:Arial;" text-anchor="middle"><textPath startOffset="21.46611528233685" xlink:href="#id23">November</textPath></text><line stroke="#e1ed5e" stroke-width="0.3" x1="56.762969772571076" x2="54.21961505331055" y1="26.818313649435495" y2="22.513508569990535" /><path d="M 56.25429882871897 25.957352633546506 a86.0,86.0 0 0,1 42.265352541879196,-11.944610805530505" fill="none" id="id24" stroke="none" /><text fill="#e1ed5e" style="font-size:6.75px; font-family:Arial;" text-anchor="middle"><textPath startOffset="22.20632615414155" xlink:href="#id24">December</textPath></text></svg>