<?xml version="1.0" encoding="utf-8" ?>
<svg baseProfile="full" height="200mm" version="1.1" viewBox="0,0,200,200" width="200mm" xmlns="http://www.w3.org/2000/svg" xmlns:ev="http://www.w3.org/2001/xml-events" xmlns:xlink="http://www.w3.org/1999/xlink"><defs /><rect fill="#1a1a1a" height="200" width="200" x="0" y="0" /><rect fill="#1a1a1a" height="200" width="180" x="10" y="0" /><text alignment-baseline="middle" fill="#e1ed5e" style="dominant-baseline: central; font-size:9.0px; font-family:Arial;" text-anchor="middle" x="100.0" y="100.0">2026</text><line stroke="#e1ed5e" stroke-width="0.3" x1="100.0" x2="100.0" y1="15.0" y2="10.0" /><path d="M 100.0 14.0 a86.0,86.0 0 0,1 42.46469731375804,11.215312516191453" fill="none" id="id73" stroke="none" /><text fill="#e1ed5e" style="font-size:6.75px; font-family:Arial;" text-anchor="middle"><textPath startOffset="22.20632615414155" xlink:href="#id73">January</textPath></text><path d="M 103.95276090670814 79.375362276772 l 4.251684822560505 -22.184357022414854 a43.58810572687224,43.58810572687224 0 0,0 0.7356708960619945,0.14756866091757126 l -4.632922128089625 22.107884405420076" fill="red" stroke="none" /><path d="M 104.66035177308747 79.52364482259891 l 5.985689208312057 -26.299537927312997 a47.97209985315712,47.97209985315712 0 0,0 0.8035927816671085,0.19018444837913168 l -6.437505676941689 26.192607566792997" fill="red" stroke="none" /><path d="M 105.36241919743992 79.69619591428918 l 7.681409584585388 -29.084230375346422 a51.08149779735683,51.08149779735683 0 0,0 0.8482012430263187,0.23184544070667346 l -8.180908716835418 28.947698393813457" fill="red" stroke="none" /><path d="M 106.74666289553966 80.11325718540242 l 9.38687678931545 -27.669146573907792 a50.21806167400881,50.21806167400881 0 0,0 0.8162061033523624,0.2847582828326874 l -9.861764896731085 27.5034674379029" fill="red" stroke="none" /><path d="M 107.4271985657038 80.35727306442388 l 10.997198072077339 -29.084311786645983 a52.093979441997064,52.093979441997064 0 0,0 0.8360260987673458,0.3243651378769989 l -11.496207335844352 28.89070394487844" fill="red" stroke="none" /><path d="M 108.09893153111575 80.62456947434976 l 12.42985796172953 -29.73649653116805 a53.22980910425844,53.22980910425844 0 0,0 0.8423395302412396,0.3606458269430679 l -12.939881249761084 29.51813117626219" fill="red" stroke="none" /><path d="M 108.76106565485865 80.91482961587045 l 13.034390140941202 -28.394212130475672 a52.24302496328928,52.24302496328928 0 0,0 0.8140502893146321,0.3822075260558909 l -13.521218641555432 28.16563962177978" fill="red" stroke="none" /><path d="M 109.41281617654863 81.2277094730956 l 14.621425421574672 -29.159992162080812 a53.62041116005874,53.62041116005874 0 0,0 0.8215145210441784,0.4208116454759378 l -15.121200430207606 28.903987991292375" fill="red" stroke="none" /><path d="M 110.05341064243156 81.56283822128135 l 15.328621708846939 -28.11148259457102 a53.01908957415565,53.01908957415565 0 0,0 0.797497772181323,0.4438066467863886 l -15.810243570100296 27.84346055022445" fill="red" stroke="none" /><line stroke="#e1ed5e" stroke-width="0.3" x1="143.23703022742887" x2="145.7803849466894" y1="26.81831364943548" y2="22.513508569990506" /><path d="M 143.74570117128098 25.957352633546492 a86.0,86.0 0 0,1 28.547481713284135,27.462654790039103" fill="none" id="id74" stroke="none" /><text fill="#e1ed5e" style="font-size:6.75px; font-family:Arial;" text-anchor="middle"><textPath startOffset="19.985693538727396" xlink:href="#id74">February</textPath></text><path d="M 110.68208982089419 81.91981866633111 l 28.953535185120703 -49.00587573920285 a77.91997063142438,77.91997063142438 0 0,0 1.1489037479379338,0.6922016529608283 l -29.792800999276274 48.50022747678341" fill="red" stroke="none" /><path d="M 111.2981086023043 82.29822771554956 l 19.535275887244207 -30.607689963201754 a57.31057268722467,57.31057268722467 0 0,0 0.82699968073409,0.5379035968421692 l -20.059242593762576 30.266887442200055" fill="red" stroke="none" /><path d="M 111.90073688211348 82.69761687909136 l 19.1122455752395 -27.78713608404368 a54.72540381791483,54.72540381791483 0 0,0 0.7715470449616458,0.540518011319044 l -19.587723759784794 27.4540332299607" fill="red" stroke="none" /><path d="M 113.06298171725822 83.55741782278167 l 9.4119966166442 -11.847029351378058 a36.13069016152717,36.13069016152717 0 0,0 0.48362924818688874,0.39106121787400117 l -9.61452926339558 11.683262036239928" fill="red" stroke="none" /><path d="M 113.6212207817346 84.01681056812373 l 22.762040014117453 -26.70905957925873 a56.09251101321586,56.09251101321586 0 0,0 0.7294863146278061,0.632603343567721 l -23.218420127392026 26.313291242271337" fill="red" stroke="none" /><path d="M 114.68862486808459 84.99185889309783 l 27.9860363676061 -28.594806293987634 a61.01101321585903,61.01101321585903 0 0,0 0.7442303514962589,0.7410343898513071 l -28.47410251926968 28.108836053486208" fill="red" stroke="none" /><path d="M 115.9244219780498 86.31012108654704 l 39.85392539097832 -34.26155207267989 a73.55653450807637,73.55653450807637 0 0,0 0.8171408956858489,0.9672370809858608 l -40.437776900151285 33.570456042064926" fill="red" stroke="none" /><path d="M 116.38621287248628 86.86637796730983 l 32.35535131062637 -25.932957063079858 a62.4654919236417,62.4654919236417 0 0,0 0.6652453510672934,0.8447940391323474 l -32.79695074228763 25.37217062999447" fill="red" stroke="none" /><path d="M 116.82858285166822 87.43820079747576 l 25.44880407255454 -18.99641636622548 a52.75697503671072,52.75697503671072 0 0,0 0.5369589531443038,0.7324114086422215 l -25.772025638212472 18.555542513911764" fill="red" stroke="none" /><path d="M 117.2510076193507 88.02491185347247 l 34.39224377563162 -23.873976515323854 a62.86637298091043,62.86637298091043 0 0,0 0.609431212907502,0.8942651050798797 l -34.79809945420785 23.278433386973568" fill="red" stroke="none" /><line stroke="#e1ed5e" stroke-width="0.3" x1="172.23445277983987" x2="176.4835382374775" y1="55.19839476539836" y2="52.563006222186495" /><path d="M 173.08426987136738 54.67131705675599 a86.0,86.0 0 0,1 12.851231095245387,41.99856678651699" fill="none" id="id75" stroke="none" /><text fill="#e1ed5e" style="font-size:6.75px; font-family:Arial;" text-anchor="middle"><textPath startOffset="22.20632615414155" xlink:href="#id75">March</textPath></text><path d="M 117.84615892207809 88.93136811851018 l 36.69687402430251 -22.7603145052074 a64.1820851688693,64.1820851688693 0 0,0 0.5742285636323141,0.9438807753768885 l -37.08321838622105 22.12526595662343" fill="red" stroke="none" /><path d="M 118.3937258080291 89.86733742301442 l 46.51100710928945 -25.621798762950345 a74.1013215859031,74.1013215859031 0 0,0 0.6058379406432145,1.1225256931748926 l -46.94515314915113 24.817392086442993" fill="red" stroke="none" /><path d="M 118.89224826269711 90.83032412892265 l 31.431596595647324 -15.255863086535431 a55.93832599118943,55.93832599118943 0 0,0 0.4129894807210783,0.8698611718473712 l -31.68954427021016 14.712559499047519" fill="red" stroke="none" /><path d="M 119.196687751892 91.48605970444005 l 23.749206212876675 -10.533031863449711 a46.980176211453745,46.980176211453745 0 0,0 0.3214994178482759,0.742064982705302 l -23.926996340567634 10.122667736157807" fill="red" stroke="none" /><path d="M 119.61058180528143 92.48833698450437 l 28.225607341375447 -10.811573713688162 a51.22540381791483,51.22540381791483 0 0,0 0.3083169521302744,0.8261361461646195 l -28.407528882007348 10.324114430494209" fill="red" stroke="none" /><path d="M 119.97218684219823 93.5106431181261 l 52.159374888178476 -16.947608244365234 a75.84361233480176,75.84361233480176 0 0,0 0.39274175869617756,1.2450987014305759 l -52.44337213064286 16.04725937650824" fill="red" stroke="none" /><path d="M 120.18372546131832 94.20196356495316 l 30.9128130046329 -8.880105729447665 a53.16299559471366,53.16299559471366 0 0,0 0.24508958523287816,0.8817176400965153 l -31.06108936043214 8.346676785932198" fill="red" stroke="none" /><path d="M 120.37134235888165 94.90015583598534 l 32.40668755083963 -8.112821112602843 a54.40675477239354,54.40675477239354 0 0,0 0.21961467852152852,0.9104446249763893 l -32.541535029621976 7.553791255967046" fill="red" stroke="none" /><path d="M 120.6074358757038 95.95851677861258 l 61.822307627111385 -12.124449664162288 a84.0,84.0 0 0,0 0.26605710436056285,1.4212876901497489 l -62.02185045538181 11.058483896549978" fill="red" stroke="none" /><path d="M 120.67395015179393 96.31383870115 l 30.879372926186587 -5.505786198453623 a52.36637298091043,52.36637298091043 0 0,0 0.1505860849168986,0.8887675973690474 l -30.96957087262371 4.9734328127687375" fill="red" stroke="none" /><path d="M 120.78858239683441 97.02765380044208 l 31.111644972257082 -4.448335049020224 a52.428046989721,52.428046989721 0 0,0 0.12004525051664537,0.8944765522756629 l -31.183606221831564 3.9121401546798964" fill="red" stroke="none" /><path d="M 120.83666639777658 97.38593545837742 l 27.28246823986899 -3.422722784552322 a48.49632892804699,48.49632892804699 0 0,0 0.09678400123791851,0.8291862176129932 l -27.3373425941105 2.952592828614476" fill="red" stroke="none" /><line stroke="#e1ed5e" stroke-width="0.3" x1="184.98032266829074" x2="189.97916517819016" y1="98.17113171792111" y2="98.06355123074" /><path d="M 185.9800911702706 98.14961562048488 a86.0,86.0 0 0,1 -9.607161424134198,41.387399972396054" fill="none" id="id76" stroke="none" /><text fill="#e1ed5e" style="font-size:6.75px; font-family:Arial;" text-anchor="middle"><textPath startOffset="21.466115282336823" xlink:href="#id76">April</textPath></text><line stroke="#e1ed5e" stroke-width="0.3" x1="174.80103733775053" x2="179.2010983576182" y1="140.37084112569926" y2="142.7455964860345" /><path d="M 175.68104954172406 140.8457921977663 a86.0,86.0 0 0,1 -30.038265399797805,32.042727171017184" fill="none" id="id77" stroke="none" /><text fill="#e1ed5e" style="font-size:6.75px; font-family:Arial;" text-anchor="middle"><textPath startOffset="22.206326154141568" xlink:href="#id77">May</textPath></text><line stroke="#e1ed5e" stroke-width="0.3" x1="143.8653032363475" x2="146.44561519142675" y1="172.8068346515853" y2="177.08958963109032" /><path d="M 144.38136562736335 173.6633856474863 a86.0,86.0 0 0,1 -40.68145358897372,12.25698825130547" fill="none" id="id78" stroke="none" /><text fill="#e1ed5e" style="font-size:6.75px; font-family:Arial;" text-anchor="middle"><textPath startOffset="21.466115282336833" xlink:href="#id78">June</textPath></text><line stroke="#e1ed5e" stroke-width="0.3" x1="102.19456741930631" x2="102.32365962044197" y1="184.97166512339345" y2="189.96999836594603" /><path d="M 102.22038585953345 185.97133177190398 a86.0,86.0 0 0,1 -42.740103519485714,-10.115201625700543" fill="none" id="id79" stroke="none" /><text fill="#e1ed5e" style="font-size:6.75px; font-family:Arial;" text-anchor="middle"><textPath startOffset="22.20632615414155" xlink:href="#id79">July</textPath></text><line stroke="#e1ed5e" stroke-width="0.3" x1="58.666819895761336" x2="56.23545636021788" y1="174.27360380694188" y2="178.64263932499728" /><path d="M 58.180547188652646 175.14741091055294 a86.0,86.0 0 0,1 -31.652253787137756,-30.449443065178592" fill="none" id="id80" stroke="none" /><text fill="#e1ed5e" style="font-size:6.75px; font-family:Arial;" text-anchor="middle"><textPath startOffset="22.20632615414155" xlink:href="#id80">August</textPath></text><line stroke="#e1ed5e" stroke-width="0.3" x1="26.63291911575756" x2="22.317208475507996" y1="142.92168965132927" y2="145.44649492493687" /><path d="M 25.769776987707644 143.4266507060508 a86.0,86.0 0 0,1 -11.730757126820373,-40.83630448921669" fill="none" id="id81" stroke="none" /><text fill="#e1ed5e" style="font-size:6.75px; font-family:Arial;" text-anchor="middle"><textPath startOffset="21.46611528233685" xlink:href="#id81">September</textPath></text><line stroke="#e1ed5e" stroke-width="0.3" x1="15.007084014347285" x2="10.007500721073583" y1="101.09737516637583" y2="101.16192664675087" /><path d="M 14.007167355692545 101.11028546245083 a86.0,86.0 0 0,1 10.666146001902534,-42.60595125391555" fill="none" id="id82" stroke="none" /><text fill="#e1ed5e" style="font-size:6.75px; font-family:Arial;" text-anchor="middle"><textPath startOffset="22.20632615414155" xlink:href="#id82">October</textPath></text><line stroke="#e1ed5e" stroke-width="0.3" x1="26.266209847984243" x2="21.928928074336255" y1="57.711370442889674" y2="55.22380399835377" /><path d="M 25.398753493254645 57.213857153982495 a86.0,86.0 0 0,1 29.58750427330803,-30.492523968695096" fill="none" id="id83" stroke="none" /><text fill="#e1ed5e" style="font-size:6.75px; font-family:Arial;" text-anchor="middle"><textPath startOffset="21.46611528233685" xlink:href="#id83">November</textPath></text><line stroke="#e1ed5e" stroke-width="0.3" x1="56.762969772571076" x2="54.21961505331055" y1="26.818313649435495" y2="22.513508569990535" /><path d="M 56.25429882871897 25.957352633546506 a86.0,86.0 0 0,1 42.265352541879196,-11.944610805530505" fill="none" id="id84" stroke="none" /><text fill="#e1ed5e" style="font-size:6.75px; font-family:Arial;" text-anchor="middle"><textPath startOffset="22.20632615414155" xlink:href="#id84">December</textPath></text></svg>