<?xml version="1.0" encoding="utf-8" ?>
<svg baseProfile="full" height="200mm" version="1.1" viewBox="0,0,200,200" width="200mm" xmlns="http://www.w3.org/2000/svg" xmlns:ev="http://www.w3.org/2001/xml-events" xmlns:xlink="http://www.w3.org/1999/xlink"><defs /><rect fill="#1a1a1a" height="200" width="200" x="0" y="0" /><rect fill="#1a1a1a" height="200" width="180" x="10" y="0" /><text alignment-baseline="middle" fill="#e1ed5e" style="dominant-baseline: central; font-size:9.0px; font-family:Arial;" text-anchor="middle" x="100.0" y="100.0">2026</text><line stroke="#e1ed5e" stroke-width="0.3" x1="100.0" x2="100.0" y1="15.0" y2="10.0" /><path d="M 100.0 14.0 a86.0,86.0 0 0,1 42.46469731375804,11.215312516191453" fill="none" id="id73" stroke="none" /><text fill="#e1ed5e" style="font-size:6.75px; font-family:Arial;" text-anchor="middle"><textPath startOffset="22.20632615414155" xlink:href="#id73">January</textPath></text><path d="M 103.95276090670814 79.375362276772 l 1.9916139968949718 -10.391804143974252 a31.580931890875604,31.580931890875604 0 0,0 0.533016337259867,0.10691806289697067 l -2.1701967436219642 10.355982125000073" fill="red" stroke="none" /><path d="M 104.66035177308747 79.52364482259891 l 2.803872560139146 -12.319475698192193 a33.63452345012859,33.63452345012859 0 0,0 0.5634204119075609,0.13334340811509615 l -3.01551665900923 12.269386377936229" fill="red" stroke="none" /><path d="M 105.36241919743992 79.69619591428918 l 3.598197769356346 -13.623907397155964 a35.09105673658587,35.09105673658587 0 0,0 0.5826821692103816,0.15926904779165674 l -3.8321778277904386 13.559951808538015" fill="red" stroke="none" /><path d="M 106.74666289553966 80.11325718540242 l 4.397088679181635 -12.961040598852875 a34.68659790662748,34.68659790662748 0 0,0 0.5637695277787209,0.19668811833713784 l -4.619540211023629 12.883431627343532" fill="red" stroke="none" /><path d="M 107.4271985657038 80.35727306442388 l 5.151410445750163 -13.623945532598846 a35.56533286457278,35.56533286457278 0 0,0 0.5707674246548402,0.22144889336210524 l -5.38516103540467 13.533253935346194" fill="red" stroke="none" /><path d="M 108.09893153111575 80.62456947434976 l 5.822510399792138 -13.929448014546534 a36.0973888254109,36.0973888254109 0 0,0 0.5712261241924961,0.24456921530429251 l -6.06142028177495 13.82715927127945" fill="red" stroke="none" /><path d="M 108.76106565485865 80.91482961587045 l 6.105691021107876 -13.300682592884169 a35.63515016260131,35.63515016260131 0 0,0 0.5552665512768488,0.26070509113606455 l -6.333735783684323 13.1936125191081" fill="red" stroke="none" /><path d="M 109.41281617654863 81.2277094730956 l 6.849104940621375 -13.659396442366779 a36.28035829610636,36.28035829610636 0 0,0 0.5558487994425956,0.28472734435899805 l -7.083214227652726 13.53947657269528" fill="red" stroke="none" /><path d="M 110.05341064243156 81.56283822128135 l 7.180376444287392 -13.168243777557256 a35.998681610956766,35.998681610956766 0 0,0 0.5414817307650832,0.30133399692093793 l -7.4059822641245106 13.042694383076137" fill="red" stroke="none" /><line stroke="#e1ed5e" stroke-width="0.3" x1="143.23703022742887" x2="145.7803849466894" y1="26.81831364943548" y2="22.513508569990506" /><path d="M 143.74570117128098 25.957352633546492 a86.0,86.0 0 0,1 28.547481713284135,27.462654790039103" fill="none" id="id74" stroke="none" /><text fill="#e1ed5e" style="font-size:6.75px; font-family:Arial;" text-anchor="middle"><textPath startOffset="19.985693538727396" xlink:href="#id74">February</textPath></text><path d="M 110.68208982089419 81.91981866633111 l 13.562685932949774 -22.955790968887875 a47.66298536779233,47.66298536779233 0 0,0 0.7027746812943901,0.42341388208029057 l -13.955822680461802 22.71893047734897" fill="red" stroke="none" /><path d="M 111.2981086023043 82.29822771554956 l 9.15089676539322 -14.337540595641558 a38.008938295571355,38.008938295571355 0 0,0 0.5484743627851791,0.3567429823624395 l -9.39633815396268 14.17789868911959" fill="red" stroke="none" /><path d="M 111.90073688211348 82.69761687909136 l 8.952736947424395 -13.01631034947656 a36.79796929873167,36.79796929873167 0 0,0 0.5187968017100613,0.36345031371734765 l -9.175464888718107 12.860275192995276" fill="red" stroke="none" /><path d="M 113.06298171725822 83.55741782278167 l 4.408855543800116 -5.54949636732964 a28.0876594964136,28.0876594964136 0 0,0 0.37596883936760284,0.30400732122171803 l -4.50372778173221 5.4727829488437925" fill="red" stroke="none" /><path d="M 113.6212207817346 84.01681056812373 l 10.662407817590434 -12.511307663186127 a37.43836244616578,37.43836244616578 0 0,0 0.48688804535990354,0.4222245150616384 l -10.876189661597103 12.325918154704818" fill="red" stroke="none" /><path d="M 114.68862486808459 84.99185889309783 l 13.109481081847715 -13.394646788354626 a39.74233328110729,39.74233328110729 0 0,0 0.4847887144970684,0.48270687769167187 l -13.338105596512106 13.167004060012836" fill="red" stroke="none" /><path d="M 115.9244219780498 86.31012108654704 l 18.668748731962413 -16.049116882140222 a45.619023780681204,45.619023780681204 0 0,0 0.5067825748148442,0.599870721128194 l -18.942241920264376 15.725387211382923" fill="red" stroke="none" /><path d="M 116.38621287248628 86.86637796730983 l 15.156196480690687 -12.147758458869433 a40.42365381014434,40.42365381014434 0 0,0 0.43050405819623994,0.5466964355376301 l -15.36305461948089 11.885069629378764" fill="red" stroke="none" /><path d="M 116.82858285166822 87.43820079747576 l 11.920966983769427 -8.898479145270876 a35.87589946614797,35.87589946614797 0 0,0 0.36514385836277397,0.49805581244990205 l -12.072373454645827 8.691960889149481" fill="red" stroke="none" /><path d="M 117.2510076193507 88.02491185347247 l 16.110336712804894 -11.18327152030662 a40.611438266910724,40.611438266910724 0 0,0 0.3936902497689333,0.5776918627106395 l -16.30045142824256 10.904301634325574" fill="red" stroke="none" /><line stroke="#e1ed5e" stroke-width="0.3" x1="172.23445277983987" x2="176.4835382374775" y1="55.19839476539836" y2="52.563006222186495" /><path d="M 173.08426987136738 54.67131705675599 a86.0,86.0 0 0,1 12.851231095245387,41.99856678651699" fill="none" id="id75" stroke="none" /><text fill="#e1ed5e" style="font-size:6.75px; font-family:Arial;" text-anchor="middle"><textPath startOffset="22.20632615414155" xlink:href="#id75">March</textPath></text><path d="M 117.84615892207809 88.93136811851018 l 17.189893183351625 -10.66159953855743 a41.22775648399018,41.22775648399018 0 0,0 0.3688592435925928,0.6063076114584225 l -17.370868225230442 10.364124153891927" fill="red" stroke="none" /><path d="M 118.3937258080291 89.86733742301442 l 21.78712125532304 -12.0020027757342 a45.87421804244066,45.87421804244066 0 0,0 0.37505865202729677,0.6949267206692192 l -21.990488006568803 11.625195071732522" fill="red" stroke="none" /><path d="M 118.89224826269711 90.83032412892265 l 14.723482651507542 -7.146294169462719 a37.36613765510178,37.36613765510178 0 0,0 0.2758720700573593,0.5810569356901467 l -14.844312915406658 6.891794818132031" fill="red" stroke="none" /><path d="M 119.196687751892 91.48605970444005 l 11.124825447485783 -4.933981366086697 a33.16987729428354,33.16987729428354 0 0,0 0.22699140574127946,0.5239274605938701 l -11.208107563069742 4.7417547609062245" fill="red" stroke="none" /><path d="M 119.61058180528143 92.48833698450437 l 13.221703159570176 -5.064458546500517 a35.15846654157893,35.15846654157893 0 0,0 0.2116128021987957,0.567017102626719 l -13.306920550270595 4.836118306844464" fill="red" stroke="none" /><path d="M 119.97218684219823 93.5106431181261 l 24.432982554437693 -7.938757269651795 a46.690358181463836,46.690358181463836 0 0,0 0.24177716253011722,0.7664996767881208 l -24.566015200736015 7.517007426437256" fill="red" stroke="none" /><path d="M 120.18372546131832 94.20196356495316 l 14.48046918641219 -4.159702236353508 a36.066091415949835,36.066091415949835 0 0,0 0.16627022776318448,0.5981624747635284 l -14.549926184741738 3.9098284581710274" fill="red" stroke="none" /><path d="M 120.37134235888165 94.90015583598534 l 15.180243882796825 -3.8002835949712295 a36.64870473053274,36.64870473053274 0 0,0 0.14793371781311052,0.6132807658506186 l -15.243410400870754 3.538417597461205" fill="red" stroke="none" /><path d="M 120.6074358757038 95.95851677861258 l 28.959383945198255 -5.6794481866724755 a50.51104962874929,50.51104962874929 0 0,0 0.1599859952671157,0.8546515839748144 l -29.05285566437523 5.180118525235098" fill="red" stroke="none" /><path d="M 120.67395015179393 96.31383870115 l 14.46480487189444 -2.5790719007594887 a35.692929995452516,35.692929995452516 0 0,0 0.1026395047292558,0.6057841670012949 l -14.50705623814392 2.329701945442356" fill="red" stroke="none" /><path d="M 120.78858239683441 97.02765380044208 l 14.573607917592177 -2.0837307364593767 a35.721819911878114,35.721819911878114 0 0,0 0.08179276296659777,0.6094510886902464 l -14.607316679616611 1.832561305704466" fill="red" stroke="none" /><path d="M 120.83666639777658 97.38593545837742 l 12.779909114627776 -1.6033038406408653 a33.88008773974618,33.88008773974618 0 0,0 0.06761440558953322,0.5792789356694883 l -12.8056138732209 1.3830811666465244" fill="red" stroke="none" /><path d="M 120.94382443527127 98.46500227214037 l 30.464559535933386 -2.2327836929891927 a51.54627163399992,51.54627163399992 0 0,0 0.057239456687178066,0.8854690601674456 l -30.498479583624977 1.7080555685687118" fill="red" stroke="none" /><line stroke="#e1ed5e" stroke-width="0.3" x1="184.98032266829074" x2="189.97916517819016" y1="98.17113171792111" y2="98.06355123074" /><path d="M 185.9800911702706 98.14961562048488 a86.0,86.0 0 0,1 -9.607161424134198,41.387399972396054" fill="none" id="id76" stroke="none" /><text fill="#e1ed5e" style="font-size:6.75px; font-family:Arial;" text-anchor="middle"><textPath startOffset="21.466115282336823" xlink:href="#id76">April</textPath></text><path d="M 120.99513854157772 99.54816195383933 l 13.170752181018246 -0.28344880507230186 a34.17380189007311,34.17380189007311 0 0,0 0.00759470905626524,0.5882185860707742 l -13.173679897192226 0.05669396094106501" fill="red" stroke="none" /><path d="M 120.99980553446 99.90962569577887 l 14.579642810196658 -0.06274463221109094 a35.57977782278559,35.57977782278559 0 0,0 -0.002635788418942291,0.6124644024074156 l -14.578562724488213 -0.1882292484000094" fill="red" stroke="none" /><path d="M 120.9764740272857 100.99374915477107 l 32.6739626886803 1.5479113774155504 a53.71060787288437,53.71060787288437 0 0,0 -0.05169939910285671,0.923127500673393 l -32.64247693868991 -2.1101105944243668" fill="red" stroke="none" /><path d="M 120.92983693683757 101.71520430193887 l 16.47221988872681 1.3499016977958458 a37.52743968847804,37.52743968847804 0 0,0 -0.058302279548776294,0.643360796570149 l -16.446543012900957 -1.6332438829145652" fill="red" stroke="none" /><path d="M 120.8583938346157 102.4346265915055 l 24.78874674860349 2.8933839528952254 a45.957035802860716,45.957035802860716 0 0,0 -0.09847605955320465,0.7849510860983179 l -24.735269179803435 -3.3196527932809383" fill="red" stroke="none" /><path d="M 120.76222939487914 103.15116336523771 l 62.28668818463745 9.453490095713112 a84.0,84.0 0 0,0 -0.2292729825548463,1.4276830812271801 l -62.114733447721314 -10.524252406633499" fill="red" stroke="none" /><path d="M 120.64145759157962 103.86396538481128 l 30.091710256891425 5.632999815373068 a51.614403686903614,51.614403686903614 0 0,0 -0.17099131066281018,0.8718810092144147 l -29.99028901325295 -6.150144551655428" fill="red" stroke="none" /><path d="M 120.49622156327973 104.57218783832717 l 26.785375259336064 5.97513871655127 a48.443735359194136,48.443735359194136 0 0,0 -0.18856016726050456,0.8123122654801824 l -26.678554526145007 -6.435319639380018" fill="red" stroke="none" /><line stroke="#e1ed5e" stroke-width="0.3" x1="174.80103733775053" x2="179.2010983576182" y1="140.37084112569926" y2="142.7455964860345" /><path d="M 175.68104954172406 140.8457921977663 a86.0,86.0 0 0,1 -30.038265399797805,32.042727171017184" fill="none" id="id77" stroke="none" /><text fill="#e1ed5e" style="font-size:6.75px; font-family:Arial;" text-anchor="middle"><textPath startOffset="22.206326154141568" xlink:href="#id77">May</textPath></text><line stroke="#e1ed5e" stroke-width="0.3" x1="143.8653032363475" x2="146.44561519142675" y1="172.8068346515853" y2="177.08958963109032" /><path d="M 144.38136562736335 173.6633856474863 a86.0,86.0 0 0,1 -40.68145358897372,12.25698825130547" fill="none" id="id78" stroke="none" /><text fill="#e1ed5e" style="font-size:6.75px; font-family:Arial;" text-anchor="middle"><textPath startOffset="21.466115282336833" xlink:href="#id78">June</textPath></text><line stroke="#e1ed5e" stroke-width="0.3" x1="102.19456741930631" x2="102.32365962044197" y1="184.97166512339345" y2="189.96999836594603" /><path d="M 102.22038585953345 185.97133177190398 a86.0,86.0 0 0,1 -42.740103519485714,-10.115201625700543" fill="none" id="id79" stroke="none" /><text fill="#e1ed5e" style="font-size:6.75px; font-family:Arial;" text-anchor="middle"><textPath startOffset="22.20632615414155" xlink:href="#id79">July</textPath></text><line stroke="#e1ed5e" stroke-width="0.3" x1="58.666819895761336" x2="56.23545636021788" y1="174.27360380694188" y2="178.64263932499728" /><path d="M 58.180547188652646 175.14741091055294 a86.0,86.0 0 0,1 -31.652253787137756,-30.449443065178592" fill="none" id="id80" stroke="none" /><text fill="#e1ed5e" style="font-size:6.75px; font-family:Arial;" text-anchor="middle"><textPath startOffset="22.20632615414155" xlink:href="#id80">August</textPath></text><line stroke="#e1ed5e" stroke-width="0.3" x1="26.63291911575756" x2="22.317208475507996" y1="142.92168965132927" y2="145.44649492493687" /><path d="M 25.769776987707644 143.4266507060508 a86.0,86.0 0 0,1 -11.730757126820373,-40.83630448921669" fill="none" id="id81" stroke="none" /><text fill="#e1ed5e" style="font-size:6.75px; font-family:Arial;" text-anchor="middle"><textPath startOffset="21.46611528233685" xlink:href="#id81">September</textPath></text><line stroke="#e1ed5e" stroke-width="0.3" x1="15.007084014347285" x2="10.007500721073583" y1="101.09737516637583" y2="101.16192664675087" /><path d="M 14.007167355692545 101.11028546245083 a86.0,86.0 0 0,1 10.666146001902534,-42.60595125391555" fill="none" id="id82" stroke="none" /><text fill="#e1ed5e" style="font-size:6.75px; font-family:Arial;" text-anchor="middle"><textPath startOffset="22.20632615414155" xlink:href="#id82">October</textPath></text><line stroke="#e1ed5e" stroke-width="0.3" x1="26.266209847984243" x2="21.928928074336255" y1="57.711370442889674" y2="55.22380399835377" /><path d="M 25.398753493254645 57.213857153982495 a86.0,86.0 0 0,1 29.58750427330803,-30.492523968695096" fill="none" id="id83" stroke="none" /><text fill="#e1ed5e" style="font-size:6.75px; font-family:Arial;" text-anchor="middle"><textPath startOffset="21.46611528233685" xlink:href="#id83">November</textPath></text><line stroke="#e1ed5e" stroke-width="0.3" x1="56.762969772571076" x2="54.21961505331055" y1="26.818313649435495" y2="22.513508569990535" /><path d="M 56.25429882871897 25.957352633546506 a86.0,86.0 0 0,1 42.265352541879196,-11.944610805530505" fill="none" id="id84" stroke="none" /><text fill="#e1ed5e" style="font-size:6.75px; font-family:Arial;" text-anchor="middle"><textPath startOffset="22.20632615414155" xlink:href="#id84">December</textPath></text></svg>