<?xml version="1.0" encoding="utf-8" ?>
<svg baseProfile="full" height="200mm" version="1.1" viewBox="0,0,200,200" width="200mm" xmlns="http://www.w3.org/2000/svg" xmlns:ev="http://www.w3.org/2001/xml-events" xmlns:xlink="http://www.w3.org/1999/xlink"><defs /><rect fill="#1a1a1a" height="200" width="200" x="0" y="0" /><rect fill="#1a1a1a" height="200" width="180" x="10" y="0" /><text alignment-baseline="middle" fill="#e1ed5e" style="dominant-baseline: central; font-size:9.0px; font-family:Arial;" text-anchor="middle" x="100.0" y="100.0">2026</text><line stroke="#e1ed5e" stroke-width="0.3" x1="100.0" x2="100.0" y1="15.0" y2="10.0" /><path d="M 100.0 14.0 a86.0,86.0 0 0,1 42.46469731375804,11.215312516191453" fill="none" id="id73" stroke="none" /><text fill="#e1ed5e" style="font-size:6.75px; font-family:Arial;" text-anchor="middle"><textPath startOffset="22.20632615414155" xlink:href="#id73">January</textPath></text><path d="M 103.95276090670814 79.375362276772 l 1.8407109147175447 -9.604425024749991 a30.779222705696203,30.779222705696203 0 0,0 0.5194852579709945,0.10420385568540781 l -2.005762582155665 9.571317212987374" fill="red" stroke="none" /><path d="M 104.66035177308747 79.52364482259891 l 2.5914252626119336 -11.38603836718054 a32.67721518987342,32.67721518987342 0 0,0 0.5473842990393283,0.12954817830521254 l -2.787033248613785 11.339744276734457" fill="red" stroke="none" /><path d="M 105.36241919743992 79.69619591428918 l 3.325565053113969 -12.591634265547173 a34.02338805379747,34.02338805379747 0 0,0 0.5649536776247599,0.15442318134365687 l -3.54181661996244 12.532524543377223" fill="red" stroke="none" /><path d="M 106.74666289553966 80.11325718540242 l 4.063924604551482 -11.978992381857548 a33.64957476265823,33.64957476265823 0 0,0 0.5469145439101691,0.19080774542168388 l -4.269521152524924 11.907263783263657" fill="red" stroke="none" /><path d="M 107.4271985657038 80.35727306442388 l 4.761091982917185 -12.59166951149647 a34.461728639240505,34.461728639240505 0 0,0 0.553056319744627,0.21457725981546638 l -4.977131467661479 12.507849547790455" fill="red" stroke="none" /><path d="M 108.09893153111575 80.62456947434976 l 5.381343202379089 -12.874024302068898 a34.95347112341772,34.95347112341772 0 0,0 0.5531241036151859,0.23681887479899205 l -5.60215106378459 12.779485899307115" fill="red" stroke="none" /><path d="M 108.76106565485865 80.91482961587045 l 5.643067442771575 -12.292899959573168 a34.526255933544306,34.526255933544306 0 0,0 0.5379877725572494,0.2525924728440848 l -5.853833426628423 12.193942504089081" fill="red" stroke="none" /><path d="M 109.41281617654863 81.2277094730956 l 6.330153453381495 -12.624434332715959 a35.12257713607595,35.12257713607595 0 0,0 0.5381105163041617,0.27564110677683734 l -6.546524457274413 12.51360070062662" fill="red" stroke="none" /><path d="M 110.05341064243156 81.56283822128135 l 6.636324766438949 -12.170495932846817 a34.86224287974684,34.86224287974684 0 0,0 0.5243877488872377,0.2918212145131784 l -6.844836604398221 12.054459320773459" fill="red" stroke="none" /><line stroke="#e1ed5e" stroke-width="0.3" x1="143.23703022742887" x2="145.7803849466894" y1="26.81831364943548" y2="22.513508569990506" /><path d="M 143.74570117128098 25.957352633546492 a86.0,86.0 0 0,1 28.547481713284135,27.462654790039103" fill="none" id="id74" stroke="none" /><text fill="#e1ed5e" style="font-size:6.75px; font-family:Arial;" text-anchor="middle"><textPath startOffset="19.985693538727396" xlink:href="#id74">February</textPath></text><path d="M 110.68208982089419 81.91981866633111 l 12.535051505255764 -21.216448096008584 a45.642751186708864,45.642751186708864 0 0,0 0.6729870080759527,0.40546714226273245 l -12.898400579549355 20.997534344287235" fill="red" stroke="none" /><path d="M 111.2981086023043 82.29822771554956 l 8.457540257185224 -13.25119601777687 a36.72018393987342,36.72018393987342 0 0,0 0.5298774549070548,0.3446470361718606 l -8.684384737876558 13.103650057445481" fill="red" stroke="none" /><path d="M 111.90073688211348 82.69761687909136 l 8.274394858346724 -12.03007438539103 a35.60096914556962,35.60096914556962 0 0,0 0.5019208745069715,0.35162764824212384 l -8.480246872437347 11.88586189438497" fill="red" stroke="none" /><path d="M 113.06298171725822 83.55741782278167 l 4.074799902761379 -5.129015236112405 a27.550632911392405,27.550632911392405 0 0,0 0.3687804418471278,0.2981948036796997 l -4.162483743172998 5.058114335168576" fill="red" stroke="none" /><path d="M 113.6212207817346 84.01681056812373 l 9.85452526323222 -11.563335369665234 a36.19284018987342,36.19284018987342 0 0,0 0.47068995716385986,0.4081776925966409 l -10.052109019042845 11.391992683648922" fill="red" stroke="none" /><path d="M 114.68862486808459 84.99185889309783 l 12.116185642027705 -12.379744559211844 a38.32224090189874,38.32224090189874 0 0,0 0.46746600840142827,0.4654585608011443 l -12.327487450596458 12.169350147760582" fill="red" stroke="none" /><path d="M 115.9244219780498 86.31012108654704 l 17.25423179823873 -14.83308746704446 a43.75365901898734,43.75365901898734 0 0,0 0.48606020334444844,0.5753419694796704 l -17.507002615070295 14.533886547935683" fill="red" stroke="none" /><path d="M 116.38621287248628 86.86637796730983 l 14.007822967254539 -11.227332012857177 a38.95193829113924,38.95193829113924 0 0,0 0.41483057389376254,0.5267927021407349 l -14.199007621742265 10.984546916763403" fill="red" stroke="none" /><path d="M 116.82858285166822 87.43820079747576 l 11.017724355835133 -8.224248128715244 a34.74876384493671,34.74876384493671 0 0,0 0.35367190488560607,0.4824080807994857 l -11.157658873234364 8.033377604244265" fill="red" stroke="none" /><path d="M 117.2510076193507 88.02491185347247 l 14.889668717566552 -10.335923518197607 a39.125494462025316,39.125494462025316 0 0,0 0.379285401956277,0.556554526010427 l -15.065378585191564 10.078090968916774" fill="red" stroke="none" /><line stroke="#e1ed5e" stroke-width="0.3" x1="172.23445277983987" x2="176.4835382374775" y1="55.19839476539836" y2="52.563006222186495" /><path d="M 173.08426987136738 54.67131705675599 a86.0,86.0 0 0,1 12.851231095245387,41.99856678651699" fill="none" id="id75" stroke="none" /><text fill="#e1ed5e" style="font-size:6.75px; font-family:Arial;" text-anchor="middle"><textPath startOffset="22.20632615414155" xlink:href="#id75">March</textPath></text><path d="M 117.84615892207809 88.93136811851018 l 15.887428013036144 -9.853778226888574 a39.695114715189874,39.695114715189874 0 0,0 0.35514690191429593,0.5837681271567827 l -16.054690713236663 9.57884232652471" fill="red" stroke="none" /><path d="M 118.3937258080291 89.86733742301442 l 20.13632760036414 -11.092620127297318 a43.989517405063296,43.989517405063296 0 0,0 0.3596497075113211,0.6663762866942109 l -20.324285407093925 10.744362857270648" fill="red" stroke="none" /><path d="M 118.89224826269711 90.83032412892265 l 13.607895536754238 -6.6048248797309865 a36.126087816455694,36.126087816455694 0 0,0 0.2667168525949818,0.5617737128428323 l -13.719570583190977 6.369608751247615" fill="red" stroke="none" /><path d="M 119.196687751892 91.48605970444005 l 10.281905859991037 -4.560137339729548 a32.24777492088607,32.24777492088607 0 0,0 0.22068118300159714,0.5093625964969813 l -10.358877752835314 4.382475598645963" fill="red" stroke="none" /><path d="M 119.61058180528143 92.48833698450437 l 12.219904738026258 -4.68072836313254 a34.08569026898734,34.08569026898734 0 0,0 0.2051559451311811,0.5497159358328769 l -12.298665271659065 4.46968929027033" fill="red" stroke="none" /><path d="M 119.97218684219823 93.5106431181261 l 22.58171399536943 -7.3372436517938056 a44.74381922468355,44.74381922468355 0 0,0 0.2316973798071928,0.7345440110074305 l -22.70466685894483 6.9474494743599555" fill="red" stroke="none" /><path d="M 120.18372546131832 94.20196356495316 l 13.383295017616627 -3.8445247524712327 a34.92454509493671,34.92454509493671 0 0,0 0.16100752367340507,0.5792297280857878 l -13.447489311856394 3.613583720966493" fill="red" stroke="none" /><path d="M 120.37134235888165 94.90015583598534 l 14.03004831593977 -3.512338988976522 a35.46301424050633,35.46301424050633 0 0,0 0.1431476386418288,0.5934393778088911 l -14.088428754842418 3.270314379508225" fill="red" stroke="none" /><path d="M 120.6074358757038 95.95851677861258 l 26.76515338540953 -5.249120704654347 a48.27501977848101,48.27501977848101 0 0,0 0.15290371399061378,0.8168177542010799 l -26.851542823310005 4.787624872990705" fill="red" stroke="none" /><path d="M 120.67395015179393 96.31383870115 l 13.368817576330644 -2.3836575787128633 a34.579657832278485,34.579657832278485 0 0,0 0.0994381507504256,0.5868895945999809 l -13.407867588601292 2.153182195797045" fill="red" stroke="none" /><path d="M 120.78858239683441 97.02765380044208 l 13.469376697768114 -1.9258480387831254 a34.60635878164557,34.60635878164557 0 0,0 0.07923867563150021,0.5904201713996684 l -13.50053137245745 1.6937095253187926" fill="red" stroke="none" /><path d="M 120.83666639777658 97.38593545837742 l 11.811585092828683 -1.4818227245225748 a32.904173259493675,32.904173259493675 0 0,0 0.06566677552448234,0.5625928306697687 l -11.835342221356754 1.2782861555279532" fill="red" stroke="none" /><path d="M 120.94382443527127 98.46500227214037 l 28.156282963104854 -2.063607365832995 a49.23180379746836,49.23180379746836 0 0,0 0.054669360397311156,0.8457108081147481 l -28.18763291450658 1.5786374934652119" fill="red" stroke="none" /><line stroke="#e1ed5e" stroke-width="0.3" x1="184.98032266829074" x2="189.97916517819016" y1="98.17113171792111" y2="98.06355123074" /><path d="M 185.9800911702706 98.14961562048488 a86.0,86.0 0 0,1 -9.607161424134198,41.387399972396054" fill="none" id="id76" stroke="none" /><text fill="#e1ed5e" style="font-size:6.75px; font-family:Arial;" text-anchor="middle"><textPath startOffset="21.466115282336823" xlink:href="#id76">April</textPath></text><path d="M 120.99513854157772 99.54816195383933 l 12.172814276479842 -0.2619721040691934 a33.175632911392405,33.175632911392405 0 0,0 0.007372878222035717,0.5710375434935412 l -12.175520161819593 0.05239830251518956" fill="red" stroke="none" /><path d="M 120.99980553446 99.90962569577887 l 13.4749543311366 -0.05799051901169372 a34.47507911392405,34.47507911392405 0 0,0 -0.0025539511439109383,0.5934483018029361 l -13.473956082703186 -0.17396726099492704" fill="red" stroke="none" /><path d="M 120.9764740272857 100.99374915477107 l 30.19828131449878 1.4306273062282204 a51.23214992088607,51.23214992088607 0 0,0 -0.04931374770372784,0.8805300923519851 l -30.16918121590752 -1.950229114915629" fill="red" stroke="none" /><path d="M 120.92983693683757 101.71520430193887 l 15.22413227968785 1.2476206698699936 a36.27516811708861,36.27516811708861 0 0,0 -0.05635676213985623,0.621892174080067 l -15.20040092127092 -1.5094942324986311" fill="red" stroke="none" /><path d="M 120.8583938346157 102.4346265915055 l 22.91052220634185 2.674154445021054 a44.06606012658228,44.06606012658228 0 0,0 -0.09442410472065939,0.7526530193290102 l -22.86109659237434 -3.068125218637459" fill="red" stroke="none" /><path d="M 120.76222939487914 103.15116336523771 l 57.567273056836584 8.737206320342503 a79.22653777689874,79.22653777689874 0 0,0 -0.21624410254290208,1.3465522329557664 l -57.40834719993239 -9.726837782991474" fill="red" stroke="none" /><path d="M 120.64145759157962 103.86396538481128 l 27.81168419118063 5.206191691223548 a49.2947735363924,49.2947735363924 0 0,0 -0.16330669994648941,0.832697344729978 l -27.717947558258476 -5.684152763021471" fill="red" stroke="none" /><path d="M 120.49622156327973 104.57218783832717 l 24.755867688986356 5.522406987325124 a46.36434434335443,46.36434434335443 0 0,0 -0.18046644131556025,0.7774447059418508 l -24.65714068174024 -5.94772035061554" fill="red" stroke="none" /><path d="M 120.23288151984713 105.62410040840565 l 60.69864455954138 16.872301225216972 a84.0,84.0 0 0,0 -0.3992294524556024,1.389770097981672 l -60.399222470199675 -17.914628798703227" fill="red" stroke="none" /><line stroke="#e1ed5e" stroke-width="0.3" x1="174.80103733775053" x2="179.2010983576182" y1="140.37084112569926" y2="142.7455964860345" /><path d="M 175.68104954172406 140.8457921977663 a86.0,86.0 0 0,1 -30.038265399797805,32.042727171017184" fill="none" id="id77" stroke="none" /><text fill="#e1ed5e" style="font-size:6.75px; font-family:Arial;" text-anchor="middle"><textPath startOffset="22.206326154141568" xlink:href="#id77">May</textPath></text><line stroke="#e1ed5e" stroke-width="0.3" x1="143.8653032363475" x2="146.44561519142675" y1="172.8068346515853" y2="177.08958963109032" /><path d="M 144.38136562736335 173.6633856474863 a86.0,86.0 0 0,1 -40.68145358897372,12.25698825130547" fill="none" id="id78" stroke="none" /><text fill="#e1ed5e" style="font-size:6.75px; font-family:Arial;" text-anchor="middle"><textPath startOffset="21.466115282336833" xlink:href="#id78">June</textPath></text><line stroke="#e1ed5e" stroke-width="0.3" x1="102.19456741930631" x2="102.32365962044197" y1="184.97166512339345" y2="189.96999836594603" /><path d="M 102.22038585953345 185.97133177190398 a86.0,86.0 0 0,1 -42.740103519485714,-10.115201625700543" fill="none" id="id79" stroke="none" /><text fill="#e1ed5e" style="font-size:6.75px; font-family:Arial;" text-anchor="middle"><textPath startOffset="22.20632615414155" xlink:href="#id79">July</textPath></text><line stroke="#e1ed5e" stroke-width="0.3" x1="58.666819895761336" x2="56.23545636021788" y1="174.27360380694188" y2="178.64263932499728" /><path d="M 58.180547188652646 175.14741091055294 a86.0,86.0 0 0,1 -31.652253787137756,-30.449443065178592" fill="none" id="id80" stroke="none" /><text fill="#e1ed5e" style="font-size:6.75px; font-family:Arial;" text-anchor="middle"><textPath startOffset="22.20632615414155" xlink:href="#id80">August</textPath></text><line stroke="#e1ed5e" stroke-width="0.3" x1="26.63291911575756" x2="22.317208475507996" y1="142.92168965132927" y2="145.44649492493687" /><path d="M 25.769776987707644 143.4266507060508 a86.0,86.0 0 0,1 -11.730757126820373,-40.83630448921669" fill="none" id="id81" stroke="none" /><text fill="#e1ed5e" style="font-size:6.75px; font-family:Arial;" text-anchor="middle"><textPath startOffset="21.46611528233685" xlink:href="#id81">September</textPath></text><line stroke="#e1ed5e" stroke-width="0.3" x1="15.007084014347285" x2="10.007500721073583" y1="101.09737516637583" y2="101.16192664675087" /><path d="M 14.007167355692545 101.11028546245083 a86.0,86.0 0 0,1 10.666146001902534,-42.60595125391555" fill="none" id="id82" stroke="none" /><text fill="#e1ed5e" style="font-size:6.75px; font-family:Arial;" text-anchor="middle"><textPath startOffset="22.20632615414155" xlink:href="#id82">October</textPath></text><line stroke="#e1ed5e" stroke-width="0.3" x1="26.266209847984243" x2="21.928928074336255" y1="57.711370442889674" y2="55.22380399835377" /><path d="M 25.398753493254645 57.213857153982495 a86.0,86.0 0 0,1 29.58750427330803,-30.492523968695096" fill="none" id="id83" stroke="none" /><text fill="#e1ed5e" style="font-size:6.75px; font-family:Arial;" text-anchor="middle"><textPath startOffset="21.46611528233685" xlink:href="#id83">November</textPath></text><line stroke="#e1ed5e" stroke-width="0.3" x1="56.762969772571076" x2="54.21961505331055" y1="26.818313649435495" y2="22.513508569990535" /><path d="M 56.25429882871897 25.957352633546506 a86.0,86.0 0 0,1 42.265352541879196,-11.944610805530505" fill="none" id="id84" stroke="none" /><text fill="#e1ed5e" style="font-size:6.75px; font-family:Arial;" text-anchor="middle"><textPath startOffset="22.20632615414155" xlink:href="#id84">December</textPath></text></svg>