<?xml version="1.0" encoding="utf-8" ?>
<svg baseProfile="full" height="200mm" version="1.1" viewBox="0,0,200,200" width="200mm" xmlns="http://www.w3.org/2000/svg" xmlns:ev="http://www.w3.org/2001/xml-events" xmlns:xlink="http://www.w3.org/1999/xlink"><defs /><rect fill="#1a1a1a" height="200" width="200" x="0" y="0" /><rect fill="#1a1a1a" height="200" width="180" x="10" y="0" /><text alignment-baseline="middle" fill="#e1ed5e" style="dominant-baseline: central; font-size:9.0px; font-family:Arial;" text-anchor="middle" x="100.0" y="100.0">2020</text><line stroke="#e1ed5e" stroke-width="0.3" x1="100.0" x2="100.0" y1="15.0" y2="10.0" /><path d="M 100.0 14.0 a86.0,86.0 0 0,1 42.35913384403234,11.155469271406648" fill="none" id="id1" stroke="none" /><text fill="#e1ed5e" style="font-size:6.75px; font-family:Arial;" text-anchor="middle"><textPath startOffset="22.145653131862478" xlink:href="#id1">January</textPath></text><line stroke="#e1ed5e" stroke-width="0.3" x1="143.13028292997686" x2="145.6673583964461" y1="26.7553504044142" y2="22.446841604673864" /><path d="M 143.63769802327073 25.89364864446614 a86.0,86.0 0 0,1 29.32050498858742,28.57503671076993" fill="none" id="id2" stroke="none" /><text fill="#e1ed5e" style="font-size:6.75px; font-family:Arial;" text-anchor="middle"><textPath startOffset="20.669276256404974" xlink:href="#id2">February</textPath></text><line stroke="#e1ed5e" stroke-width="0.3" x1="172.87174338648825" x2="177.1583165268699" y1="56.24261187166439" y2="53.66864786411523" /><path d="M 173.72905801456457 55.72781907015455 a86.0,86.0 0 0,1 12.242430191666344,42.057860355516425" fill="none" id="id3" stroke="none" /><text fill="#e1ed5e" style="font-size:6.75px; font-family:Arial;" text-anchor="middle"><textPath startOffset="22.145653131862474" xlink:href="#id3">March</textPath></text><line stroke="#e1ed5e" stroke-width="0.3" x1="184.99686870605535" x2="189.99668451229388" y1="99.2704041080226" y2="99.22748670261217" /><path d="M 185.99683186730306 99.26182062694052 a86.0,86.0 0 0,1 -10.086455211305974,41.156179273409016" fill="none" id="id4" stroke="none" /><text fill="#e1ed5e" style="font-size:6.75px; font-family:Arial;" text-anchor="middle"><textPath startOffset="21.40746469413373" xlink:href="#id4">April</textPath></text><line stroke="#e1ed5e" stroke-width="0.3" x1="174.33088141563837" x2="178.70328620479359" y1="141.23008692659167" y2="143.65538615756765" /><path d="M 175.20536237346943 141.71514677278685 a86.0,86.0 0 0,1 -30.301960400862466,31.631185727798858" fill="none" id="id5" stroke="none" /><text fill="#e1ed5e" style="font-size:6.75px; font-family:Arial;" text-anchor="middle"><textPath startOffset="22.145653131862474" xlink:href="#id5">May</textPath></text><line stroke="#e1ed5e" stroke-width="0.3" x1="143.1302829299769" x2="145.66735839644613" y1="173.24464959558577" y2="177.55315839532614" /><path d="M 143.63769802327073 174.10635135553383 a86.0,86.0 0 0,1 -40.68552437913181,11.842963189579606" fill="none" id="id6" stroke="none" /><text fill="#e1ed5e" style="font-size:6.75px; font-family:Arial;" text-anchor="middle"><textPath startOffset="21.407464694133747" xlink:href="#id6">June</textPath></text><line stroke="#e1ed5e" stroke-width="0.3" x1="101.45913802915013" x2="101.54496967792366" y1="184.9874750549273" y2="189.98673829345242" /><path d="M 101.47630435890484 185.9873277026323 a86.0,86.0 0 0,1 -42.54439059252881,-10.42667462771756" fill="none" id="id7" stroke="none" /><text fill="#e1ed5e" style="font-size:6.75px; font-family:Arial;" text-anchor="middle"><textPath startOffset="22.145653131862474" xlink:href="#id7">July</textPath></text><line stroke="#e1ed5e" stroke-width="0.3" x1="58.13341422392154" x2="55.67067388415222" y1="173.97424548756322" y2="178.32567169271397" /><path d="M 57.64086615596768 174.84453072859336 a86.0,86.0 0 0,1 -31.369924170532247,-30.572349798747897" fill="none" id="id8" stroke="none" /><text fill="#e1ed5e" style="font-size:6.75px; font-family:Arial;" text-anchor="middle"><textPath startOffset="22.145653131862474" xlink:href="#id8">August</textPath></text><line stroke="#e1ed5e" stroke-width="0.3" x1="26.387840678322732" x2="22.057713659400548" y1="142.50000000000003" y2="145.00000000000006" /><path d="M 25.521815274538298 143.00000000000003 a86.0,86.0 0 0,1 -11.493303480769221,-40.785679425670985" fill="none" id="id9" stroke="none" /><text fill="#e1ed5e" style="font-size:6.75px; font-family:Arial;" text-anchor="middle"><textPath startOffset="21.40746469413373" xlink:href="#id9">September</textPath></text><path d="M 79.73907114497094 105.5222062557868 l -37.03116778547391 10.093009450219572 a59.381977897421365,59.381977897421365 0 0,0 -0.259613820076388,-0.9857959611402104 l 37.19897108635503 -9.455832984706559" fill="red" stroke="none" /><path d="M 79.48165901384964 104.47187691870673 l -34.29220037866672 7.473825465155085 a56.097194672711815,56.097194672711815 0 0,0 -0.1969874072141383,-0.9426560537637995 l 34.415445496705225 -6.884052960105876" fill="red" stroke="none" /><path d="M 79.2786578344484 103.40968896794605 l -35.27442988369263 5.804394013866783 a56.74879569283083,56.74879569283083 0 0,0 -0.14992088133278883,-0.9625996041401891 l 35.36887225716369 -5.198006227795144" fill="red" stroke="none" /><path d="M 79.00696218219943 100.54070618675478 l -57.375417895348974 1.477787240365471 a78.39444601870218,78.39444601870218 0 0,0 -0.023102351974829623,-1.3455961827780403 l 57.392331678922474 -0.49264414161837844" fill="red" stroke="none" /><line stroke="#e1ed5e" stroke-width="0.3" x1="15.003131293944662" x2="10.003315487706104" y1="100.72959589197737" y2="100.7725132973878" /><path d="M 14.003168132696942 100.73817937305945 a86.0,86.0 0 0,1 10.791469493833604,-42.45332614584628" fill="none" id="id10" stroke="none" /><text fill="#e1ed5e" style="font-size:6.75px; font-family:Arial;" text-anchor="middle"><textPath startOffset="22.145653131862435" xlink:href="#id10">October</textPath></text><path d="M 79.06263194458094 98.37931529534042 l -49.071400166157844 -3.798436722085416 a70.21819212241428,70.21819212241428 0 0,0 0.10334237805798557,-1.2009950810334282 l 48.998964165402114 4.640252850494525" fill="red" stroke="none" /><path d="M 80.28708602549916 92.7611449362534 l -59.138741923502494 -21.716565191239802 a84.0,84.0 0 0,0 0.5086772647422562,-1.3493268792234203 l 58.757233974945805 22.728560350657368" fill="red" stroke="none" /><path d="M 80.83023694016515 91.42560881287825 l -15.676944230853898 -7.012097751780492 a38.17370359875319,38.17370359875319 0 0,0 0.27269755113484706,-0.5958933633020356 l 15.554262214864005 7.280180097297198" fill="red" stroke="none" /><line stroke="#e1ed5e" stroke-width="0.3" x1="26.387840678322718" x2="22.05771365940052" y1="57.49999999999999" y2="54.99999999999999" /><path d="M 25.521815274538284 56.99999999999999 a86.0,86.0 0 0,1 29.574782752854787,-30.34633250058573" fill="none" id="id11" stroke="none" /><text fill="#e1ed5e" style="font-size:6.75px; font-family:Arial;" text-anchor="middle"><textPath startOffset="21.40746469413373" xlink:href="#id11">November</textPath></text><path d="M 81.81346652052679 89.5 l -36.254537554007946 -20.931567016151888 a62.86313403230377,62.86313403230377 0 0,0 0.5475866608639872,-0.9299218640257005 l 35.88987718301418 21.550840048471162" fill="red" stroke="none" /><path d="M 85.34317274990677 84.96080404539775 l -40.107957142009155 -41.154297345875285 a78.46585434967413,78.46585434967413 0 0,0 0.9727057527288605,-0.9318301076199416 l 39.39557890341499 41.8367395838008" fill="red" stroke="none" /><line stroke="#e1ed5e" stroke-width="0.3" x1="56.869717070023135" x2="54.33264160355391" y1="26.7553504044142" y2="22.446841604673864" /><path d="M 56.362301976729285 25.89364864446614 a86.0,86.0 0 0,1 42.16139366436587,-11.88097634709845" fill="none" id="id12" stroke="none" /><text fill="#e1ed5e" style="font-size:6.75px; font-family:Arial;" text-anchor="middle"><textPath startOffset="22.145653131862474" xlink:href="#id12">December</textPath></text><path d="M 89.65649057296885 81.72400993836675 l -26.075667786223484 -46.073206456027286 a73.94035137432701,73.94035137432701 0 0,0 1.1100059762160235,-0.6157016036513018 l 25.28091762185136 46.51404097511173" fill="red" stroke="none" /><path d="M 91.5904679813234 80.7573450057729 l -22.96238326210475 -52.54242661501057 a78.34088977047321,78.34088977047321 0 0,0 1.236909106087071,-0.5279629462266782 l 22.05703908084725 52.92886421089665" fill="red" stroke="none" /><path d="M 92.25597844496254 80.48000691201159 l -13.123582009039836 -33.07999962105828 a56.58812694814395,56.58812694814395 0 0,0 0.9060237092144467,-0.3504694343302078 l 12.553786037331859 33.30040894352653" fill="red" stroke="none" /><path d="M 93.27111125876988 80.10723608172694 l -17.99582089536128 -53.2014468293174 a77.1626523094361,77.1626523094361 0 0,0 1.2584025675606354,-0.41366191900818805 l 17.079895590152883 53.502529669727615" fill="red" stroke="none" /><path d="M 93.95794788825049 79.88797359093562 l -16.46454920165461 -54.80512948789109 a78.2248512326438,78.2248512326438 0 0,0 1.2893690017674575,-0.3753165249493384 l 15.521320187505529 55.07968970714295" fill="red" stroke="none" /><path d="M 94.6519064749342 79.69241777938228 l -8.92914906480242 -33.90543339299508 a56.06149050722584,56.06149050722584 0 0,0 0.9327422874819248,-0.23709944201756508 l 8.345801484095118 34.05371806684791" fill="red" stroke="none" /><path d="M 98.1996594967304 79.07731436759882 l -4.856174908082531 -56.43611349810907 a77.64465854349675,77.64465854349675 0 0,0 1.328947508124955,-0.10286894198031737 l 3.8866584051823585 56.511160207084444" fill="red" stroke="none" /></svg>