<?xml version="1.0" encoding="utf-8" ?>
<svg baseProfile="full" height="200mm" version="1.1" viewBox="0,0,200,200" width="200mm" xmlns="http://www.w3.org/2000/svg" xmlns:ev="http://www.w3.org/2001/xml-events" xmlns:xlink="http://www.w3.org/1999/xlink"><defs /><rect fill="#1a1a1a" height="200" width="200" x="0" y="0" /><rect fill="#1a1a1a" height="200" width="180" x="10" y="0" /><text alignment-baseline="middle" fill="#e1ed5e" style="dominant-baseline: central; font-size:9.0px; font-family:Arial;" text-anchor="middle" x="100.0" y="100.0">2025</text><line stroke="#e1ed5e" stroke-width="0.3" x1="100.0" x2="100.0" y1="15.0" y2="10.0" /><path d="M 100.0 14.0 a86.0,86.0 0 0,1 42.46469731375804,11.215312516191453" fill="none" id="id61" stroke="none" /><text fill="#e1ed5e" style="font-size:6.75px; font-family:Arial;" text-anchor="middle"><textPath startOffset="22.20632615414155" xlink:href="#id61">January</textPath></text><line stroke="#e1ed5e" stroke-width="0.3" x1="143.23703022742887" x2="145.7803849466894" y1="26.81831364943548" y2="22.513508569990506" /><path d="M 143.74570117128098 25.957352633546492 a86.0,86.0 0 0,1 28.547481713284135,27.462654790039103" fill="none" id="id62" stroke="none" /><text fill="#e1ed5e" style="font-size:6.75px; font-family:Arial;" text-anchor="middle"><textPath startOffset="19.985693538727396" xlink:href="#id62">February</textPath></text><line stroke="#e1ed5e" stroke-width="0.3" x1="172.23445277983987" x2="176.4835382374775" y1="55.19839476539836" y2="52.563006222186495" /><path d="M 173.08426987136738 54.67131705675599 a86.0,86.0 0 0,1 12.851231095245387,41.99856678651699" fill="none" id="id63" stroke="none" /><text fill="#e1ed5e" style="font-size:6.75px; font-family:Arial;" text-anchor="middle"><textPath startOffset="22.20632615414155" xlink:href="#id63">March</textPath></text><line stroke="#e1ed5e" stroke-width="0.3" x1="184.98032266829074" x2="189.97916517819016" y1="98.17113171792111" y2="98.06355123074" /><path d="M 185.9800911702706 98.14961562048488 a86.0,86.0 0 0,1 -9.607161424134198,41.387399972396054" fill="none" id="id64" stroke="none" /><text fill="#e1ed5e" style="font-size:6.75px; font-family:Arial;" text-anchor="middle"><textPath startOffset="21.466115282336823" xlink:href="#id64">April</textPath></text><path d="M 120.32669344350535 105.2749913415812 l 23.61875492049864 6.129316017424694 a45.401108557523315,45.401108557523315 0 0,0 -0.20281739666652676,0.7547589829196474 l -23.509749447490336 -6.5349659335198895" fill="red" stroke="none" /><path d="M 120.13307415673323 105.97154293290107 l 28.039871564508005 8.316727767303892 a50.24726240367717,50.24726240367717 0 0,0 -0.25308643415086624,0.8271011102881088 l -27.892558357851005 -8.798155850144058" fill="red" stroke="none" /><path d="M 119.9155931802556 106.66101706037122 l 32.21980581156129 10.77631352730329 a54.97417872110315,54.97417872110315 0 0,0 -0.30787940376034595,0.8948416624819234 l -32.02953557685771 -11.329327892874513" fill="red" stroke="none" /><path d="M 119.67450827220406 107.3425965602758 l 9.982212997915621 3.7253974436548667 a31.654724888468298,31.654724888468298 0 0,0 -0.19491128599870214,0.5088518628917732 l -9.916607432323412 -3.8966728733797837" fill="red" stroke="none" /><line stroke="#e1ed5e" stroke-width="0.3" x1="174.80103733775053" x2="179.2010983576182" y1="140.37084112569926" y2="142.7455964860345" /><path d="M 175.68104954172406 140.8457921977663 a86.0,86.0 0 0,1 -30.038265399797805,32.042727171017184" fill="none" id="id65" stroke="none" /><text fill="#e1ed5e" style="font-size:6.75px; font-family:Arial;" text-anchor="middle"><textPath startOffset="22.206326154141568" xlink:href="#id65">May</textPath></text><path d="M 117.55443506779139 111.5257021239791 l 21.501038490494782 14.11692054119922 a46.72123833986751,46.72123833986751 0 0,0 -0.44718208655613945,0.6684765449391694 l -21.25485329852792 -14.484934000344195" fill="red" stroke="none" /><path d="M 114.55890576462653 115.13401014063108 l 20.13486629337967 20.930231680229273 a50.04285521157226,50.04285521157226 0 0,0 -0.6259268956594881,0.5918529482330191 l -19.771603563329375 -21.273719265208214" fill="red" stroke="none" /><path d="M 114.0293411484842 115.62618273729858 l 23.98283342200659 26.71259709519271 a56.89901311342436,56.89901311342436 0 0,0 -0.7344244103077151,0.6480441520345799 l -23.519466658792286 -27.121464388999577" fill="red" stroke="none" /><path d="M 113.48314897796784 116.09983520530334 l 18.83849461772308 22.494497343086387 a50.340949033391915,50.340949033391915 0 0,0 -0.6691267920299495,0.5506457959205776 l -18.448497697148436 -22.815438257864145" fill="red" stroke="none" /><path d="M 112.63410532772338 116.77436683061366 l 20.521667637230813 27.24672400565407 a55.11045018250642,55.11045018250642 0 0,0 -0.7626631004778734,0.564199929033879 l -20.049619566334375 -27.595933883427715" fill="red" stroke="none" /><path d="M 112.04921762599082 117.19931262002967 l 16.189965389309556 23.10990511429971 a49.21670947681493,49.21670947681493 0 0,0 -0.6980408609135724,0.4801188692127522 l -15.789767643773102 -23.385164772877555" fill="red" stroke="none" /><line stroke="#e1ed5e" stroke-width="0.3" x1="143.8653032363475" x2="146.44561519142675" y1="172.8068346515853" y2="177.08958963109032" /><path d="M 144.38136562736335 173.6633856474863 a86.0,86.0 0 0,1 -40.68145358897372,12.25698825130547" fill="none" id="id66" stroke="none" /><text fill="#e1ed5e" style="font-size:6.75px; font-family:Arial;" text-anchor="middle"><textPath startOffset="21.466115282336833" xlink:href="#id66">June</textPath></text><path d="M 110.21172684928248 118.3499491758327 l 16.794059364812966 30.17806296120113 a55.53629849939165,55.53629849939165 0 0,0 -0.8393311550933479,0.4576702677133121 l -16.272105397850968 -30.462673880674217" fill="red" stroke="none" /><path d="M 109.57404056367764 118.69057910512821 l 15.89288144942513 31.026310778946776 a55.859943220224416,55.859943220224416 0 0,0 -0.8595677318418284,0.43100510507889306 l -15.35645980990054 -31.295283724934972" fill="red" stroke="none" /><path d="M 106.91757812671514 119.82793768551818 l 12.103189957543236 34.69151947086337 a57.7421927808571,57.7421927808571 0 0,0 -0.9412809654981399,0.31933360950102413 l -11.50423925910787 -34.894716067262515" fill="red" stroke="none" /><path d="M 104.83641907484287 120.43548508189849 l 10.264559017974605 43.371188360243956 a65.56928484520752,65.56928484520752 0 0,0 -1.100564367935982,0.25048486701227535 l -9.516474500645762 -43.541449960833916" fill="red" stroke="none" /><path d="M 104.13013068566511 120.58985236759428 l 8.750494539102819 43.623653684593414 a65.49263214816818,65.49263214816818 0 0,0 -1.1072383533115253,0.21220486566164512 l -7.9982885712195895 -43.767815748603525" fill="red" stroke="none" /><path d="M 103.41894727170886 120.7198165907248 l 6.600320000000341 39.999862230032456 a61.5407597674733,61.5407597674733 0 0,0 -1.046673919772634,0.16346894033213305 l -5.91081021661919 -40.1075494777117" fill="red" stroke="none" /><path d="M 102.70371172650421 120.8252237178851 l 2.0176407638641654 15.540791526662934 a36.67121806137624,36.67121806137624 0 0,0 -0.6266806916919455,0.0758823043740222 l -1.7498326491208394 -15.573219359762307" fill="red" stroke="none" /><path d="M 101.98527174616119 120.90594882070398 l 3.8639931498557067 40.689866861116016 a61.87292145464377,61.87292145464377 0 0,0 -1.061137344753392,0.09155939513840876 l -3.163011487360773 -40.75035050853309" fill="red" stroke="none" /><line stroke="#e1ed5e" stroke-width="0.3" x1="102.19456741930631" x2="102.32365962044197" y1="184.97166512339345" y2="189.96999836594603" /><path d="M 102.22038585953345 185.97133177190398 a86.0,86.0 0 0,1 -42.740103519485714,-10.115201625700543" fill="none" id="id67" stroke="none" /><text fill="#e1ed5e" style="font-size:6.75px; font-family:Arial;" text-anchor="middle"><textPath startOffset="22.20632615414155" xlink:href="#id67">July</textPath></text><path d="M 100.54218724476979 120.99299961872073 l 1.0845210860637937 41.99167532223767 a63.00567797755847,63.00567797755847 0 0,0 -1.0844186565110208,0.01866925060749083 l -0.3615427396601051 -42.004122050124316" fill="red" stroke="none" /><line stroke="#e1ed5e" stroke-width="0.3" x1="58.666819895761336" x2="56.23545636021788" y1="174.27360380694188" y2="178.64263932499728" /><path d="M 58.180547188652646 175.14741091055294 a86.0,86.0 0 0,1 -31.652253787137756,-30.449443065178592" fill="none" id="id68" stroke="none" /><text fill="#e1ed5e" style="font-size:6.75px; font-family:Arial;" text-anchor="middle"><textPath startOffset="22.20632615414155" xlink:href="#id68">August</textPath></text><path d="M 82.85270091963577 112.12312394758628 l -26.364233127076165 18.639487448411355 a53.287819386237665,53.287819386237665 0 0,0 -0.5230810832184328,-0.7535373136068371 l 26.681175117456732 -18.182908872617507" fill="red" stroke="none" /><path d="M 82.44556493220864 111.52570212397912 l -8.180361995224661 5.370974073456267 a30.78599432202244,30.78599432202244 0 0,0 -0.28703561735018474,-0.4454856523525503 l 8.271602475951893 -5.229366821182269" fill="red" stroke="none" /><line stroke="#e1ed5e" stroke-width="0.3" x1="26.63291911575756" x2="22.317208475507996" y1="142.92168965132927" y2="145.44649492493687" /><path d="M 25.769776987707644 143.4266507060508 a86.0,86.0 0 0,1 -11.730757126820373,-40.83630448921669" fill="none" id="id69" stroke="none" /><text fill="#e1ed5e" style="font-size:6.75px; font-family:Arial;" text-anchor="middle"><textPath startOffset="21.46611528233685" xlink:href="#id69">September</textPath></text><path d="M 81.69416730710424 110.29060199501025 l -25.71775224341932 14.457203722069284 a50.5027713938083,50.5027713938083 0 0,0 -0.4194702247217753,-0.7614603012330857 l 25.96279887759261 -14.012372902438376" fill="red" stroke="none" /><path d="M 80.58989483394504 108.01547362559985 l -31.874347364075913 13.162627839686541 a55.48519670136542,55.48519670136542 0 0,0 -0.35694785817947994,-0.8859153109206721 l 32.09619783651278 -12.612013160923064" fill="red" stroke="none" /><path d="M 80.32549172779594 107.34259656027581 l -34.526807067930356 12.885527369060469 a57.85291334324726,57.85291334324726 0 0,0 -0.34016339181229377,-0.9359835599039266 l 34.743494720747876 -12.289296012150425" fill="red" stroke="none" /><path d="M 80.0844068197444 106.66101706037122 l -38.17267542377504 12.767324575090338 a61.25118291199135,61.25118291199135 0 0,0 -0.32582056027097756,-1.0027725744192093 l 38.38678823506227 -12.108353100693325" fill="red" stroke="none" /><path d="M 79.76711848015287 105.62410040840567 l -41.23437730318986 11.461851244655335 a63.79775584696499,63.79775584696499 0 0,0 -0.28499953338483636,-1.06058928615375 l 41.42556491291647 -10.750371025326046" fill="red" stroke="none" /><path d="M 79.58551787078972 104.9243191809786 l -34.85668639880031 8.408023692815974 a56.85642828173584,56.85642828173584 0 0,0 -0.22130534623614598,-0.9533776394862922 l 34.996252310967016 -7.806777395981106" fill="red" stroke="none" /><path d="M 79.23777060512086 103.15116336523772 l -41.16798952746957 6.248224020270608 a62.63944842503718,62.63944842503718 0 0,0 -0.15261937249827762,-1.0674195357880818 l 41.26944295098445 -5.538659012502126" fill="red" stroke="none" /><path d="M 79.1416061653843 102.43462659150553 l -46.045249820932774 5.374478520034316 a67.35784777612545,67.35784777612545 0 0,0 -0.12450841078627051,-1.1527932495554494 l 46.13094053322009 -4.581088948594084" fill="red" stroke="none" /><path d="M 79.0235259727143 100.99374915477108 l -45.7699460322281 2.1683265321083156 a66.82127889685007,66.82127889685007 0 0,0 -0.04454073260528394,-1.149398396245986 l 45.80048889768459 -1.3801508888483331" fill="red" stroke="none" /><line stroke="#e1ed5e" stroke-width="0.3" x1="15.007084014347285" x2="10.007500721073583" y1="101.09737516637583" y2="101.16192664675087" /><path d="M 14.007167355692545 101.11028546245083 a86.0,86.0 0 0,1 10.666146001902534,-42.60595125391555" fill="none" id="id70" stroke="none" /><text fill="#e1ed5e" style="font-size:6.75px; font-family:Arial;" text-anchor="middle"><textPath startOffset="22.20632615414155" xlink:href="#id70">October</textPath></text><path d="M 79.00019446554 99.90962569577889 l -42.71219065377188 -0.1838152503726854 a63.71258618358794,63.71258618358794 0 0,0 0.014159342201463782,-1.0966566576459222 l 42.702698304452696 0.9190081660790796" fill="red" stroke="none" /><path d="M 79.3925641242962 95.95851677861259 l -44.53011424053663 -8.733144222070617 a66.37839664728943,66.37839664728943 0 0,0 0.22954504288380584,-1.1193431503641322 l 44.37318990173784 9.498363028598153" fill="red" stroke="none" /><path d="M 79.54389044137918 95.25157060432595 l -44.584750345286615 -10.3493549705363 a66.77017709882385,66.77017709882385 0 0,0 0.26952004470270347,-1.1173345865354396 l 44.399997500323096 11.115274788731137" fill="red" stroke="none" /><path d="M 80.02781315780177 93.51064311812611 l -42.22590645195863 -13.720028697529507 a65.39894551845342,65.39894551845342 0 0,0 0.3570866703627755,-1.0676436935354043 l 41.983482487824084 14.444845493987234" fill="red" stroke="none" /><path d="M 80.2630227832202 92.82701384747504 l -44.70637464744433 -16.24758455935591 a68.5672569960795,68.5672569960795 0 0,0 0.4126946030159106,-1.1058163572350068 l 44.42007545592679 17.01472405362026" fill="red" stroke="none" /><path d="M 80.52162464483688 92.15188598940014 l -48.52872508047875 -19.552912410618458 a73.3197242125186,73.3197242125186 0 0,0 0.481739612610113,-1.166570683178692 l 48.184963780982436 20.38535766425046" fill="red" stroke="none" /><path d="M 80.803312248108 91.48605970444005 l -47.96706498826821 -21.2739162475104 a73.47302960659727,73.47302960659727 0 0,0 0.5227000185194618,-1.1517002042946065 l 47.593762652785394 22.096438460647075" fill="red" stroke="none" /><path d="M 81.10775173730289 90.83032412892265 l -38.54815506676862 -18.710006478595417 a63.84885764499121,63.84885764499121 0 0,0 0.4884133173824181,-0.9846114444583419 l 38.22038173643279 19.37077751155272" fill="red" stroke="none" /><path d="M 81.43458229118936 90.18545643968196 l -43.257398162951375 -22.867873227265306 a69.9299716101122,69.9299716101122 0 0,0 0.571733797492308,-1.0593358954379521 l 42.85735626624059 23.60909010603573" fill="red" stroke="none" /><line stroke="#e1ed5e" stroke-width="0.3" x1="26.266209847984243" x2="21.928928074336255" y1="57.711370442889674" y2="55.22380399835377" /><path d="M 25.398753493254645 57.213857153982495 a86.0,86.0 0 0,1 29.58750427330803,-30.492523968695096" fill="none" id="id71" stroke="none" /><text fill="#e1ed5e" style="font-size:6.75px; font-family:Arial;" text-anchor="middle"><textPath startOffset="21.46611528233685" xlink:href="#id71">November</textPath></text><path d="M 81.78341655067845 89.55222093294921 l -37.67929252056503 -21.610250064333783 a64.43652832229282,64.43652832229282 0 0,0 0.5601078502834979,-0.957405877761757 l 37.301724995811206 22.25563535444943" fill="red" stroke="none" /><path d="M 83.84228863543731 86.58626213691792 l -41.01572884850529 -34.05025765243912 a74.3076923076923,74.3076923076923 0 0,0 0.825485521507099,-0.9771144859277437 l 40.423532713511065 34.75123108799598" fill="red" stroke="none" /><path d="M 84.31358615837235 86.03803664274999 l -33.024810430670215 -29.394302468900175 a65.21157225902394,65.21157225902394 0 0,0 0.7535239387656412,-0.8320599535512098 l 32.513942851288526 29.95841520972094" fill="red" stroke="none" /><path d="M 85.05521093208273 85.24692304244772 l -38.464092777478584 -37.970674478556234 a75.0486683790726,75.0486683790726 0 0,0 0.915465813515895,-0.9115345123785803 l 37.80479116379538 38.62714484158492" fill="red" stroke="none" /><path d="M 87.22198572758235 83.33499621200491 l -27.51323959940462 -35.88258960813814 a66.21657428687305,66.21657428687305 0 0,0 0.9104900242989472,-0.6857622098641953 l 26.891503421347284 36.35086840750819" fill="red" stroke="none" /><path d="M 87.80319425747018 82.90503203632743 l -28.477900767775125 -39.91445068278882 a70.03217520616465,70.03217520616465 0 0,0 0.9873498240841243,-0.6917016491414173 l 27.78661980410734 40.398737174694176" fill="red" stroke="none" /><path d="M 88.39885842347998 82.49532879139004 l -27.868147177664504 -42.049547479490386 a71.4459916182236,71.4459916182236 0 0,0 1.0309757778981519,-0.6705753244019389 l 27.140204373982066 42.52302172805186" fill="red" stroke="none" /><path d="M 89.00827224532344 82.1063720568725 l -25.628542461120258 -41.721157379359184 a69.96403947546303,69.96403947546303 0 0,0 1.0315962201071047,-0.6215251800056493 l 24.906584174795505 42.156129168823455" fill="red" stroke="none" /><line stroke="#e1ed5e" stroke-width="0.3" x1="56.762969772571076" x2="54.21961505331055" y1="26.818313649435495" y2="22.513508569990535" /><path d="M 56.25429882871897 25.957352633546506 a86.0,86.0 0 0,1 42.265352541879196,-11.944610805530505" fill="none" id="id72" stroke="none" /><text fill="#e1ed5e" style="font-size:6.75px; font-family:Arial;" text-anchor="middle"><textPath startOffset="22.20632615414155" xlink:href="#id72">December</textPath></text><path d="M 89.63071344664047 81.73862282372117 l -24.210889287964353 -42.63785929586476 a70.03217520616465,70.03217520616465 0 0,0 1.0534036732149221,-0.5862180036481501 l 23.473361525677387 43.04829269707309" fill="red" stroke="none" /><path d="M 90.26544431104013 81.39251694778311 l -23.976459388557515 -45.83070619553056 a72.72353656887927,72.72353656887927 0 0,0 1.1141921522139013,-0.5707324958219367 l 23.18400674875485 46.236631216665" fill="red" stroke="none" /><path d="M 91.90106846888425 80.62456947434976 l -20.466855091408256 -48.963758661076106 a74.06921725023659,74.06921725023659 0 0,0 1.1805791324103223,-0.4815878706868294 l 19.62099208940955 49.30880741794651" fill="red" stroke="none" /><path d="M 92.91201910852362 80.23233633223022 l -18.9900777757576 -52.9614111893824 a77.26307962687576,77.26307962687576 0 0,0 1.2557752141973355,-0.4381153144407612 l 18.07562055749698 53.280447356995374" fill="red" stroke="none" /><path d="M 93.59665428221793 80.00007090966166 l -19.21003715334623 -59.99978727101503 a84.0,84.0 0 0,0 1.380858509157085,-0.42903946046989905 l 18.17439327147842 60.321566866367455" fill="red" stroke="none" /><path d="M 94.28887869178378 79.79150937346287 l -15.799199044210987 -55.90460236458417 a79.09422738948223,79.09422738948223 0 0,0 1.3133487638538721,-0.35898782919824185 l 14.834552391133393 56.1682767346087" fill="red" stroke="none" /><path d="M 95.33964822691252 79.52364482259891 l -11.947309811147484 -52.493324757206544 a74.83574422062998,74.83574422062998 0 0,0 1.2585136935667414,-0.27506234827537024 l 11.041953393427221 52.69120060357778" fill="red" stroke="none" /><path d="M 96.04723909329186 79.375362276772 l -9.843160186773549 -51.35944664889278 a73.29417331350547,73.29417331350547 0 0,0 1.2411316964291743,-0.22680888440827948 l 8.957633369241481 51.521271014651795" fill="red" stroke="none" /></svg>