<?xml version="1.0" encoding="utf-8" ?>
<svg baseProfile="full" height="200mm" version="1.1" viewBox="0,0,200,200" width="200mm" xmlns="http://www.w3.org/2000/svg" xmlns:ev="http://www.w3.org/2001/xml-events" xmlns:xlink="http://www.w3.org/1999/xlink"><defs /><rect fill="#1a1a1a" height="200" width="200" x="0" y="0" /><rect fill="#1a1a1a" height="200" width="180" x="10" y="0" /><text alignment-baseline="middle" fill="#e1ed5e" style="dominant-baseline: central; font-size:9.0px; font-family:Arial;" text-anchor="middle" x="100.0" y="100.0">2026</text><line stroke="#e1ed5e" stroke-width="0.3" x1="100.0" x2="100.0" y1="15.0" y2="10.0" /><path d="M 100.0 14.0 a86.0,86.0 0 0,1 42.46469731375804,11.215312516191453" fill="none" id="id73" stroke="none" /><text fill="#e1ed5e" style="font-size:6.75px; font-family:Arial;" text-anchor="middle"><textPath startOffset="22.20632615414155" xlink:href="#id73">January</textPath></text><path d="M 103.95276090670814 79.375362276772 l 4.107593990774486 -21.432522728622427 a42.822588272383356,42.822588272383356 0 0,0 0.7227506532043716,0.14497698174766624 l -4.475911053445983 21.358641790797552" fill="red" stroke="none" /><path d="M 104.66035177308747 79.52364482259891 l 5.782832464966048 -25.408238959095428 a47.05800756620429,47.05800756620429 0 0,0 0.7882805905013818,0.18656054744725903 l -6.219336742429953 25.3049324995073" fill="red" stroke="none" /><path d="M 105.36241919743992 79.69619591428918 l 7.421084385864413 -28.098557372398837 a50.06202711223203,50.06202711223203 0 0,0 0.8312730725607202,0.22721833225308138 l -7.9036553476488445 27.96665249931946" fill="red" stroke="none" /><path d="M 106.74666289553966 80.11325718540242 l 9.068752812376164 -26.7314311714188 a49.22785308953342,49.22785308953342 0 0,0 0.8001120076565299,0.2791433688602643 l -9.52754682409597 26.57136694938633" fill="red" stroke="none" /><path d="M 107.4271985657038 80.35727306442388 l 10.624499839811163 -28.098636024645845 a51.04019546027743,51.04019546027743 0 0,0 0.8191145300867173,0.3178037119658983 l -11.106597534897547 27.911589608789402" fill="red" stroke="none" /><path d="M 108.09893153111575 80.62456947434976 l 12.008606470277474 -28.728718039017814 a52.1375315258512,52.1375315258512 0 0,0 0.8250546930838021,0.35324536173109444 l -12.501344921151592 28.517753149323926" fill="red" stroke="none" /><path d="M 108.76106565485865 80.91482961587045 l 12.59265087859846 -27.431924045978153 a51.18418978562421,51.18418978562421 0 0,0 0.7975515302301335,0.37446113744151244 l -13.062980620128192 27.211097925896638" fill="red" stroke="none" /><path d="M 109.41281617654863 81.2277094730956 l 14.125901073270992 -28.171751570207018 a52.51489596469105,52.51489596469105 0 0,0 0.8045770010479488,0.4121355898770232 l -14.608738561907696 27.924423455017493" fill="red" stroke="none" /><path d="M 110.05341064243156 81.56283822128135 l 14.809130273253924 -27.158776296047574 a51.93395334174023,51.93395334174023 0 0,0 0.7811754676148868,0.434723301966951 l -15.274429829940846 26.89983759652044" fill="red" stroke="none" /><line stroke="#e1ed5e" stroke-width="0.3" x1="143.23703022742887" x2="145.7803849466894" y1="26.81831364943548" y2="22.513508569990506" /><path d="M 143.74570117128098 25.957352633546492 a86.0,86.0 0 0,1 28.547481713284135,27.462654790039103" fill="none" id="id74" stroke="none" /><text fill="#e1ed5e" style="font-size:6.75px; font-family:Arial;" text-anchor="middle"><textPath startOffset="19.985693538727396" xlink:href="#id74">February</textPath></text><path d="M 110.68208982089419 81.91981866633111 l 27.972291480076414 -47.345052396843364 a75.99093631778058,75.99093631778058 0 0,0 1.1204607860773652,0.6750650866903081 l -28.78311433237142 46.85654070069444" fill="red" stroke="none" /><path d="M 111.2981086023043 82.29822771554956 l 18.873219721456454 -29.570386472960838 a56.07999684741488,56.07999684741488 0 0,0 0.8092422970800154,0.5263537005597977 l -19.37942904432075 29.24113384824151" fill="red" stroke="none" /><path d="M 111.90073688211348 82.69761687909136 l 18.464526029420377 -26.845421982834758 a53.58244010088272,53.58244010088272 0 0,0 0.7554329513807443,0.5292290589817424 l -18.923890120384772 26.52360808108908" fill="red" stroke="none" /><path d="M 113.06298171725822 83.55741782278167 l 9.093021321471042 -11.445530090573158 a35.617906683480456,35.617906683480456 0 0,0 0.4767653580463549,0.385511096065253 l -9.288690078081888 11.287312897243774" fill="red" stroke="none" /><path d="M 113.6212207817346 84.01681056812373 l 21.9906278761863 -25.803881803479943 a54.903215636822196,54.903215636822196 0 0,0 0.7140194602214328,0.6191906398394282 l -22.431541135054495 25.421526170220844" fill="red" stroke="none" /><path d="M 114.68862486808459 84.99185889309783 l 27.037581478098645 -27.625720015108797 a59.65502837326608,59.65502837326608 0 0,0 0.7276896480587322,0.7245647174509593 l -27.509106926324698 27.156219447007718" fill="red" stroke="none" /><path d="M 115.9244219780498 86.31012108654704 l 38.50326430033198 -33.10041813579051 a71.77537831021438,71.77537831021438 0 0,0 0.7973539987009517,0.9438156360643257 l -39.06732891252005 32.432743550097086" fill="red" stroke="none" /><path d="M 116.38621287248628 86.86637796730983 l 31.25881907043333 -25.054081626673465 a61.06021437578815,61.06021437578815 0 0,0 0.6502794182477522,0.825788824265803 l -31.685452569275046 24.512300408454625" fill="red" stroke="none" /><path d="M 116.82858285166822 87.43820079747576 l 24.58633672141973 -18.352622305894695 a51.68072194199243,51.68072194199243 0 0,0 0.5260048805376746,0.7174700659172139 l -24.898604214471032 17.926689796305986" fill="red" stroke="none" /><path d="M 117.2510076193507 88.02491185347247 l 33.22668065902367 -23.06488052686316 a61.44750945775536,61.44750945775536 0 0,0 0.5956766462470527,0.8740819757300512 l -33.61878177093946 22.4895205278627" fill="red" stroke="none" /><line stroke="#e1ed5e" stroke-width="0.3" x1="172.23445277983987" x2="176.4835382374775" y1="55.19839476539836" y2="52.563006222186495" /><path d="M 173.08426987136738 54.67131705675599 a86.0,86.0 0 0,1 12.851231095245387,41.99856678651699" fill="none" id="id75" stroke="none" /><text fill="#e1ed5e" style="font-size:6.75px; font-family:Arial;" text-anchor="middle"><textPath startOffset="22.20632615414155" xlink:href="#id75">March</textPath></text><path d="M 117.84615892207809 88.93136811851018 l 35.45320632013715 -21.98896084527367 a62.718631778058004,62.718631778058004 0 0,0 0.5611352411524141,0.9223587958772742 l -35.82645735957579 21.375434276189313" fill="red" stroke="none" /><path d="M 118.3937258080291 89.86733742301442 l 44.93473558840401 -24.753468571583017 a72.3017023959647,72.3017023959647 0 0,0 0.5911246054335264,1.0952641175996907 l -45.354168293056 23.97632347065087" fill="red" stroke="none" /><path d="M 118.89224826269711 90.83032412892265 l 30.366370670668733 -14.738837461755303 a54.75425598991173,54.75425598991173 0 0,0 0.4042475592155597,0.8514484556888118 l -30.615576423726047 14.213946590425952" fill="red" stroke="none" /><path d="M 119.196687751892 91.48605970444005 l 22.944338726154026 -10.176064358619684 a46.09970050441362,46.09970050441362 0 0,0 0.3154740588549664,0.7281576234102579 l -23.116103494851675 9.779607590622824" fill="red" stroke="none" /><path d="M 119.61058180528143 92.48833698450437 l 27.2690333220823 -10.445166344765878 a50.20105611601513,50.20105611601513 0 0,0 0.3021515783541302,0.8096160096755433 l -27.444789488938056 9.974227198061003" fill="red" stroke="none" /><path d="M 119.97218684219823 93.5106431181261 l 50.39167854502614 -16.37324888551616 a73.98494640605296,73.98494640605296 0 0,0 0.3831170097791153,1.2145856171636693 l -50.666051038573464 15.50341310192607" fill="red" stroke="none" /><path d="M 120.18372546131832 94.20196356495316 l 29.865168806020655 -8.579156370710079 a52.07298234552333,52.07298234552333 0 0,0 0.24006445652908923,0.8636395784862023 l -30.008420033116106 8.063805488804924" fill="red" stroke="none" /><path d="M 120.37134235888165 94.90015583598534 l 31.308415510576307 -7.837875252071693 a53.27459016393443,53.27459016393443 0 0,0 0.21504465835472447,0.8914989409951951 l -31.43869296919185 7.297791079417091" fill="red" stroke="none" /><path d="M 120.6074358757038 95.95851677861258 l 59.72713169082057 -11.713548548494746 a81.86491172761664,81.86491172761664 0 0,0 0.2592945400355091,1.3851618011149684 l -59.91991195476594 10.683708669917214" fill="red" stroke="none" /><path d="M 120.67395015179393 96.31383870115 l 29.832862021531774 -5.319193507301742 a51.30335750315258,51.30335750315258 0 0,0 0.14752925035132777,0.8707259867255653 l -29.920003133403327 4.804881732260339" fill="red" stroke="none" /><path d="M 120.78858239683441 97.02765380044208 l 30.05726230059326 -4.297579684023479 a51.36294136191677,51.36294136191677 0 0,0 0.11760646289708145,0.876304751789665 l -30.126784762548176 3.779556590169149" fill="red" stroke="none" /><path d="M 120.83666639777658 97.38593545837742 l 26.357857478271917 -3.306725716664751 a47.564470365699876,47.564470365699876 0 0,0 0.09492429345703514,0.8132533770507868 l -26.410872124732542 2.8525286012891113" fill="red" stroke="none" /><path d="M 120.94382443527127 98.46500227214037 l 62.831473305813795 -4.6049931835789 a84.0,84.0 0 0,0 0.09327763598233796,1.442963742987859 l -62.90143153280055 3.5227703763380056" fill="red" stroke="none" /><line stroke="#e1ed5e" stroke-width="0.3" x1="184.98032266829074" x2="189.97916517819016" y1="98.17113171792111" y2="98.06355123074" /><path d="M 185.9800911702706 98.14961562048488 a86.0,86.0 0 0,1 -9.607161424134198,41.387399972396054" fill="none" id="id76" stroke="none" /><text fill="#e1ed5e" style="font-size:6.75px; font-family:Arial;" text-anchor="middle"><textPath startOffset="21.466115282336823" xlink:href="#id76">April</textPath></text><path d="M 120.99513854157772 99.54816195383933 l 27.163949739796628 -0.5845975225231332 a48.1702395964691,48.1702395964691 0 0,0 0.010705245968317038,0.8291330978411328 l -27.16998799288266 0.11692816662153775" fill="red" stroke="none" /><path d="M 120.99980553446 99.90962569577887 l 30.06970893364353 -0.12940734229898257 a51.06998738965952,51.06998738965952 0 0,0 -0.0037833198955781067,0.8791103042675839 l -30.067481316458448 -0.38821244017228596" fill="red" stroke="none" /><line stroke="#e1ed5e" stroke-width="0.3" x1="174.80103733775053" x2="179.2010983576182" y1="140.37084112569926" y2="142.7455964860345" /><path d="M 175.68104954172406 140.8457921977663 a86.0,86.0 0 0,1 -30.038265399797805,32.042727171017184" fill="none" id="id77" stroke="none" /><text fill="#e1ed5e" style="font-size:6.75px; font-family:Arial;" text-anchor="middle"><textPath startOffset="22.206326154141568" xlink:href="#id77">May</textPath></text><line stroke="#e1ed5e" stroke-width="0.3" x1="143.8653032363475" x2="146.44561519142675" y1="172.8068346515853" y2="177.08958963109032" /><path d="M 144.38136562736335 173.6633856474863 a86.0,86.0 0 0,1 -40.68145358897372,12.25698825130547" fill="none" id="id78" stroke="none" /><text fill="#e1ed5e" style="font-size:6.75px; font-family:Arial;" text-anchor="middle"><textPath startOffset="21.466115282336833" xlink:href="#id78">June</textPath></text><line stroke="#e1ed5e" stroke-width="0.3" x1="102.19456741930631" x2="102.32365962044197" y1="184.97166512339345" y2="189.96999836594603" /><path d="M 102.22038585953345 185.97133177190398 a86.0,86.0 0 0,1 -42.740103519485714,-10.115201625700543" fill="none" id="id79" stroke="none" /><text fill="#e1ed5e" style="font-size:6.75px; font-family:Arial;" text-anchor="middle"><textPath startOffset="22.20632615414155" xlink:href="#id79">July</textPath></text><line stroke="#e1ed5e" stroke-width="0.3" x1="58.666819895761336" x2="56.23545636021788" y1="174.27360380694188" y2="178.64263932499728" /><path d="M 58.180547188652646 175.14741091055294 a86.0,86.0 0 0,1 -31.652253787137756,-30.449443065178592" fill="none" id="id80" stroke="none" /><text fill="#e1ed5e" style="font-size:6.75px; font-family:Arial;" text-anchor="middle"><textPath startOffset="22.20632615414155" xlink:href="#id80">August</textPath></text><line stroke="#e1ed5e" stroke-width="0.3" x1="26.63291911575756" x2="22.317208475507996" y1="142.92168965132927" y2="145.44649492493687" /><path d="M 25.769776987707644 143.4266507060508 a86.0,86.0 0 0,1 -11.730757126820373,-40.83630448921669" fill="none" id="id81" stroke="none" /><text fill="#e1ed5e" style="font-size:6.75px; font-family:Arial;" text-anchor="middle"><textPath startOffset="21.46611528233685" xlink:href="#id81">September</textPath></text><line stroke="#e1ed5e" stroke-width="0.3" x1="15.007084014347285" x2="10.007500721073583" y1="101.09737516637583" y2="101.16192664675087" /><path d="M 14.007167355692545 101.11028546245083 a86.0,86.0 0 0,1 10.666146001902534,-42.60595125391555" fill="none" id="id82" stroke="none" /><text fill="#e1ed5e" style="font-size:6.75px; font-family:Arial;" text-anchor="middle"><textPath startOffset="22.20632615414155" xlink:href="#id82">October</textPath></text><line stroke="#e1ed5e" stroke-width="0.3" x1="26.266209847984243" x2="21.928928074336255" y1="57.711370442889674" y2="55.22380399835377" /><path d="M 25.398753493254645 57.213857153982495 a86.0,86.0 0 0,1 29.58750427330803,-30.492523968695096" fill="none" id="id83" stroke="none" /><text fill="#e1ed5e" style="font-size:6.75px; font-family:Arial;" text-anchor="middle"><textPath startOffset="21.46611528233685" xlink:href="#id83">November</textPath></text><line stroke="#e1ed5e" stroke-width="0.3" x1="56.762969772571076" x2="54.21961505331055" y1="26.818313649435495" y2="22.513508569990535" /><path d="M 56.25429882871897 25.957352633546506 a86.0,86.0 0 0,1 42.265352541879196,-11.944610805530505" fill="none" id="id84" stroke="none" /><text fill="#e1ed5e" style="font-size:6.75px; font-family:Arial;" text-anchor="middle"><textPath startOffset="22.20632615414155" xlink:href="#id84">December</textPath></text></svg>